<svg xmlns="http://www.w3.org/2000/svg" viewBox="0 0 128 128"><defs><linearGradient id="a" x1="-52" x2="12" y1="-49.3" y2="105" gradientUnits="userSpaceOnUse"><stop stop-color="red" offset="0"/><stop stop-color="#c40000" offset="1"/></linearGradient></defs><path fill="url(#a)" fill-rule="evenodd" d="M-20-32l42.4 17.6L40 28 22.4 70.4-20 88l-42.4-17.6L-80 28l17.6-42.4z" transform="matrix(1 -.414 .414 1 72.4 27.7)"/><path d="M68.6 26c-4 1.3-2 6.5-2.5 9.8v25.4c-5-1-1-8-2-11.7v-19c-2.3-5-10-.3-7.2 4.6v30c-4.2 3-2-5.3-2.4-8V43c-3.3-4.4-10 .7-7.5 5.3.4 13.2-.6 26.5.6 39.7 3 12.5 18.6 20.2 30 14 7-3.5 12-11 12.5-18.6 1.8-9 5.4-17.7 9.8-26-2-4.7-8 0-10 2.8-1.6 2-4 9-5 7V35.8c-3-5.3-10 0-7.5 5V63c-5-1.8-1.6-8-2.5-11.7-.2-8 .3-16-.3-24-.5-1-1.4-1.5-2.3-1.4" opacity=".1"/><path fill="#fff" d="M64.6 26C62 26 62 28.7 62 30.6v30.6c-2 .6-3 .2-2.4-2V30.4c-.6-2.3-3.2-2-5-2-2.6 0-2.7 2.8-2.6 4.6v31.3c-1.6 1.4-3 2.6-2.5-.2V43c-.5-2.4-3.2-2-5-2-4 .6-2 6-2.5 8.8 0 11.7 0 23.4.2 35 .8 8.3 7 15.6 15 18 8.8 3 19.4-1 24.2-9 2.5-3.5 3-7.7 3.7-12 3-8.5 6-16.8 10-24.6 0-2.5-3-3-4-1.5-2.4 1-5 2.3-6 5-1.6 2.5-3.2 5.2-4.7 8V35.3c-.5-2.4-3-2-5-2-2.5 0-2.6 2.7-2.5 4.5v25c-2.5-.2-3-1.8-2.5-3.8V28c-.3-1.3-1.4-2.2-2.6-2"/><g fill-rule="evenodd"><path d="M44.8 8L12 40.8v46.4L44.8 120h46.4L124 87.2V40.8L91.2 8H44.8zm3.3 8h40l28 28v40l-28 28H48L20 84V44l28-28z" opacity=".1"/><path fill="#fff" d="M40.8 8L8 40.8v46.4L40.8 120h46.4L120 87.2V40.8L87.2 8H40.8zm3.3 8h40l28 28v40l-28 28H44L16 84V44l28-28z"/></g></svg>