<svg id="Layer_1" data-name="Layer 1" xmlns="http://www.w3.org/2000/svg" viewBox="0 0 70 70"><defs><style>.cls-1{fill:#c4e4f2;}.cls-2,.cls-3{fill:#1495cc;}.cls-3{opacity:0.5;}</style></defs><circle class="cls-1" cx="35" cy="35" r="35"/><path class="cls-2" d="M46.55,32.57c-1-.22-1.29-.32-1.83-1.62a2,2,0,0,1,.16-2.4,1.62,1.62,0,0,0-.14-2.14l-1.15-1.15a1.62,1.62,0,0,0-2.14-.14c-.86.54-1.14.66-2.4.16s-1.4-.84-1.62-1.83A1.61,1.61,0,0,0,35.81,22H34.19a1.61,1.61,0,0,0-1.62,1.41c-.22,1-.41,1.34-1.62,1.83s-1.54.38-2.4-.16a1.62,1.62,0,0,0-2.14.14l-1.15,1.15a1.62,1.62,0,0,0-.14,2.14,2,2,0,0,1,.16,2.4c-.54,1.3-.84,1.4-1.83,1.62A1.61,1.61,0,0,0,22,34.19v1.62a1.61,1.61,0,0,0,1.41,1.62c1,.22,1.29.32,1.83,1.62a2,2,0,0,1-.16,2.4,1.62,1.62,0,0,0,.14,2.14l1.15,1.15a1.62,1.62,0,0,0,2.14.14c.86-.54,1.14-.66,2.4-.16s1.4.84,1.62,1.83A1.61,1.61,0,0,0,34.19,48h1.62a1.61,1.61,0,0,0,1.62-1.41c.22-1,.41-1.34,1.62-1.83s1.54-.38,2.4.16a1.62,1.62,0,0,0,2.14-.14l1.15-1.15a1.63,1.63,0,0,0,.14-2.15,2,2,0,0,1-.16-2.39c.54-1.3.84-1.4,1.83-1.62A1.61,1.61,0,0,0,48,35.81V34.19a1.61,1.61,0,0,0-1.41-1.62Z"/><path class="cls-1" d="M39.05,35A4,4,0,1,1,35,31,4.05,4.05,0,0,1,39.05,35Z"/><path class="cls-3" d="M56.54,26.59l-6.06,10.3,3.46,0A19.18,19.18,0,0,1,21.29,48.56,2.4,2.4,0,0,0,17.9,52,24,24,0,0,0,58.76,37l3.67,0Z"/><path class="cls-3" d="M15.74,33.42a19.18,19.18,0,0,1,32.68-12,2.4,2.4,0,0,0,3.39-3.39A24,24,0,0,0,10.93,33.47l-3.68,0,6.07,10.29,5.89-10.4Z"/></svg>