<svg xmlns="http://www.w3.org/2000/svg" width="512" height="512" preserveAspectRatio="xMidYMid" viewBox="0 0 1 1"><defs><linearGradient id="a" x2="0%" y2="100%"><stop stop-color="#f9aa4b" offset="0"/><stop stop-color="#f7931a" offset="1"/></linearGradient></defs><path fill="url(#a)" d="M63 39.7C58.8 56.9 41.4 67.3 24.3 63 7.1 58.8-3.3 41.4 1 24.3 5.23 7.1 22.6-3.3 39.7 1 56.9 5.23 67.3 22.6 63 39.7z" transform="scale(.0156)"/><path fill="#fff" d="M.72.43C.73.36.68.326.61.302l.023-.09L.578.2.556.286.512.276l.022-.09L.48.176l-.023.09-.11-.03-.015.06.04.01c.022.006.026.02.025.03l-.06.246C.333.59.327.6.31.598L.27.588.244.65l.112.028-.024.09.056.015.022-.09.044.01-.024.09.055.017.022-.09C.6.733.67.727.7.642.726.572.7.535.65.51.686.5.713.477.72.43zM.596.604c-.018.07-.133.03-.17.023l.03-.12c.04.008.157.027.14.098zM.612.428C.597.49.502.458.47.45L.498.34c.03.01.13.023.114.088z"/></svg>