<svg xmlns="http://www.w3.org/2000/svg" width="512" height="512" viewBox="0 0 1 1" preserveAspectRatio="xMidYMid"><defs><linearGradient id="a" x1="0%" y1="0%" x2="0%" y2="100%"><stop offset="0%" stop-color="#f9aa4b"/><stop offset="100%" stop-color="#f7931a"/></linearGradient></defs><path d="M63.036 39.74C58.762 56.885 41.4 67.318 24.254 63.043 7.116 58.768-3.316 41.403.96 24.263 5.23 7.116 22.593-3.317 39.733.956 56.878 5.23 67.31 22.596 63.036 39.74z" fill="url(#a)" transform="scale(.01563)"/><path d="M.72.43C.73.36.68.326.61.302l.023-.09L.578.2.556.286.512.276l.022-.09L.48.176l-.023.09-.035-.01-.076-.02-.014.06.04.01c.022.006.026.02.025.03L.372.44s.003 0 .005.002H.37l-.033.14C.333.59.327.6.31.598L.27.588.244.65l.072.018.04.01-.024.09.056.015.022-.09.044.01-.024.09.055.017.022-.09C.6.733.67.727.7.642.726.572.7.535.65.51.686.5.713.477.72.43zM.596.604c-.018.07-.133.03-.17.023l.03-.12c.04.008.157.027.14.098zM.612.428C.597.49.502.458.47.45L.498.34c.03.01.13.023.114.088z" fill="#fff"/></svg>