<svg xmlns="http://www.w3.org/2000/svg" viewBox="0 0 45 45"><defs><clipPath id="a"><path d="M0 36h36V0H0v36z"/></clipPath></defs><g clip-path="url(#a)" transform="matrix(1.25 0 0 -1.25 0 45)"><path fill="#99aab5" d="M18.04 22.05L0 10V2C0 .9.9 0 2 0h32c1.1 0 2 .9 2 2v8L18.04 22.04z"/><path fill="#66757f" d="M36 3H0V2h36v1zm0 3H0V5h36v1zm0 3H0V8h36v1zM1.5 11h33L33 12H3l-1.5-1z"/><path fill="#e1e8ed" d="M18 36c-7.18 0-13-1.34-13-3V0h26v33c0 1.66-5.82 3-13 3"/><path fill="#ccd6dd" d="M18 23c7.18 0 13-1.34 13-3v2c0 1.66-5.82 3-13 3S5 23.66 5 22v-2c0 1.66 5.82 3 13 3m0-12c7.18 0 13-1.34 13-3v2c0 1.66-5.82 3-13 3S5 11.66 5 10V8c0 1.66 5.82 3 13 3m0-6c7.18 0 13-1.34 13-3v2c0 1.66-5.82 3-13 3S5 5.66 5 4V2c0 1.66 5.82 3 13 3m0 24c7.18 0 13-1.34 13-3v2c0 1.66-5.82 3-13 3S5 29.66 5 28v-2c0 1.66 5.82 3 13 3"/><path fill="#ccd6dd" d="M14 35.85V0h2v35.96c-.7-.02-1.35-.06-2-.1m-6-.94V0h2v35.36c-.73-.13-1.4-.28-2-.44m12 1.04V0h2v35.85c-.65.05-1.3.1-2 .1m6-.6V0h2v34.92c-.6.16-1.27.3-2 .44"/><path fill="#292f33" d="M18 17c7.18 0 13-1.34 13-3v2c0 1.66-5.82 3-13 3S5 17.66 5 16v-2c0 1.66 5.82 3 13 3"/><path fill="#be1931" d="M11.13 30.42h-.7c-.58 0-.82.42-.82.83 0 .4.3.82.87.82h1.7c.52 0 .8-.37.8-.85V24.4c0-.6-.37-.94-.9-.94-.5 0-.9.34-.9.94v6.02zm7.37-2.15c0 .9-.1 2.78-1.3 2.78s-1.32-1.87-1.32-2.78c0-.85.1-2.78 1.3-2.78s1.32 1.9 1.32 2.72m-4.5 0c0 1.96.77 4.4 3.2 4.4s3.17-2.45 3.17-4.4-.76-4.4-3.18-4.4-3.2 2.44-3.2 4.4m11.2.98c0 .68-.4 1.26-1.16 1.26-.7 0-1.14-.57-1.14-1.27 0-.64.4-1.26 1.15-1.26.68 0 1.14.53 1.14 1.24m1.86 0c0-1.8-1.86-4.36-3.07-5.5-.1-.1-.23-.2-.37-.3-.13-.06-.27-.06-.36-.06-.35 0-.87.43-.87.86 0 .2.1.34.28.5.47.6 1.25 1.37 1.64 1.94v.02c-.23-.1-.5-.14-.77-.14-1.44 0-2.5 1.28-2.5 2.7 0 1.56 1.23 3 3 3 1.85 0 3.02-1.4 3.02-3"/></g></svg>