<svg xmlns="http://www.w3.org/2000/svg" version="1.1" id="Layer_1" x="0" y="0" xml:space="preserve" width="43.1" height="43.1"><style type="text/css" id="style5050"></style><path id="path5054" d="M10.8 3.8C14.1 1.9 17.7.9 21.6.9c3.9 0 7.5 1 10.8 2.9 3.3 1.9 5.9 4.5 7.8 7.8 1.9 3.3 2.9 6.9 2.9 10.8 0 4.7-1.4 8.9-4.1 12.6-2.7 3.7-6.2 6.3-10.6 7.7-.5.1-.9 0-1.1-.2-.2-.2-.6-.58-.4-.8v-5.9c0-1.8-.5-3.1-1.5-4 1.1-.1 2-.3 2.9-.5.8-.2 1.7-.6 2.6-1.1.9-.5 1.7-1.1 2.3-1.9.6-.7 1.1-1.7 1.5-2.9.4-1.2.6-2.6.6-4.2a8 8 0 00-2.2-5.7c.7-1.7.6-3.6-.2-5.7-.5-.2-1.3-.1-2.3.3-1 .4-1.8.8-2.6 1.2l-1.1.7c-1.7-.5-3.5-.7-5.4-.7-1.8 0-3.6.2-5.4.7-.3-.2-.7-.5-1.2-.8-.5-.3-1.3-.7-2.3-1.1-1.1-.4-1.9-.5-2.4-.4-.8 2.1-.9 4-.2 5.7a8.81 8.81 0 00-2.1 5.8c0 1.6.2 3 .6 4.2a8.17 8.17 0 003.7 4.8c.9.5 1.8.9 2.6 1.1.8.2 1.8.4 2.9.5-.7.7-1.2 1.6-1.4 2.9-.4.2-.8.3-1.3.4-.4.1-1 .1-1.6.1-.6 0-1.2-.2-1.8-.6-.6-.4-1.1-1-1.5-1.7-.4-.6-.8-1.1-1.4-1.5-.5-.4-1-.6-1.4-.7l-.6-.1c-.4 0-.7 0-.8.1-.1.1-.2.2-.1.3.1.1.1.3.3.4.1.1.2.2.4.3l.2.1c.4.2.8.5 1.2 1.1.4.5.7 1 .9 1.4l.3.6c.2.7.7 1.3 1.2 1.7.6.4 1.2.7 1.9.8.7.1 1.3.2 1.9.2.6 0 1.1 0 1.5-.1l.6-.1v4c0 .3-.1.6-.4.8-.2.2-.6.3-1.1.2-4.3-1.4-7.8-4-10.6-7.7S0 26.8 0 22.1c0-3.9 1-7.5 2.9-10.8 2-3 4.6-5.6 7.9-7.5zM8.2 31.7c.1-.1 0-.2-.2-.3-.2-.1-.3 0-.4.1-.1.1 0 .2.2.3.2.1.4.1.4-.1zm.9 1c.1-.1.1-.2-.1-.4s-.3-.2-.4-.1c-.1.1-.1.2.1.4.1.2.3.2.4.1zm.8 1.2c.2-.1.2-.3 0-.5-.1-.2-.3-.3-.5-.2-.2.1-.2.3 0 .5s.4.3.5.2zm1.2 1.2c.1-.1.1-.3-.1-.5s-.4-.3-.6-.1c-.2.1-.1.3.1.5.3.2.5.2.6.1zm1.6.7c.1-.2-.1-.4-.4-.4-.3-.1-.5 0-.5.2-.1.2 0 .3.4.4.2.1.4 0 .5-.2zm1.8.1c0-.2-.2-.3-.5-.3s-.4.1-.4.3c0 .2.2.3.5.3.2 0 .4-.1.4-.3zm1.6-.3c0-.2-.2-.3-.5-.3-.3.1-.4.2-.4.4s.2.3.5.2c.3.1.4-.1.4-.3z"/></svg>