<svg version="1.1" id="Layer_1" xmlns="http://www.w3.org/2000/svg" x="0" y="0" viewBox="0 0 150 150" xml:space="preserve" enable-background="new 0 0 150 150"><style>.st2{fill:#e8c63a}.st4{fill:#fcde63}</style><filter filterUnits="objectBoundingBox" id="AI_Shadow_1"><feGaussianBlur in="SourceAlpha" result="blur" stdDeviation="2"/><feOffset dy="2"/><feComponentTransfer><feFuncA type="linear" slope=".2"/></feComponentTransfer><feMerge><feMergeNode/><feMergeNode in="SourceGraphic"/></feMerge></filter><g filter="url(#AI_Shadow_1)"><circle cx="73.5" cy="74.7" r="68.3" fill="#fff"/></g><path class="st2" d="M45.1 45.4C42.4 42 43 37 46.4 34.3c2.2-1.7 5-2.1 7.5-1.2-2.7-1.7-6.3-1.6-9 .5-3.4 2.7-4 7.7-1.4 11.1 1 1.2 2.2 2.1 3.6 2.6-.7-.5-1.4-1.1-2-1.9z"/><path class="st2" d="M39.7 25.2c-13.4 9.6-15.9 28.4-5.9 41.2 6.8 8.7 16.3 11.8 26.5 10 0 0 4.8 1.4 6 4l33.5 42.8 10.6 1.4h.1c.4 0 .7 0 1-.2.1 0 .2-.1.3-.2.3-.2.5-.4.7-.7.1-.1.1-.3.2-.4l1.4-10.2-6.3-8-1.5.3-4.2-5.4.7-1.4-3.3-4.3-1.5.4-4.2-5.4.7-1.4-2.5-3.1-1-7.9-2.5-3.2.4-2.9s-3.8-4.8-4.6-5.9c-.6-.8-.7-4-.6-5.3 0-.4.1-.7.2-1.1 3.3-9.3 1.7-20-5.1-28.2-9.7-11.5-26.9-13.7-39.1-4.9zm16.8 23.1c-4.6 3.6-11.4 2.8-15-1.8-3.6-4.6-2.8-11.4 1.8-15s11.4-2.8 15 1.8c3.7 4.6 2.9 11.4-1.8 15z"/><path d="M40.6 27.9c-11 8.6-13 24.5-4.4 35.5s24.5 13 35.5 4.4 13-24.5 4.4-35.5-24.5-13-35.5-4.4zm15.9 20.4c-4.6 3.6-11.4 2.8-15-1.8-3.6-4.6-2.8-11.4 1.8-15s11.4-2.8 15 1.8c3.7 4.6 2.9 11.4-1.8 15z" fill="#a6a8ab"/><path class="st4" d="M37 26.5c-11.4 9.7-13.5 26.7-4.8 38.9 6.7 9.4 17.9 13.5 28.5 11.6.3-.1.7-.1 1 0 2.5.8 4.4 3.2 4.4 3.2l33.8 43.2 9.4 1.2c.3 0 .6 0 .9-.2.3-.1.6-.3.9-.5.1-.1.2-.1.3-.2.3-.3.5-.6.6-.9v-.1l1.4-9.9-6.1-7.8-2 .7-4.7-6.4 1-1.6-2.9-3.7-1.8.6-4.5-5.7 1-1.6-2.4-3.1-1-7.7-2.4-3.1.3-2.8s-3.7-4.7-4.5-5.7c-.6-.7-.8-3.4-.9-5 0-.4 0-.9.2-1.3 3.4-9.1 2.1-19.6-4.3-27.8C68.3 17.9 49.6 15.9 37 26.5zm19.5 21.8c-4.6 3.6-11.4 2.8-15-1.8-3.6-4.6-2.8-11.4 1.8-15s11.4-2.8 15 1.8c3.7 4.6 2.9 11.4-1.8 15z"/><path d="M40 28c-11.1 8.7-13 24.7-4.4 35.8s24.7 13 35.8 4.4 13-24.7 4.4-35.8S51.1 19.3 40 28zm16.5 20.3c-4.6 3.6-11.4 2.8-15-1.8-3.6-4.6-2.8-11.4 1.8-15s11.4-2.8 15 1.8c3.7 4.6 2.9 11.4-1.8 15z" fill="#efce43"/><path class="st2" d="M71.4 72.5l40 51.2c-.1.1-.2.2-.3.2-.3.2-.6.4-.9.5l-33.6-43c-.4-.5-4.2-6.1-5.1-8.2-.1-.2-.1-.3-.2-.5 0-.1 0-.2.1-.2z"/><path d="M78.4 79.9l33.6 42.9c-.1.3-.3.6-.6.9-.1.1-.2.2-.3.2l-40-51.2h.2c.1 0 .3.1.4.3.7.5 1.9 1.7 3.1 2.9 1.7 1.8 3.4 3.7 3.6 4z" fill="#ffdb45"/><path class="st2" d="M36.6 63.9c-8.7-11.1-6.7-27.1 4.4-35.8 5.4-4.2 12-5.9 18.3-5.3-6.6-.9-13.6.8-19.3 5.2-11.1 8.7-13 24.7-4.4 35.8 4.4 5.7 10.8 9 17.5 9.6-6.3-.9-12.3-4.1-16.5-9.5z"/><path class="st2" d="M54.8 30c1.2.7 2.2 1.6 3.1 2.7 3.6 4.6 2.8 11.4-1.8 15-3.1 2.4-7.1 2.9-10.5 1.5 3.7 2.1 8.4 1.9 11.9-.9 4.6-3.6 5.5-10.4 1.8-15-1.2-1.5-2.8-2.6-4.5-3.3z"/><path class="st4" d="M56.5 48.3c-4.6 3.6-11.4 2.8-15-1.8-3.6-4.6-2.8-11.4 1.8-15s11.4-2.8 15 1.8c3.7 4.6 2.9 11.4-1.8 15zM45.4 34.1c-3.2 2.5-3.7 7.1-1.3 10.3 2.5 3.2 7.1 3.7 10.3 1.3 3.2-2.5 3.7-7.1 1.3-10.3s-7.1-3.8-10.3-1.3z"/></svg>