<svg xmlns="http://www.w3.org/2000/svg" viewBox="0 0 272.5 272.5"><defs><filter id="a" width="1.07" height="1.07" x="-.04" y="-.03" color-interpolation-filters="sRGB"><feGaussianBlur stdDeviation="3.84"/></filter></defs><rect width="263" height="267" x="10.7" y="6.12" fill="#0d0000" opacity=".34" rx="71.6" ry="56.5" filter="url(#a)"/><rect width="263" height="267" x="1.15" fill="red" rx="71.6" ry="56.5"/><path fill="#fff" d="M27.56 45.67l7.03-.95 6.5 48.23q1.2 9.38-1.8 14.12-3 4.72-10.9 5.8l-2.7.35-.8-5.9 2.1-.3q4.7-.64 6.2-3.5t.6-9.6L27.5 45.7zm28.74 2.1l2.65 19.57c4.97-1 10.58-.44 14.9-3.57 5.16-4.48 3.57-14.22-2.82-16.74-4.9-1.4-9.84.44-14.72.8zm-7.8-4.83c7.64-.78 15.23-2.7 23.05-2.35 5.36.5 10.5 4.2 11.8 9.6 1.85 5.4 1.54 12.2-2.7 16.5-4.14 4-10.12 4.9-15.62 5.5-1.47.8-5.06-.7-4.9 1.8.83 6.5 1.67 13.1 2.5 19.8l-7.02.9-7-52zm42.96-5.92l32.75-4.44.8 5.9L99.2 42l2.08 15.37L126.02 54l.8 5.9-24.74 3.36 2.56 18.86 26.34-3.56.8 5.9L98.32 89l-7.04-51.98zM177.4 70.7l-1.88-13.94-11.48 1.55-.78-5.7 18.5-2.5 3.02 22.3c-9.17 8.3-23.28 11.5-34.85 6.4-7.7-3.6-12.04-11.9-13.27-19.9-.83-6.2-.8-12.9 2.03-18.52 3.7-7.53 11.7-12.33 19.9-13.04 5.9-.75 12-.34 17.6 2l1.8 7.48c-6.4-3.5-14.1-5.2-21.3-3.2-6 1.5-11.8 6.08-12.7 12.48-1.6 8.25-.2 17.44 5 24.3 4.7 5.44 12.8 6.24 19.5 4.55 3.1-.8 6.1-1.95 8.8-3.85zm26.5-5.04l7.06-.96 1.2 8.83-7.05.95zm6.17-6.04l-6.64.9c-.85-4.87-1.77-10.42 1.1-14.83 2.67-3.9 6.8-7.1 7.34-12.1.26-3.6-2.85-6.7-6.3-6.9-4.12-.5-8.2 1.3-11.38 3.7l-3.5 2.2c-.5-2.2-.2-1.6-.8-6.3 5.7-3.8 15.3-7.2 21.8-4.5 4.7 1.8 7.5 7 6.9 11.9-.4 4.7-4 8.1-6.7 11.52-2.1 2.44-3.6 5.63-2.9 8.87.2 1.8.6 3.5.7 5.25zm-98.12 50.48v6.88c-6.73-3.35-14.9-5.34-22.2-2.34-5.14 1.9-6.13 10.36-1.18 13.07 6.7 3.3 14.98 2.3 21.12 7 7.5 5.6 7.1 18.5-.7 23.6-7.4 4.3-16.5 3.9-24.5 1.9-2-1-6.4-.4-6.1-3.5v-5.6c7.2 4.3 16.4 6.6 24.5 3.4 5.5-2.3 6.4-11.3 1.2-14.5-6.5-3.9-15-2.4-21.2-7.1-4.7-3.3-6-9.9-4.1-15.1 1.3-4.3 4.9-7.82 9.3-9 7.7-2.4 16-.9 23.42 1.5zm27.55 50.48l-19.85-52.28h7.37l16.52 44.05 16.6-44.02h7.34l-19.9 52.26-8-.1zm71.4-7.48l.02-14-11.54-.02v-5.8l18.62.02-.02 22.37c-10.55 7.3-25.78 8.24-36.5.77-8.76-6.97-10.58-19.34-8.4-29.72 1.5-7.87 7-15 14.7-17.57 8.57-3.1 18.27-1.92 26.33 1.85 2.7.46 2.6 3.1 2.5 5.2-.2.94.5 3.82-.4 3.4-8-6.98-20.9-8.83-29.9-2.57-6.4 5.54-7 14.9-6.1 22.73.7 6.43 4.6 12.9 11.1 14.83 6.4 1.9 13.9 1.5 19.9-1.5zm26.86-1.4h7.1v8.87h-7.1v-8.88zm6.9-5.14h-6.68c.12-4.52-.7-9.66 2.35-13.45 2.9-4.1 8.1-6.5 9.52-11.6 1.13-3.7-2-7.3-5.48-8.1-5.42-1.1-10.76 1.6-15.1 4.6v-6.5c6.4-3.9 14.84-5.5 21.84-2 6.1 3 8.1 11.6 4.1 16.9-2.7 4.2-7.6 6.7-9.8 11.4-.8 2.97-.3 6.07-.5 9.06zM35.28 163.52l-6.1 18.7c5.13 1.3 10.26 4.62 15.73 2.96 6.2-2.3 8.4-11.4 3.7-16.1-3.7-3.2-8.8-3.73-13.3-5.48zm-4.9-7.7c7.95 3.05 16.83 4.25 23.8 9.5 4.47 3.98 5.52 10.82 3.3 16.24-1.78 5.52-6.87 10.4-12.9 10.3-5.55.14-11.57-2.02-16.66-3.9l-7.08 19.7-6.7-2.18zm41.08 13.32l9.02 2.95 8.37 48.6 13.56-41.5 6.6 2.1L92.7 231l-9.04-2.94-8.36-48.65-13.57 41.5-6.5-2.1 16.23-49.6zm70.6 70.13l4.34-13.3-10.96-3.6 1.8-5.5 17.68 5.78-6.95 21.25c-11.84 3.52-25.8.08-34-9.36-5.2-6.68-5.7-15.96-3.1-23.8 2.25-8 7.36-15.98 15.5-19 8.8-3.27 18.8-.74 26.44 4.26 2.3 1.94 5.6 3.22 6.9 6.02.4 2.22-1 4.2-1.5 6.32-.4 2.62-1.8-2-2.9-2.5-5.9-7.05-15.8-11.33-25-8.72-6.3 2.27-10 8.64-11.9 14.74-2.1 6.23-2.9 13.86 1.3 19.43 4.5 5.7 12.1 8 19.1 8.3 1.2 0 2.3-.1 3.4-.4zm25.94 6.98l6.72 2.2-2.75 8.44-6.74-2.3 2.76-8.5zm8.13-2.74l-6.34-2c1.4-4.3 2.4-9.5 6.6-12.2 4.1-2.8 9.6-3.8 12.6-8.1 2.2-4.1-1-9.5-5.4-10.2-4.4-1.4-9-.5-13.3.7l2-6.2c7.6-1.9 16.6-.4 22 5.6 4.4 5.3 2.6 14.3-3.4 17.4-4 2.8-9.5 3.6-12.3 7.9-1.2 2.4-1.7 4.9-2.6 7.4z"/></svg>