<svg height="460.8" viewBox="0 0 460.8 345.6" width="614.4" xmlns="http://www.w3.org/2000/svg" xmlns:xlink="http://www.w3.org/1999/xlink"><defs><style>*{stroke-linecap:butt;stroke-linejoin:round}</style></defs><g id="figure_1"><path d="M0 345.6h460.8V0H0z" fill="none" id="patch_1"/><g id="axes_1"><path d="M57.6 307.584h357.12V41.472H57.6z" fill="none" id="patch_2"/><g id="matplotlib.axis_1"><g id="xtick_1"><path clip-path="url(#p7a79c394c5)" d="M95.476 307.584V41.472" fill="none" stroke="#b0b0b0" stroke-linecap="square" stroke-width=".8" id="line2d_1"/><g id="line2d_2"><defs><path d="M0 0v3.5" id="md93a3e8ac4" stroke="#000" stroke-width=".8"/></defs><use x="95.476" xlink:href="#md93a3e8ac4" y="307.584" stroke="#000" stroke-width=".8"/></g><g id="text_1"><defs><path d="M37.797 64.313L12.89 25.39h24.906zm-2.594 8.593H47.61V25.391h10.407v-8.203H47.609V0h-9.812v17.188H4.89v9.515z" id="DejaVuSans-52"/></defs><use xlink:href="#DejaVuSans-52" transform="matrix(.1 0 0 -.1 92.295 322.182)"/></g></g><g id="xtick_2"><path clip-path="url(#p7a79c394c5)" d="M138.764 307.584V41.472" fill="none" stroke="#b0b0b0" stroke-linecap="square" stroke-width=".8" id="line2d_3"/><use x="138.764" xlink:href="#md93a3e8ac4" y="307.584" stroke="#000" stroke-width=".8" id="line2d_4"/><g id="text_2"><defs><path d="M33.016 40.375q-6.641 0-10.532-4.547-3.875-4.531-3.875-12.437 0-7.86 3.875-12.438 3.891-4.562 10.532-4.562 6.64 0 10.515 4.562 3.875 4.578 3.875 12.438 0 7.906-3.875 12.437-3.875 4.547-10.515 4.547zm19.578 30.922v-8.984q-3.719 1.75-7.5 2.671-3.782.938-7.5.938-9.766 0-14.922-6.594-5.14-6.594-5.875-19.922 2.875 4.25 7.219 6.516 4.359 2.266 9.578 2.266 10.984 0 17.36-6.672 6.374-6.657 6.374-18.125 0-11.235-6.64-18.032-6.641-6.78-17.672-6.78-12.657 0-19.344 9.687-6.688 9.703-6.688 28.109 0 17.281 8.204 27.563 8.203 10.28 22.015 10.28 3.719 0 7.5-.734t7.89-2.187z" id="DejaVuSans-54"/></defs><use xlink:href="#DejaVuSans-54" transform="matrix(.1 0 0 -.1 135.582 322.182)"/></g></g><g id="xtick_3"><path clip-path="url(#p7a79c394c5)" d="M182.05 307.584V41.472" fill="none" stroke="#b0b0b0" stroke-linecap="square" stroke-width=".8" id="line2d_5"/><use x="182.051" xlink:href="#md93a3e8ac4" y="307.584" stroke="#000" stroke-width=".8" id="line2d_6"/><g id="text_3"><defs><path d="M31.781 34.625q-7.031 0-11.062-3.766-4.016-3.765-4.016-10.343 0-6.594 4.016-10.36Q24.75 6.391 31.78 6.391q7.032 0 11.078 3.78 4.063 3.798 4.063 10.345 0 6.578-4.031 10.343-4.016 3.766-11.11 3.766zm-9.86 4.188q-6.343 1.562-9.89 5.906Q8.5 49.079 8.5 55.329q0 8.733 6.219 13.812 6.234 5.078 17.062 5.078 10.89 0 17.094-5.078 6.203-5.079 6.203-13.813 0-6.25-3.547-10.61-3.531-4.343-9.828-5.906 7.125-1.656 11.094-6.5 3.984-4.828 3.984-11.796 0-10.61-6.468-16.282-6.47-5.656-18.532-5.656-12.047 0-18.531 5.656-6.469 5.672-6.469 16.282 0 6.968 4 11.797 4.016 4.843 11.14 6.5zM18.314 54.39q0-5.657 3.53-8.828 3.548-3.172 9.938-3.172 6.36 0 9.938 3.172 3.593 3.171 3.593 8.828 0 5.672-3.593 8.843-3.578 3.172-9.938 3.172-6.39 0-9.937-3.172-3.532-3.172-3.532-8.843z" id="DejaVuSans-56"/></defs><use xlink:href="#DejaVuSans-56" transform="matrix(.1 0 0 -.1 178.87 322.182)"/></g></g><g id="xtick_4"><path clip-path="url(#p7a79c394c5)" d="M225.338 307.584V41.472" fill="none" stroke="#b0b0b0" stroke-linecap="square" stroke-width=".8" id="line2d_7"/><use x="225.338" xlink:href="#md93a3e8ac4" y="307.584" stroke="#000" stroke-width=".8" id="line2d_8"/><g id="text_4"><defs><path d="M12.406 8.297h16.11v55.625l-17.532-3.516v8.985l17.438 3.515h9.86V8.296H54.39V0H12.406z" id="DejaVuSans-49"/><path d="M31.781 66.406q-7.61 0-11.453-7.5Q16.5 51.422 16.5 36.375q0-14.984 3.828-22.484 3.844-7.5 11.453-7.5 7.672 0 11.5 7.5 3.844 7.5 3.844 22.484 0 15.047-3.844 22.531-3.828 7.5-11.5 7.5zm0 7.813q12.266 0 18.735-9.703 6.468-9.688 6.468-28.141 0-18.406-6.468-28.11-6.47-9.687-18.735-9.687-12.25 0-18.718 9.688-6.47 9.703-6.47 28.109 0 18.453 6.47 28.14Q19.53 74.22 31.78 74.22z" id="DejaVuSans-48"/></defs><g transform="matrix(.1 0 0 -.1 218.976 322.182)"><use xlink:href="#DejaVuSans-49"/><use x="63.623" xlink:href="#DejaVuSans-48"/></g></g></g><g id="xtick_5"><path clip-path="url(#p7a79c394c5)" d="M268.625 307.584V41.472" fill="none" stroke="#b0b0b0" stroke-linecap="square" stroke-width=".8" id="line2d_9"/><use x="268.625" xlink:href="#md93a3e8ac4" y="307.584" stroke="#000" stroke-width=".8" id="line2d_10"/><g id="text_5"><defs><path d="M19.188 8.297h34.421V0H7.33v8.297q5.609 5.812 15.296 15.594 9.703 9.797 12.188 12.64 4.734 5.313 6.609 9 1.89 3.688 1.89 7.25 0 5.813-4.078 9.469-4.078 3.672-10.625 3.672-4.64 0-9.797-1.61-5.14-1.609-11-4.89v9.969Q13.767 71.78 18.938 73q5.188 1.219 9.485 1.219 11.328 0 18.062-5.672 6.735-5.656 6.735-15.125 0-4.5-1.688-8.531-1.672-4.016-6.125-9.485-1.218-1.422-7.765-8.187-6.532-6.766-18.453-18.922z" id="DejaVuSans-50"/></defs><g transform="matrix(.1 0 0 -.1 262.263 322.182)"><use xlink:href="#DejaVuSans-49"/><use x="63.623" xlink:href="#DejaVuSans-50"/></g></g></g><g id="xtick_6"><path clip-path="url(#p7a79c394c5)" d="M311.913 307.584V41.472" fill="none" stroke="#b0b0b0" stroke-linecap="square" stroke-width=".8" id="line2d_11"/><use x="311.913" xlink:href="#md93a3e8ac4" y="307.584" stroke="#000" stroke-width=".8" id="line2d_12"/><g transform="matrix(.1 0 0 -.1 305.55 322.182)" id="text_6"><use xlink:href="#DejaVuSans-49"/><use x="63.623" xlink:href="#DejaVuSans-52"/></g></g><g id="xtick_7"><path clip-path="url(#p7a79c394c5)" d="M355.2 307.584V41.472" fill="none" stroke="#b0b0b0" stroke-linecap="square" stroke-width=".8" id="line2d_13"/><use x="355.2" xlink:href="#md93a3e8ac4" y="307.584" stroke="#000" stroke-width=".8" id="line2d_14"/><g transform="matrix(.1 0 0 -.1 348.837 322.182)" id="text_7"><use xlink:href="#DejaVuSans-49"/><use x="63.623" xlink:href="#DejaVuSans-54"/></g></g><g id="xtick_8"><path clip-path="url(#p7a79c394c5)" d="M398.487 307.584V41.472" fill="none" stroke="#b0b0b0" stroke-linecap="square" stroke-width=".8" id="line2d_15"/><use x="398.487" xlink:href="#md93a3e8ac4" y="307.584" stroke="#000" stroke-width=".8" id="line2d_16"/><g transform="matrix(.1 0 0 -.1 392.125 322.182)" id="text_8"><use xlink:href="#DejaVuSans-49"/><use x="63.623" xlink:href="#DejaVuSans-56"/></g></g><g id="text_9"><defs><path d="M9.813 72.906h13.28l32.329-60.984v60.984h9.562V0h-13.28L19.39 60.984V0H9.813z" id="DejaVuSans-78"/><path d="M8.5 21.578v33.11h8.984V21.922q0-7.766 3.016-11.656 3.031-3.875 9.094-3.875 7.265 0 11.484 4.64 4.234 4.64 4.234 12.656v31h8.985V0h-8.984v8.406Q42.047 3.422 37.718 1q-4.313-2.422-10.032-2.422-9.421 0-14.312 5.86Q8.5 10.296 8.5 21.578zM31.11 56z" id="DejaVuSans-117"/><path d="M52 44.188q3.375 6.062 8.063 8.937Q64.75 56 71.093 56q8.548 0 13.188-5.984 4.64-5.97 4.64-17V0h-9.03v32.719q0 7.86-2.797 11.656-2.781 3.813-8.485 3.813-6.984 0-11.046-4.641-4.047-4.625-4.047-12.64V0h-9.032v32.719q0 7.906-2.78 11.687-2.782 3.782-8.595 3.782-6.89 0-10.953-4.657-4.047-4.656-4.047-12.625V0H9.08v54.688h9.03v-8.5q3.078 5.03 7.375 7.421Q29.781 56 35.687 56q5.97 0 10.141-3.031Q50 49.953 52 44.187z" id="DejaVuSans-109"/><path d="M48.688 27.297q0 9.906-4.079 15.547-4.078 5.64-11.203 5.64-7.14 0-11.218-5.64-4.079-5.64-4.079-15.547 0-9.906 4.078-15.547 4.079-5.64 11.22-5.64 7.124 0 11.202 5.64t4.078 15.547zM18.108 46.39q2.844 4.875 7.157 7.234Q29.594 56 35.594 56q9.968 0 16.187-7.906 6.235-7.907 6.235-20.797T51.78 6.484q-6.218-7.906-16.187-7.906-6 0-10.328 2.375-4.313 2.375-7.157 7.25V0H9.08v75.984h9.03z" id="DejaVuSans-98"/><path d="M56.203 29.594v-4.39H14.891q.593-9.282 5.593-14.142 5-4.859 13.938-4.859 5.172 0 10.031 1.266 4.86 1.265 9.656 3.812v-8.5Q49.266.734 44.187-.344 39.11-1.422 33.892-1.422q-13.094 0-20.735 7.61-7.64 7.625-7.64 20.625 0 13.421 7.25 21.296Q20.016 56 32.328 56q11.031 0 17.453-7.11 6.422-7.093 6.422-19.296zm-8.984 2.64q-.094 7.36-4.125 11.75-4.032 4.407-10.672 4.407-7.516 0-12.031-4.25-4.516-4.25-5.203-11.97z" id="DejaVuSans-101"/><path d="M41.11 46.297q-1.516.875-3.297 1.281Q36.03 48 33.89 48q-7.625 0-11.703-4.953-4.079-4.953-4.079-14.234V0H9.08v54.688h9.03v-8.5q2.844 4.984 7.375 7.39Q30.031 56 36.531 56q.922 0 2.047-.125 1.125-.11 2.484-.36z" id="DejaVuSans-114"/><path d="M30.61 48.39q-7.22 0-11.422-5.64-4.204-5.64-4.204-15.453 0-9.813 4.172-15.453 4.188-5.64 11.453-5.64 7.188 0 11.375 5.655 4.203 5.672 4.203 15.438 0 9.719-4.203 15.406-4.187 5.688-11.375 5.688zm0 7.61q11.718 0 18.406-7.625 6.703-7.61 6.703-21.078 0-13.422-6.703-21.078-6.688-7.64-18.407-7.64-11.765 0-18.437 7.64-6.656 7.656-6.656 21.078 0 13.469 6.656 21.078Q18.844 56 30.609 56z" id="DejaVuSans-111"/><path d="M37.11 75.984V68.5h-8.594q-4.828 0-6.72-1.953-1.874-1.953-1.874-7.031v-4.828h14.797v-6.985H19.922V0H10.89v47.703H2.297v6.984h8.594V58.5q0 9.125 4.25 13.297 4.25 4.187 13.468 4.187z" id="DejaVuSans-102"/><path d="M48.781 52.594v-8.407q-3.812 2.11-7.64 3.157-3.828 1.047-7.735 1.047-8.75 0-13.593-5.547-4.829-5.532-4.829-15.547 0-10.016 4.829-15.563 4.843-5.53 13.593-5.53 3.907 0 7.735 1.046 3.828 1.047 7.64 3.156V2.094Q45.016.344 40.984-.531q-4.015-.89-8.562-.89-12.36 0-19.64 7.765-7.266 7.765-7.266 20.953 0 13.375 7.343 21.031Q20.22 56 33.016 56q4.14 0 8.093-.86 3.953-.843 7.672-2.546z" id="DejaVuSans-99"/><path d="M34.281 27.484q-10.89 0-15.093-2.484-4.204-2.484-4.204-8.5 0-4.781 3.157-7.594 3.156-2.797 8.562-2.797 7.485 0 12 5.297 4.516 5.297 4.516 14.078v2zm17.922 3.72V0H43.22v8.297Q40.14 3.328 35.547.953q-4.594-2.375-11.234-2.375-8.391 0-13.36 4.719Q6 8.016 6 15.922q0 9.219 6.172 13.906 6.187 4.688 18.437 4.688h12.61v.89q0 6.203-4.078 9.594-4.078 3.39-11.453 3.39-4.688 0-9.141-1.124-4.438-1.125-8.531-3.375v8.312q4.921 1.906 9.562 2.844 4.64.953 9.031.953 11.875 0 17.735-6.156 5.86-6.14 5.86-18.64z" id="DejaVuSans-97"/><path d="M45.406 46.39v29.594h8.985V0h-8.985v8.203Q42.578 3.328 38.25.953q-4.313-2.375-10.375-2.375-9.906 0-16.14 7.906-6.22 7.922-6.22 20.813 0 12.89 6.22 20.797Q17.968 56 27.874 56q6.063 0 10.375-2.375 4.328-2.36 7.156-7.234zm-30.61-19.093q0-9.906 4.079-15.547 4.078-5.64 11.203-5.64 7.125 0 11.219 5.64 4.11 5.64 4.11 15.547 0 9.906-4.11 15.547-4.094 5.64-11.219 5.64-7.125 0-11.203-5.64-4.078-5.64-4.078-15.547z" id="DejaVuSans-100"/><path d="M44.281 53.078v-8.5q-3.797 1.953-7.906 2.922-4.094.984-8.5.984-6.688 0-10.031-2.047-3.344-2.046-3.344-6.156 0-3.125 2.39-4.906 2.391-1.781 9.626-3.39l3.078-.688q9.562-2.047 13.593-5.781 4.032-3.735 4.032-10.422 0-7.625-6.032-12.078-6.03-4.438-16.578-4.438-4.39 0-9.156.86Q10.688.296 5.422 2v9.281q4.984-2.594 9.812-3.89 4.829-1.282 9.579-1.282 6.343 0 9.75 2.172 3.421 2.172 3.421 6.125 0 3.656-2.468 5.61-2.453 1.953-10.813 3.765l-3.125.735q-8.344 1.75-12.062 5.39-3.704 3.64-3.704 9.985 0 7.718 5.47 11.906Q16.75 56 26.811 56q4.97 0 9.36-.734 4.406-.72 8.11-2.188z" id="DejaVuSans-115"/></defs><g transform="matrix(.1 0 0 -.1 194.43 335.86)"><use xlink:href="#DejaVuSans-78"/><use x="74.805" xlink:href="#DejaVuSans-117"/><use x="138.184" xlink:href="#DejaVuSans-109"/><use x="235.596" xlink:href="#DejaVuSans-98"/><use x="299.072" xlink:href="#DejaVuSans-101"/><use x="360.596" xlink:href="#DejaVuSans-114"/><use x="401.709" xlink:href="#DejaVuSans-32"/><use x="433.496" xlink:href="#DejaVuSans-111"/><use x="494.678" xlink:href="#DejaVuSans-102"/><use x="529.883" xlink:href="#DejaVuSans-32"/><use x="561.67" xlink:href="#DejaVuSans-99"/><use x="616.65" xlink:href="#DejaVuSans-97"/><use x="677.93" xlink:href="#DejaVuSans-114"/><use x="719.027" xlink:href="#DejaVuSans-100"/><use x="782.504" xlink:href="#DejaVuSans-115"/></g></g></g><g id="matplotlib.axis_2"><g id="ytick_1"><path clip-path="url(#p7a79c394c5)" d="M57.6 252.686h357.12" fill="none" stroke="#b0b0b0" stroke-linecap="square" stroke-width=".8" id="line2d_17"/><g id="line2d_18"><defs><path d="M0 0h-3.5" id="mf2cbee7dac" stroke="#000" stroke-width=".8"/></defs><use x="57.6" xlink:href="#mf2cbee7dac" y="252.686" stroke="#000" stroke-width=".8"/></g><g id="text_10"><defs><path d="M10.688 12.406H21V0H10.687z" id="DejaVuSans-46"/><path d="M10.797 72.906h38.719v-8.312H19.828v-17.86q2.14.735 4.281 1.094 2.157.36 4.313.36 12.203 0 19.328-6.688 7.14-6.688 7.14-18.11 0-11.765-7.328-18.296-7.328-6.516-20.656-6.516-4.593 0-9.36.781-4.75.782-9.827 2.344v9.922q4.39-2.39 9.078-3.563 4.687-1.171 9.906-1.171 8.453 0 13.375 4.437 4.938 4.438 4.938 12.063 0 7.609-4.938 12.047-4.922 4.453-13.375 4.453-3.953 0-7.89-.875-3.922-.875-8.016-2.735z" id="DejaVuSans-53"/></defs><g transform="matrix(.1 0 0 -.1 28.334 256.486)"><use xlink:href="#DejaVuSans-48"/><use x="63.623" xlink:href="#DejaVuSans-46"/><use x="95.41" xlink:href="#DejaVuSans-48"/><use x="159.033" xlink:href="#DejaVuSans-53"/></g></g></g><g id="ytick_2"><path clip-path="url(#p7a79c394c5)" d="M57.6 195h357.12" fill="none" stroke="#b0b0b0" stroke-linecap="square" stroke-width=".8" id="line2d_19"/><use x="57.6" xlink:href="#mf2cbee7dac" y="195" stroke="#000" stroke-width=".8" id="line2d_20"/><g transform="matrix(.1 0 0 -.1 28.334 198.799)" id="text_11"><use xlink:href="#DejaVuSans-48"/><use x="63.623" xlink:href="#DejaVuSans-46"/><use x="95.41" xlink:href="#DejaVuSans-49"/><use x="159.033" xlink:href="#DejaVuSans-48"/></g></g><g id="ytick_3"><path clip-path="url(#p7a79c394c5)" d="M57.6 137.313h357.12" fill="none" stroke="#b0b0b0" stroke-linecap="square" stroke-width=".8" id="line2d_21"/><use x="57.6" xlink:href="#mf2cbee7dac" y="137.313" stroke="#000" stroke-width=".8" id="line2d_22"/><g transform="matrix(.1 0 0 -.1 28.334 141.112)" id="text_12"><use xlink:href="#DejaVuSans-48"/><use x="63.623" xlink:href="#DejaVuSans-46"/><use x="95.41" xlink:href="#DejaVuSans-49"/><use x="159.033" xlink:href="#DejaVuSans-53"/></g></g><g id="ytick_4"><path clip-path="url(#p7a79c394c5)" d="M57.6 79.626h357.12" fill="none" stroke="#b0b0b0" stroke-linecap="square" stroke-width=".8" id="line2d_23"/><use x="57.6" xlink:href="#mf2cbee7dac" y="79.626" stroke="#000" stroke-width=".8" id="line2d_24"/><g transform="matrix(.1 0 0 -.1 28.334 83.426)" id="text_13"><use xlink:href="#DejaVuSans-48"/><use x="63.623" xlink:href="#DejaVuSans-46"/><use x="95.41" xlink:href="#DejaVuSans-50"/><use x="159.033" xlink:href="#DejaVuSans-48"/></g></g><g id="text_14"><defs><path d="M34.188 63.188L20.797 26.906h26.812zm-5.579 9.718h11.188L67.578 0h-10.25l-6.64 18.703h-32.86L11.188 0H.78z" id="DejaVuSans-65"/><path d="M2.984 54.688H12.5L29.594 8.797l17.093 45.89h9.516L35.687 0H23.485z" id="DejaVuSans-118"/><path d="M45.406 27.984q0 9.766-4.031 15.125-4.016 5.375-11.297 5.375-7.219 0-11.25-5.375-4.031-5.359-4.031-15.125 0-9.718 4.031-15.093t11.25-5.375q7.281 0 11.297 5.375 4.031 5.375 4.031 15.093zm8.985-21.203q0-13.953-6.203-20.765Q42-20.797 29.203-20.797q-4.734 0-8.937.703-4.203.703-8.157 2.172v8.735q3.954-2.141 7.813-3.157 3.86-1.031 7.86-1.031 8.843 0 13.234 4.61 4.39 4.609 4.39 13.937v4.453q-2.781-4.844-7.125-7.234Q33.938 0 27.875 0 17.828 0 11.672 7.656q-6.156 7.672-6.156 20.328 0 12.688 6.156 20.344Q17.828 56 27.875 56q6.063 0 10.406-2.39 4.344-2.391 7.125-7.22v8.297h8.985z" id="DejaVuSans-103"/><path d="M18.313 70.219V54.688h18.5v-6.985h-18.5V18.016q0-6.688 1.828-8.594 1.828-1.906 7.453-1.906h9.218V0h-9.218q-10.407 0-14.36 3.875-3.953 3.89-3.953 14.14v29.688H2.687v6.984h6.594V70.22z" id="DejaVuSans-116"/><path d="M9.422 54.688h8.984V0H9.422zm0 21.296h8.984v-11.39H9.422z" id="DejaVuSans-105"/><path d="M31 75.875q-6.531-11.219-9.719-22.219-3.172-10.984-3.172-22.265 0-11.266 3.203-22.328Q24.517-2 31-13.188h-7.813Q15.875-1.704 12.235 9.375q-3.64 11.078-3.64 22.016 0 10.89 3.61 21.922 3.624 11.046 10.983 22.562z" id="DejaVuSans-40"/><path d="M8.016 75.875h7.812q7.313-11.516 10.953-22.563 3.64-11.03 3.64-21.921 0-10.938-3.64-22.016-3.64-11.078-10.953-22.563H8.016Q14.5-2 17.703 9.063q3.203 11.063 3.203 22.329 0 11.28-3.203 22.265-3.203 11-9.687 22.219z" id="DejaVuSans-41"/></defs><g transform="matrix(0 -.1 -.1 0 22.255 221.201)"><use xlink:href="#DejaVuSans-65"/><use x="68.33" xlink:href="#DejaVuSans-118"/><use x="127.51" xlink:href="#DejaVuSans-101"/><use x="189.033" xlink:href="#DejaVuSans-114"/><use x="230.146" xlink:href="#DejaVuSans-97"/><use x="291.426" xlink:href="#DejaVuSans-103"/><use x="354.902" xlink:href="#DejaVuSans-101"/><use x="416.426" xlink:href="#DejaVuSans-32"/><use x="448.213" xlink:href="#DejaVuSans-116"/><use x="487.422" xlink:href="#DejaVuSans-105"/><use x="515.205" xlink:href="#DejaVuSans-109"/><use x="612.617" xlink:href="#DejaVuSans-101"/><use x="674.141" xlink:href="#DejaVuSans-32"/><use x="705.928" xlink:href="#DejaVuSans-40"/><use x="744.941" xlink:href="#DejaVuSans-109"/><use x="842.354" xlink:href="#DejaVuSans-115"/><use x="894.453" xlink:href="#DejaVuSans-41"/></g></g></g><path clip-path="url(#p7a79c394c5)" d="M73.833 295.488l21.643-.863 21.644-11.978 21.644-20.614 21.643-9.417 21.644-46.013 21.644-35.744 21.643-34.325 21.644-21.968 21.643-22.715 21.644-24.993 21.644 16.748 21.643-30.038 21.644 34.69 21.644-24.026 21.643 44.523" fill="none" stroke="#1f77b4" stroke-linecap="square" stroke-width="1.5" id="line2d_25"/><path clip-path="url(#p7a79c394c5)" d="M73.833 291.518l21.643-14.908 21.644-17.486 21.644-26.928 21.643-8.79 21.644-16.544 21.644-24.012 21.643-57.817 21.644 4.933 21.643-20.352 21.644 29.375 21.644 23.74 21.643 14.712 21.644-7.203 21.644 22.193 21.643 17.948" fill="none" stroke="#ff7f0e" stroke-linecap="square" stroke-width="1.5" id="line2d_26"/><path d="M57.6 307.584V41.472" fill="none" stroke="#000" stroke-linecap="square" stroke-width=".8" id="patch_3"/><path d="M414.72 307.584V41.472" fill="none" stroke="#000" stroke-linecap="square" stroke-width=".8" id="patch_4"/><path d="M57.6 307.584h357.12" fill="none" stroke="#000" stroke-linecap="square" stroke-width=".8" id="patch_5"/><path d="M57.6 41.472h357.12" fill="none" stroke="#000" stroke-linecap="square" stroke-width=".8" id="patch_6"/><g id="text_15"><defs><path d="M9.078 75.984h9.031V31.11l26.813 23.578H56.39l-29-25.578L57.625 0H45.906L18.11 26.703V0H9.08z" id="DejaVuSans-107"/><path d="M54.89 33.016V0h-8.984v32.719q0 7.765-3.031 11.61-3.031 3.858-9.078 3.858-7.281 0-11.484-4.64-4.204-4.625-4.204-12.64V0H9.08v54.688h9.03v-8.5q3.235 4.937 7.594 7.374Q30.078 56 35.797 56q9.422 0 14.25-5.828 4.844-5.828 4.844-17.156z" id="DejaVuSans-110"/></defs><g transform="matrix(.12 0 0 -.12 79.04 35.472)"><use xlink:href="#DejaVuSans-65"/><use x="68.33" xlink:href="#DejaVuSans-118"/><use x="127.51" xlink:href="#DejaVuSans-101"/><use x="189.033" xlink:href="#DejaVuSans-114"/><use x="230.146" xlink:href="#DejaVuSans-97"/><use x="291.426" xlink:href="#DejaVuSans-103"/><use x="354.902" xlink:href="#DejaVuSans-101"/><use x="416.426" xlink:href="#DejaVuSans-32"/><use x="448.213" xlink:href="#DejaVuSans-116"/><use x="487.422" xlink:href="#DejaVuSans-105"/><use x="515.205" xlink:href="#DejaVuSans-109"/><use x="612.617" xlink:href="#DejaVuSans-101"/><use x="674.141" xlink:href="#DejaVuSans-32"/><use x="705.928" xlink:href="#DejaVuSans-116"/><use x="745.137" xlink:href="#DejaVuSans-97"/><use x="806.416" xlink:href="#DejaVuSans-107"/><use x="864.279" xlink:href="#DejaVuSans-101"/><use x="925.803" xlink:href="#DejaVuSans-110"/><use x="989.182" xlink:href="#DejaVuSans-32"/><use x="1020.969" xlink:href="#DejaVuSans-116"/><use x="1060.178" xlink:href="#DejaVuSans-111"/><use x="1121.359" xlink:href="#DejaVuSans-32"/><use x="1153.146" xlink:href="#DejaVuSans-102"/><use x="1188.352" xlink:href="#DejaVuSans-105"/><use x="1216.135" xlink:href="#DejaVuSans-110"/><use x="1279.514" xlink:href="#DejaVuSans-100"/><use x="1342.99" xlink:href="#DejaVuSans-32"/><use x="1374.777" xlink:href="#DejaVuSans-97"/><use x="1436.057" xlink:href="#DejaVuSans-32"/><use x="1467.844" xlink:href="#DejaVuSans-115"/><use x="1519.943" xlink:href="#DejaVuSans-101"/><use x="1581.467" xlink:href="#DejaVuSans-116"/><use x="1620.676" xlink:href="#DejaVuSans-32"/><use x="1652.463" xlink:href="#DejaVuSans-118"/><use x="1711.643" xlink:href="#DejaVuSans-115"/><use x="1763.742" xlink:href="#DejaVuSans-32"/><use x="1795.529" xlink:href="#DejaVuSans-110"/><use x="1858.908" xlink:href="#DejaVuSans-117"/><use x="1922.287" xlink:href="#DejaVuSans-109"/><use x="2019.699" xlink:href="#DejaVuSans-98"/><use x="2083.176" xlink:href="#DejaVuSans-101"/><use x="2144.699" xlink:href="#DejaVuSans-114"/><use x="2185.813" xlink:href="#DejaVuSans-32"/><use x="2217.6" xlink:href="#DejaVuSans-111"/><use x="2278.781" xlink:href="#DejaVuSans-102"/><use x="2313.986" xlink:href="#DejaVuSans-32"/><use x="2345.773" xlink:href="#DejaVuSans-99"/><use x="2400.754" xlink:href="#DejaVuSans-97"/><use x="2462.033" xlink:href="#DejaVuSans-114"/><use x="2503.131" xlink:href="#DejaVuSans-100"/><use x="2566.607" xlink:href="#DejaVuSans-115"/></g></g><g id="legend_1"><path d="M64.6 78.828h129.756q2 0 2-2V48.472q0-2-2-2H64.6q-2 0-2 2v28.356q0 2 2 2z" fill="#fff" opacity=".8" stroke="#ccc" id="patch_7"/><path d="M66.6 54.57h20" fill="none" stroke="#1f77b4" stroke-linecap="square" stroke-width="1.5" id="line2d_27"/><g id="text_16"><defs><path d="M19.672 34.813V8.108H35.5q7.953 0 11.781 3.297 3.844 3.297 3.844 10.078 0 6.844-3.844 10.078-3.828 3.25-11.781 3.25zm0 29.984V42.828h14.61q7.218 0 10.75 2.703 3.546 2.719 3.546 8.282 0 5.515-3.547 8.25-3.531 2.734-10.75 2.734zm-9.86 8.11h25.204q11.28 0 17.375-4.688Q58.5 63.53 58.5 54.89q0-6.703-3.125-10.657-3.125-3.953-9.188-4.922 7.282-1.562 11.313-6.53 4.031-4.954 4.031-12.376 0-9.765-6.64-15.093Q48.25 0 35.984 0H9.812z" id="DejaVuSans-66"/><path d="M54.89 33.016V0h-8.984v32.719q0 7.765-3.031 11.61-3.031 3.858-9.078 3.858-7.281 0-11.484-4.64-4.204-4.625-4.204-12.64V0H9.08v75.984h9.03V46.188q3.235 4.937 7.594 7.374Q30.078 56 35.797 56q9.422 0 14.25-5.828 4.844-5.828 4.844-17.156z" id="DejaVuSans-104"/></defs><g transform="matrix(.1 0 0 -.1 94.6 58.07)"><use xlink:href="#DejaVuSans-66"/><use x="68.604" xlink:href="#DejaVuSans-114"/><use x="109.717" xlink:href="#DejaVuSans-117"/><use x="173.096" xlink:href="#DejaVuSans-116"/><use x="212.305" xlink:href="#DejaVuSans-101"/><use x="273.828" xlink:href="#DejaVuSans-32"/><use x="305.615" xlink:href="#DejaVuSans-102"/><use x="340.82" xlink:href="#DejaVuSans-111"/><use x="402.002" xlink:href="#DejaVuSans-114"/><use x="443.084" xlink:href="#DejaVuSans-99"/><use x="498.064" xlink:href="#DejaVuSans-101"/><use x="559.588" xlink:href="#DejaVuSans-32"/><use x="591.375" xlink:href="#DejaVuSans-109"/><use x="688.787" xlink:href="#DejaVuSans-101"/><use x="750.311" xlink:href="#DejaVuSans-116"/><use x="789.52" xlink:href="#DejaVuSans-104"/><use x="852.898" xlink:href="#DejaVuSans-111"/><use x="914.08" xlink:href="#DejaVuSans-100"/></g></g><path d="M66.6 69.249h20" fill="none" stroke="#ff7f0e" stroke-linecap="square" stroke-width="1.5" id="line2d_29"/><g id="text_17"><defs><path d="M9.813 72.906h14.703l18.593-49.61 18.703 49.61h14.704V0H66.89v64.016l-18.797-50h-9.907l-18.796 50V0H9.813z" id="DejaVuSans-77"/></defs><g transform="matrix(.1 0 0 -.1 94.6 72.749)"><use xlink:href="#DejaVuSans-77"/><use x="86.279" xlink:href="#DejaVuSans-105"/><use x="114.063" xlink:href="#DejaVuSans-115"/><use x="166.162" xlink:href="#DejaVuSans-115"/><use x="218.262" xlink:href="#DejaVuSans-105"/><use x="246.045" xlink:href="#DejaVuSans-110"/><use x="309.424" xlink:href="#DejaVuSans-103"/><use x="372.9" xlink:href="#DejaVuSans-32"/><use x="404.688" xlink:href="#DejaVuSans-109"/><use x="502.1" xlink:href="#DejaVuSans-101"/><use x="563.623" xlink:href="#DejaVuSans-116"/><use x="602.832" xlink:href="#DejaVuSans-104"/><use x="666.211" xlink:href="#DejaVuSans-111"/><use x="727.393" xlink:href="#DejaVuSans-100"/></g></g></g></g></g><defs><clipPath id="p7a79c394c5"><path d="M57.6 41.472h357.12v266.112H57.6z"/></clipPath></defs></svg>