<svg height="576" viewBox="0 0 576 432" width="768" xmlns="http://www.w3.org/2000/svg" xmlns:xlink="http://www.w3.org/1999/xlink"><defs><style>*{stroke-linecap:butt;stroke-linejoin:round;stroke-miterlimit:100000;}</style></defs><g id="figure_1"><path d="M0 432h576V0H0z" fill="#fff" id="patch_1"/><g id="axes_1"><path d="M72 388.8h446.4V43.2H72z" fill="#fff" id="patch_2"/><path clip-path="url(#pad7cd4ebe8)" d="M72 43.2l55.8 320 55.8-80 55.8 16 55.8-2.7 55.8.4H518.4" fill="none" stroke="#00f" stroke-linecap="square" id="line2d_1"/><path d="M72 43.2h446.4" fill="none" stroke="#000" stroke-linecap="square" id="patch_3"/><path d="M72 388.8h446.4" fill="none" stroke="#000" stroke-linecap="square" id="patch_4"/><path d="M518.4 388.8V43.2" fill="none" stroke="#000" stroke-linecap="square" id="patch_5"/><path d="M72 388.8V43.2" fill="none" stroke="#000" stroke-linecap="square" id="patch_6"/><g id="matplotlib.axis_1"><g id="xtick_1"><g id="line2d_2"><defs><path d="M0 0v-4" id="m05535d6446" stroke="#000" stroke-width=".5"/></defs><use x="72" xlink:href="#m05535d6446" y="388.8" stroke="#000" stroke-width=".5"/></g><g id="line2d_3"><defs><path d="M0 0v4" id="mde069df5cb" stroke="#000" stroke-width=".5"/></defs><use x="72" xlink:href="#mde069df5cb" y="43.2" stroke="#000" stroke-width=".5"/></g><g id="text_1"><defs><path d="M19.2 8.3h34.4V0H7.3v8.3L22.6 24q9.7 9.7 12.2 12.5 4.7 5.3 6.6 9 2 3.7 2 7.3 0 5.8-4.2 9.5-4 3.6-10.6 3.6-4.6 0-9.8-1.7-5-1.6-11-5v10q6 2.5 11 3.7 5.3 1.2 9.6 1.2 11.4 0 18-5.7 6.8-5.6 6.8-15 0-4.6-1.7-8.6-1.6-4-6-9.6l-8-8.2-18.3-19" id="BitstreamVeraSans-Roman-32"/></defs><use xlink:href="#BitstreamVeraSans-Roman-32" transform="matrix(.12 0 0 -.12 68.183 401.918)"/></g></g><g id="xtick_2"><use x="127.8" xlink:href="#m05535d6446" y="388.8" stroke="#000" stroke-width=".5" id="line2d_4"/><use x="127.8" xlink:href="#mde069df5cb" y="43.2" stroke="#000" stroke-width=".5" id="line2d_5"/><g id="text_2"><defs><path d="M40.6 39.3q7-1.5 11-6.3t4-11.8q0-10.8-7.4-16.7-7.4-6-21-6-4.7 0-9.5 1-5 1-10 2.7v9.5q4-2.4 9-3.6 4.8-1 10-1 9.4 0 14.2 3.5 4.8 3.7 4.8 10.7 0 6.4-4.5 10Q36.8 35 28.7 35h-8.5v8h9q7.2 0 11 3 4 2.8 4 8.3 0 5.6-4 8.6t-11.5 3q-4 0-8.7-1-4.6-.8-10.2-2.7V71q5.6 1.7 10.5 2.4 5 .8 9.3.8 11.2 0 17.8-5Q54 64 54 55q0-6-3.6-10-3.4-4.3-9.8-6" id="BitstreamVeraSans-Roman-33"/></defs><use xlink:href="#BitstreamVeraSans-Roman-33" transform="matrix(.12 0 0 -.12 123.983 401.918)"/></g></g><g id="xtick_3"><use x="183.6" xlink:href="#m05535d6446" y="388.8" stroke="#000" stroke-width=".5" id="line2d_6"/><use x="183.6" xlink:href="#mde069df5cb" y="43.2" stroke="#000" stroke-width=".5" id="line2d_7"/><g id="text_3"><defs><path d="M37.8 64.3l-25-39h25zM35.2 73h12.4V25.3H58v-8.2H47.6V0h-9.8v17.2h-33v9.5z" id="BitstreamVeraSans-Roman-34"/></defs><use xlink:href="#BitstreamVeraSans-Roman-34" transform="matrix(.12 0 0 -.12 179.782 401.918)"/></g></g><g id="xtick_4"><use x="239.4" xlink:href="#m05535d6446" y="388.8" stroke="#000" stroke-width=".5" id="line2d_8"/><use x="239.4" xlink:href="#mde069df5cb" y="43.2" stroke="#000" stroke-width=".5" id="line2d_9"/><g id="text_4"><defs><path d="M10.8 73h38.7v-8.4H19.8v-18q2.2 1 4.3 1.2 2.3.4 4.4.4 12.2 0 19.4-6.7 7-6.7 7-18 0-12-7.2-18.4Q40.2-1.3 27-1.3q-4.7 0-9.5.8-4.7.7-9.8 2.3v10Q12 9 16.7 8q4.8-1 10-1 8.5 0 13.4 4.3 5 4.5 5 12 0 7.7-5 12Q35.3 40 26.8 40q-4 0-8-1-3.8-1-8-2.7z" id="BitstreamVeraSans-Roman-35"/></defs><use xlink:href="#BitstreamVeraSans-Roman-35" transform="matrix(.12 0 0 -.12 235.583 401.918)"/></g></g><g id="xtick_5"><use x="295.2" xlink:href="#m05535d6446" y="388.8" stroke="#000" stroke-width=".5" id="line2d_10"/><use x="295.2" xlink:href="#mde069df5cb" y="43.2" stroke="#000" stroke-width=".5" id="line2d_11"/><g id="text_5"><defs><path d="M33 40.4q-6.6 0-10.5-4.6-4-4.5-4-12.4 0-8 4-12.4 4-4.6 10.5-4.6 6.7 0 10.5 4.6 4 4.5 4 12.4 0 8-4 12.4-3.8 4.6-10.5 4.6m19.6 31v-9Q49 64 45 65q-3.7 1-7.4 1-9.8 0-15-6.7-5-6.6-5.8-20 3 4.4 7.2 6.6 4.4 2.2 9.6 2.2 11 0 17.4-6.7 6.3-6.6 6.3-18 0-11.3-6.6-18-6.7-7-17.7-7-12.6 0-19.3 9.8Q7 18 7 36.3 7 53.8 15.2 64 23.4 74 37.2 74q3.7 0 7.5-.7 3.8-.8 8-2.2" id="BitstreamVeraSans-Roman-36"/></defs><use xlink:href="#BitstreamVeraSans-Roman-36" transform="matrix(.12 0 0 -.12 291.382 401.918)"/></g></g><g id="xtick_6"><use x="351" xlink:href="#m05535d6446" y="388.8" stroke="#000" stroke-width=".5" id="line2d_12"/><use x="351" xlink:href="#mde069df5cb" y="43.2" stroke="#000" stroke-width=".5" id="line2d_13"/><g id="text_6"><defs><path d="M8.2 73h47v-4.3L28.5 0H18.3l25 64.6h-35z" id="BitstreamVeraSans-Roman-37"/></defs><use xlink:href="#BitstreamVeraSans-Roman-37" transform="matrix(.12 0 0 -.12 347.183 401.918)"/></g></g><g id="xtick_7"><use x="406.8" xlink:href="#m05535d6446" y="388.8" stroke="#000" stroke-width=".5" id="line2d_14"/><use x="406.8" xlink:href="#mde069df5cb" y="43.2" stroke="#000" stroke-width=".5" id="line2d_15"/><g id="text_7"><defs><path d="M31.8 34.6q-7 0-11-3.7-4-4-4-10.5 0-6.6 4-10.3 4-3.8 11-3.8t11 3.8q4 3.8 4 10.3Q47 27 43 31q-4 3.6-11 3.6m-10 4.2q-6.2 1.6-9.8 6Q8.5 49 8.5 55.2q0 8.8 6.2 13.8 6.3 5.2 17 5.2 11 0 17.2-5 6-5 6-14 0-6-3.5-10.5-3.5-4.3-9.8-6 7-1.5 11-6.4 4-4.8 4-11.8 0-10.6-6.4-16.3-6.5-5.6-18.5-5.6T13.2 4.2Q6.8 10 6.8 20.5q0 7 4 11.8 4 5 11 6.5m-3.5 15.6q0-5.7 3.5-8.8 3.6-3.2 10-3.2 6.3 0 10 3.2 3.5 3 3.5 8.8 0 5.7-3.6 8.8-3.6 3.2-10 3.2-6.3 0-10-3.2-3.4-3-3.4-8.8" id="BitstreamVeraSans-Roman-38"/></defs><use xlink:href="#BitstreamVeraSans-Roman-38" transform="matrix(.12 0 0 -.12 402.983 401.918)"/></g></g><g id="xtick_8"><use x="462.6" xlink:href="#m05535d6446" y="388.8" stroke="#000" stroke-width=".5" id="line2d_16"/><use x="462.6" xlink:href="#mde069df5cb" y="43.2" stroke="#000" stroke-width=".5" id="line2d_17"/><g id="text_8"><defs><path d="M11 1.5v9q3.7-1.8 7.5-2.7 3.8-1 7.5-1 9.8 0 15 6.7 5 6.5 5.8 20Q44 29 39.6 27q-4.4-2.3-9.6-2.3-11 0-17.3 6.6-6.4 6.6-6.4 18 0 11.3 6.6 18 6.6 7 17.6 7 12.7 0 19.3-9.8 6.6-9.7 6.6-28 0-17.4-8.2-27.6-8.2-10.4-22-10.4-3.7 0-7.5.7-4 .7-8 2.2m19.6 31q6.6 0 10.5 4.5 4 4.5 4 12.4 0 8-4 12.4-3.8 4.6-10.4 4.6-6.6 0-10.5-4.6-3.8-4.5-3.8-12.4 0-8 4-12.4 3.8-4.6 10.4-4.6" id="BitstreamVeraSans-Roman-39"/></defs><use xlink:href="#BitstreamVeraSans-Roman-39" transform="matrix(.12 0 0 -.12 458.783 401.918)"/></g></g><g id="xtick_9"><use x="518.4" xlink:href="#m05535d6446" y="388.8" stroke="#000" stroke-width=".5" id="line2d_18"/><use x="518.4" xlink:href="#mde069df5cb" y="43.2" stroke="#000" stroke-width=".5" id="line2d_19"/><g id="text_9"><defs><path d="M31.8 66.4q-7.6 0-11.5-7.5-3.8-7.6-3.8-22.6 0-15 3.8-22.5 4-7.6 11.5-7.6 7.7 0 11.5 7.5Q47 21.3 47 36.3q0 15-3.7 22.5-3.8 7.4-11.5 7.4m0 7.8q12.2 0 18.7-9.7t6.5-28Q57 18 50.5 8.2T31.8-1.4Q19.5-1.4 13 8.3q-6.4 9.7-6.4 28Q6.6 55 13 64.6T32 74.2" id="BitstreamVeraSans-Roman-30"/><path d="M12.4 8.3h16V64L11 60.3v9L28.4 73h10V8.2h16V0h-42z" id="BitstreamVeraSans-Roman-31"/></defs><g transform="matrix(.12 0 0 -.12 510.765 401.918)"><use xlink:href="#BitstreamVeraSans-Roman-31"/><use x="63.6" xlink:href="#BitstreamVeraSans-Roman-30"/></g></g></g><g id="text_10"><defs><path d="M52 44.2q3.4 6 8 9Q65 56 71 56q8.6 0 13.3-6Q89 44 89 33V0h-9v32.7q0 8-3 11.7-2.7 3.8-8.4 3.8-7 0-11-4.7-4-4.6-4-12.6V0h-9v32.7q0 8-3 11.7-2.7 3.8-8.5 3.8-6.8 0-10.8-4.7-4-4.6-4-12.6V0H9v54.7h9v-8.5q3 5 7.3 7.4Q29.8 56 35.7 56q6 0 10-3 4.3-3 6.3-8.8" id="BitstreamVeraSans-Roman-6d"/><path d="M18 8.2v-29H9v75.5h9v-8.3q3 5 7.3 7.2Q29.6 56 35.6 56q10 0 16.2-8Q58 40.3 58 27.4q0-13-6.2-20.8-6.2-8-16.2-8-6 0-10.3 2.5Q21 3.3 18 8.2m30.7 19q0 10-4 15.6-4.2 5.7-11.3 5.7-7 0-11.2-5.7-4-5.6-4-15.5 0-10 4-15.6t11.2-5.6q7 0 11.2 5.8 4 5.6 4 15.5" id="BitstreamVeraSans-Roman-70"/><path d="M4.2 54.7h9L24.4 12l11.2 42.7h10.6L57.4 12l11.2 42.7h9L63.3 0H52.7L41 44.8 29 0H18.6z" id="BitstreamVeraSans-Roman-77"/><path d="M48.7 27.3q0 10-4 15.5-4.2 5.7-11.3 5.7-7 0-11.2-5.7-4-5.6-4-15.5 0-10 4-15.6t11.2-5.6q7 0 11.2 5.8 4 5.6 4 15.5m-30.5 19q3 5 7.3 7.3Q29.6 56 35.6 56q10 0 16.2-8Q58 40.3 58 27.4q0-13-6.2-20.8-6.2-8-16.2-8-6 0-10.3 2.5Q21 3.3 18 8.2V0H9v76h9z" id="BitstreamVeraSans-Roman-62"/><path d="M8.5 21.6v33h9V22q0-7.8 3-11.7 3-4 9-4 7.4 0 11.6 4.7 4.3 4.7 4.3 12.7v31h9V0h-9v8.4Q42 3.4 37.7 1q-4.3-2.4-10-2.4-9.4 0-14.3 5.8-5 6-5 17.2" id="BitstreamVeraSans-Roman-75"/><path d="M30.6 48.4q-7.2 0-11.4-5.6Q15 37 15 27.3t4.2-15.5q4-5.6 11.4-5.6 7.2 0 11.4 5.7 4.2 5.5 4.2 15.3 0 9.7-4.2 15.4-4.2 5.7-11.4 5.7m0 7.6q11.7 0 18.4-7.6 6.7-7.6 6.7-21Q55.7 13.8 49 6q-6.7-7.6-18.4-7.6-11.8 0-18.4 7.6-6.7 7.7-6.7 21 0 13.6 6.7 21.2Q18.8 56 30.6 56" id="BitstreamVeraSans-Roman-6f"/><path d="M56.2 29.6v-4.4H15q.5-9.3 5.5-14 5-5 14-5 5 0 10 1.3 4.8 1.2 9.6 3.8V2.8q-4.7-2-9.8-3-5-1.2-10.3-1.2-13.2 0-20.8 7.6-7.7 7.6-7.7 20.6 0 13.4 7.3 21.3 7.2 8 19.5 8 11 0 17.5-7 6.4-7.2 6.4-19.4m-9 2.6q0 7.4-4 11.8t-10.8 4.4q-7.5 0-12-4.3-4.5-4-5.2-11.8z" id="BitstreamVeraSans-Roman-65"/><path d="M9.4 54.7h9V0h-9zm0 21.3h9V64.6h-9z" id="BitstreamVeraSans-Roman-69"/><path d="M9.8 73H23l32.4-61v61H65V0H51.7L19.4 61V0H9.8z" id="BitstreamVeraSans-Roman-4e"/><path d="M9.4 76h9V0h-9z" id="BitstreamVeraSans-Roman-6c"/><path d="M41 46.3q-1.4 1-3.2 1.3-1.8.4-4 .4-7.5 0-11.6-5-4-5-4-14.2V0H9v54.7h9v-8.5q2.8 5 7.3 7.4Q30 56 36.5 56h2l2.6-.5z" id="BitstreamVeraSans-Roman-72"/><path d="M34.3 27.5q-11 0-15-2.5-4.3-2.5-4.3-8.5 0-4.8 3-7.6 3.3-3 8.7-3 7.5 0 12 5.4 4.5 5.3 4.5 14v2zm18 3.7V0h-9v8.3Q40 3.3 35.4 1 31-1.4 24.3-1.4 16-1.4 11 3.3 6 8 6 16q0 9 6.2 13.8 6.2 4.7 18.4 4.7h12.6v1q0 6-4 9.5-4 3.4-11.5 3.4-4.7 0-9.2-1Q14 46 10 43.8V52q5 2 9.6 2.8 4.6 1 9 1 12 0 17.7-6.2 6-6 6-18.6" id="BitstreamVeraSans-Roman-61"/><path d="M55 33V0h-9v32.7q0 7.8-3 11.6-3.2 4-9.2 4-7.3 0-11.5-4.8Q18 39 18 31V0H9v54.7h9v-8.5q3.3 5 7.7 7.4Q30 56 35.7 56q9.5 0 14.3-5.8 5-6 5-17.2" id="BitstreamVeraSans-Roman-6e"/><path d="M45.4 46.4V76h9V0h-9v8.2q-2.8-5-7-7.2-4.5-2.4-10.5-2.4-10 0-16.3 8-6.2 7.8-6.2 20.7 0 13 6.2 20.8Q18 56 28 56q6 0 10.3-2.4 4.3-2.3 7-7.2M15 27.4q0-10 4-15.6Q23 6 30.2 6q7.2 0 11.3 5.8 4 5.6 4 15.5 0 10-4 15.5-4 5.7-11.2 5.7-7 0-11-5.7-4.2-5.6-4.2-15.5" id="BitstreamVeraSans-Roman-64"/><path d="M37 76v-7.5h-8.5q-4.8 0-6.7-2-2-2-2-7v-4.8h15v-7h-15V0h-9v47.7H2.4v7H11v3.8q0 9 4 13.3Q19.5 76 28.7 76z" id="BitstreamVeraSans-Roman-66"/></defs><g transform="matrix(.12 0 0 -.12 217.017 418.532)"><use xlink:href="#BitstreamVeraSans-Roman-4e"/><use x="74.8" xlink:href="#BitstreamVeraSans-Roman-75"/><use x="138.2" xlink:href="#BitstreamVeraSans-Roman-6d"/><use x="235.6" xlink:href="#BitstreamVeraSans-Roman-62"/><use x="299.1" xlink:href="#BitstreamVeraSans-Roman-65"/><use x="360.6" xlink:href="#BitstreamVeraSans-Roman-72"/><use x="401.7" xlink:href="#BitstreamVeraSans-Roman-20"/><use x="433.5" xlink:href="#BitstreamVeraSans-Roman-6f"/><use x="494.7" xlink:href="#BitstreamVeraSans-Roman-66"/><use x="529.9" xlink:href="#BitstreamVeraSans-Roman-20"/><use x="561.7" xlink:href="#BitstreamVeraSans-Roman-70"/><use x="625.1" xlink:href="#BitstreamVeraSans-Roman-65"/><use x="686.7" xlink:href="#BitstreamVeraSans-Roman-6f"/><use x="747.9" xlink:href="#BitstreamVeraSans-Roman-70"/><use x="811.3" xlink:href="#BitstreamVeraSans-Roman-6c"/><use x="839.1" xlink:href="#BitstreamVeraSans-Roman-65"/><use x="900.6" xlink:href="#BitstreamVeraSans-Roman-20"/><use x="932.4" xlink:href="#BitstreamVeraSans-Roman-69"/><use x="960.2" xlink:href="#BitstreamVeraSans-Roman-6e"/><use x="1023.6" xlink:href="#BitstreamVeraSans-Roman-20"/><use x="1055.4" xlink:href="#BitstreamVeraSans-Roman-64"/><use x="1118.8" xlink:href="#BitstreamVeraSans-Roman-72"/><use x="1160" xlink:href="#BitstreamVeraSans-Roman-61"/><use x="1221.2" xlink:href="#BitstreamVeraSans-Roman-77"/></g></g></g><g id="matplotlib.axis_2"><g id="ytick_1"><g id="line2d_20"><defs><path d="M0 0h4" id="m1032fbb849" stroke="#000" stroke-width=".5"/></defs><use x="72" xlink:href="#m1032fbb849" y="388.8" stroke="#000" stroke-width=".5"/></g><g id="line2d_21"><defs><path d="M0 0h-4" id="m6da017d871" stroke="#000" stroke-width=".5"/></defs><use x="518.4" xlink:href="#m6da017d871" y="388.8" stroke="#000" stroke-width=".5"/></g><g id="text_11"><defs><path d="M10.7 12.4H21V0H10.7z" id="BitstreamVeraSans-Roman-2e"/></defs><g transform="matrix(.12 0 0 -.12 41.28 392.11)"><use xlink:href="#BitstreamVeraSans-Roman-30"/><use x="63.6" xlink:href="#BitstreamVeraSans-Roman-2e"/><use x="95.4" xlink:href="#BitstreamVeraSans-Roman-33"/><use x="159" xlink:href="#BitstreamVeraSans-Roman-32"/></g></g></g><g id="ytick_2"><use x="72" xlink:href="#m1032fbb849" y="350.4" stroke="#000" stroke-width=".5" id="line2d_22"/><use x="518.4" xlink:href="#m6da017d871" y="350.4" stroke="#000" stroke-width=".5" id="line2d_23"/><g transform="matrix(.12 0 0 -.12 41.28 353.71)" id="text_12"><use xlink:href="#BitstreamVeraSans-Roman-30"/><use x="63.6" xlink:href="#BitstreamVeraSans-Roman-2e"/><use x="95.4" xlink:href="#BitstreamVeraSans-Roman-33"/><use x="159" xlink:href="#BitstreamVeraSans-Roman-34"/></g></g><g id="ytick_3"><use x="72" xlink:href="#m1032fbb849" y="312" stroke="#000" stroke-width=".5" id="line2d_24"/><use x="518.4" xlink:href="#m6da017d871" y="312" stroke="#000" stroke-width=".5" id="line2d_25"/><g transform="matrix(.12 0 0 -.12 41.28 315.31)" id="text_13"><use xlink:href="#BitstreamVeraSans-Roman-30"/><use x="63.6" xlink:href="#BitstreamVeraSans-Roman-2e"/><use x="95.4" xlink:href="#BitstreamVeraSans-Roman-33"/><use x="159" xlink:href="#BitstreamVeraSans-Roman-36"/></g></g><g id="ytick_4"><use x="72" xlink:href="#m1032fbb849" y="273.6" stroke="#000" stroke-width=".5" id="line2d_26"/><use x="518.4" xlink:href="#m6da017d871" y="273.6" stroke="#000" stroke-width=".5" id="line2d_27"/><g transform="matrix(.12 0 0 -.12 41.28 276.91)" id="text_14"><use xlink:href="#BitstreamVeraSans-Roman-30"/><use x="63.6" xlink:href="#BitstreamVeraSans-Roman-2e"/><use x="95.4" xlink:href="#BitstreamVeraSans-Roman-33"/><use x="159" xlink:href="#BitstreamVeraSans-Roman-38"/></g></g><g id="ytick_5"><use x="72" xlink:href="#m1032fbb849" y="235.2" stroke="#000" stroke-width=".5" id="line2d_28"/><use x="518.4" xlink:href="#m6da017d871" y="235.2" stroke="#000" stroke-width=".5" id="line2d_29"/><g transform="matrix(.12 0 0 -.12 41.28 238.51)" id="text_15"><use xlink:href="#BitstreamVeraSans-Roman-30"/><use x="63.6" xlink:href="#BitstreamVeraSans-Roman-2e"/><use x="95.4" xlink:href="#BitstreamVeraSans-Roman-34"/><use x="159" xlink:href="#BitstreamVeraSans-Roman-30"/></g></g><g id="ytick_6"><use x="72" xlink:href="#m1032fbb849" y="196.8" stroke="#000" stroke-width=".5" id="line2d_30"/><use x="518.4" xlink:href="#m6da017d871" y="196.8" stroke="#000" stroke-width=".5" id="line2d_31"/><g transform="matrix(.12 0 0 -.12 41.28 200.11)" id="text_16"><use xlink:href="#BitstreamVeraSans-Roman-30"/><use x="63.6" xlink:href="#BitstreamVeraSans-Roman-2e"/><use x="95.4" xlink:href="#BitstreamVeraSans-Roman-34"/><use x="159" xlink:href="#BitstreamVeraSans-Roman-32"/></g></g><g id="ytick_7"><use x="72" xlink:href="#m1032fbb849" y="158.4" stroke="#000" stroke-width=".5" id="line2d_32"/><use x="518.4" xlink:href="#m6da017d871" y="158.4" stroke="#000" stroke-width=".5" id="line2d_33"/><g transform="matrix(.12 0 0 -.12 41.28 161.71)" id="text_17"><use xlink:href="#BitstreamVeraSans-Roman-30"/><use x="63.6" xlink:href="#BitstreamVeraSans-Roman-2e"/><use x="95.4" xlink:href="#BitstreamVeraSans-Roman-34"/><use x="159" xlink:href="#BitstreamVeraSans-Roman-34"/></g></g><g id="ytick_8"><use x="72" xlink:href="#m1032fbb849" y="120" stroke="#000" stroke-width=".5" id="line2d_34"/><use x="518.4" xlink:href="#m6da017d871" y="120" stroke="#000" stroke-width=".5" id="line2d_35"/><g transform="matrix(.12 0 0 -.12 41.28 123.31)" id="text_18"><use xlink:href="#BitstreamVeraSans-Roman-30"/><use x="63.6" xlink:href="#BitstreamVeraSans-Roman-2e"/><use x="95.4" xlink:href="#BitstreamVeraSans-Roman-34"/><use x="159" xlink:href="#BitstreamVeraSans-Roman-36"/></g></g><g id="ytick_9"><use x="72" xlink:href="#m1032fbb849" y="81.6" stroke="#000" stroke-width=".5" id="line2d_36"/><use x="518.4" xlink:href="#m6da017d871" y="81.6" stroke="#000" stroke-width=".5" id="line2d_37"/><g transform="matrix(.12 0 0 -.12 41.28 84.91)" id="text_19"><use xlink:href="#BitstreamVeraSans-Roman-30"/><use x="63.6" xlink:href="#BitstreamVeraSans-Roman-2e"/><use x="95.4" xlink:href="#BitstreamVeraSans-Roman-34"/><use x="159" xlink:href="#BitstreamVeraSans-Roman-38"/></g></g><g id="ytick_10"><use x="72" xlink:href="#m1032fbb849" y="43.2" stroke="#000" stroke-width=".5" id="line2d_38"/><use x="518.4" xlink:href="#m6da017d871" y="43.2" stroke="#000" stroke-width=".5" id="line2d_39"/><g transform="matrix(.12 0 0 -.12 41.28 46.51)" id="text_20"><use xlink:href="#BitstreamVeraSans-Roman-30"/><use x="63.6" xlink:href="#BitstreamVeraSans-Roman-2e"/><use x="95.4" xlink:href="#BitstreamVeraSans-Roman-35"/><use x="159" xlink:href="#BitstreamVeraSans-Roman-30"/></g></g><g id="text_21"><defs><path d="M18.3 70.2V54.7h18.5v-7H18.3V18q0-6.7 1.8-8.6 2-2 7.6-2h9.2V0h-9.2Q17.2 0 13.2 4q-4 3.8-4 14v29.7H2.8v7h6.6v15.5z" id="BitstreamVeraSans-Roman-74"/><path d="M45.4 28q0 9.8-4 15-4 5.5-11.3 5.5-7 0-11.2-5.4-4-5.3-4-15t4-15q4-5.5 11.3-5.5 7.4 0 11.4 5.4 4 5.3 4 15m9-21.2q0-14-6.2-20.8-6.2-6.8-19-6.8-4.7 0-9 .7-4 .6-8 2V-9q4-2 7.7-3 3.8-1.2 7.8-1.2 8.8 0 13.2 4.6 4.4 4.6 4.4 14v4.4q-2.8-4.8-7-7.2Q33.8 0 27.8 0 17.7 0 11.6 7.7 5.5 15.3 5.5 28q0 12.7 6.2 20.3Q17.7 56 28 56q6 0 10.3-2.4 4.3-2.4 7-7.2v8.3h9z" id="BitstreamVeraSans-Roman-67"/><path d="M48.8 52.6v-8.4q-3.8 2-7.7 3-3.7 1.2-7.6 1.2-8.7 0-13.6-5.6Q15 37.3 15 27.3t4.8-15.6q5-5.5 13.6-5.5 4 0 7.7 1 4 1 7.8 3.2V2Q45 .4 41-.4q-4-1-8.6-1-12.3 0-19.6 7.8-7.3 7.8-7.3 21 0 13.4 7.4 21Q20 56 33 56q4.2 0 8-1 4-.7 7.8-2.4" id="BitstreamVeraSans-Roman-63"/><path d="M55 33V0h-9v32.7q0 7.8-3 11.6-3.2 4-9.2 4-7.3 0-11.5-4.8Q18 39 18 31V0H9v76h9V46.2q3.3 5 7.7 7.4Q30 56 35.7 56q9.5 0 14.3-5.8 5-6 5-17.2" id="BitstreamVeraSans-Roman-68"/><path d="M19.7 64.8V37.4H32q7 0 10.7 3.6 3.8 3.5 3.8 10 0 6.7-3.8 10.2Q39 64.8 32 64.8zm-10 8h22.4q12.3 0 18.6-5.4Q57 61.8 57 51q0-10.7-6.4-16.2-6.3-5.5-18.5-5.5H19.8V0h-10z" id="BitstreamVeraSans-Roman-50"/><path d="M44.3 53v-8.4q-3.8 2-8 3-4 1-8.4 1-6.8 0-10.2-2.2-3.3-2-3.3-6 0-3.2 2.4-5 2.3-1.8 9.5-3.4l3-.7q9.7-2 13.7-5.8 4-3.7 4-10.4 0-7.5-6-12-6-4.4-16.6-4.4-4.4 0-9 .8-5 1-10.2 2.6v9.3q5-2.6 9.8-4 5-1.2 9.6-1.2 6.4 0 9.8 2.3 3.4 2.2 3.4 6T35.5 20q-2.4 2-10.8 3.8l-3 .7Q13 26.3 9.4 30q-3.7 3.5-3.7 10 0 7.6 5.5 11.8Q16.7 56 26.8 56q5 0 9.4-.7 4.4-.8 8-2.2" id="BitstreamVeraSans-Roman-73"/></defs><g transform="matrix(0 -.12 -.12 0 33.786 346.885)"><use xlink:href="#BitstreamVeraSans-Roman-50"/><use x="60.3" xlink:href="#BitstreamVeraSans-Roman-65"/><use x="121.8" xlink:href="#BitstreamVeraSans-Roman-72"/><use x="162.9" xlink:href="#BitstreamVeraSans-Roman-63"/><use x="217.8" xlink:href="#BitstreamVeraSans-Roman-65"/><use x="279.4" xlink:href="#BitstreamVeraSans-Roman-6e"/><use x="342.7" xlink:href="#BitstreamVeraSans-Roman-74"/><use x="382" xlink:href="#BitstreamVeraSans-Roman-61"/><use x="443.2" xlink:href="#BitstreamVeraSans-Roman-67"/><use x="506.7" xlink:href="#BitstreamVeraSans-Roman-65"/><use x="568.2" xlink:href="#BitstreamVeraSans-Roman-20"/><use x="600" xlink:href="#BitstreamVeraSans-Roman-74"/><use x="639.2" xlink:href="#BitstreamVeraSans-Roman-68"/><use x="702.6" xlink:href="#BitstreamVeraSans-Roman-61"/><use x="763.9" xlink:href="#BitstreamVeraSans-Roman-74"/><use x="803.1" xlink:href="#BitstreamVeraSans-Roman-20"/><use x="834.9" xlink:href="#BitstreamVeraSans-Roman-74"/><use x="874.1" xlink:href="#BitstreamVeraSans-Roman-68"/><use x="937.5" xlink:href="#BitstreamVeraSans-Roman-65"/><use x="999" xlink:href="#BitstreamVeraSans-Roman-20"/><use x="1030.8" xlink:href="#BitstreamVeraSans-Roman-64"/><use x="1094.3" xlink:href="#BitstreamVeraSans-Roman-72"/><use x="1135.4" xlink:href="#BitstreamVeraSans-Roman-61"/><use x="1196.7" xlink:href="#BitstreamVeraSans-Roman-77"/><use x="1278.4" xlink:href="#BitstreamVeraSans-Roman-20"/><use x="1310.2" xlink:href="#BitstreamVeraSans-Roman-77"/><use x="1392" xlink:href="#BitstreamVeraSans-Roman-69"/><use x="1419.8" xlink:href="#BitstreamVeraSans-Roman-6c"/><use x="1447.6" xlink:href="#BitstreamVeraSans-Roman-6c"/><use x="1475.4" xlink:href="#BitstreamVeraSans-Roman-20"/><use x="1507.1" xlink:href="#BitstreamVeraSans-Roman-62"/><use x="1570.6" xlink:href="#BitstreamVeraSans-Roman-65"/><use x="1632.1" xlink:href="#BitstreamVeraSans-Roman-20"/><use x="1663.9" xlink:href="#BitstreamVeraSans-Roman-73"/><use x="1716" xlink:href="#BitstreamVeraSans-Roman-75"/><use x="1779.4" xlink:href="#BitstreamVeraSans-Roman-63"/><use x="1834.4" xlink:href="#BitstreamVeraSans-Roman-63"/><use x="1889.4" xlink:href="#BitstreamVeraSans-Roman-65"/><use x="1950.9" xlink:href="#BitstreamVeraSans-Roman-73"/><use x="2003" xlink:href="#BitstreamVeraSans-Roman-73"/><use x="2055.1" xlink:href="#BitstreamVeraSans-Roman-66"/><use x="2090.3" xlink:href="#BitstreamVeraSans-Roman-75"/><use x="2153.7" xlink:href="#BitstreamVeraSans-Roman-6c"/></g></g></g><g id="text_22"><defs><path d="M34.2 63.2L20.8 27h26.8zM28.6 73h11.2L67.6 0H57.3l-6.6 18.7h-33L11.3 0H.8z" id="BitstreamVeraSans-Roman-41"/></defs><g transform="matrix(.144 0 0 -.144 153.694 38.2)"><use xlink:href="#BitstreamVeraSans-Roman-41"/><use x="68.4" xlink:href="#BitstreamVeraSans-Roman-63"/><use x="123.4" xlink:href="#BitstreamVeraSans-Roman-74"/><use x="162.6" xlink:href="#BitstreamVeraSans-Roman-75"/><use x="226" xlink:href="#BitstreamVeraSans-Roman-61"/><use x="287.2" xlink:href="#BitstreamVeraSans-Roman-6c"/><use x="315" xlink:href="#BitstreamVeraSans-Roman-20"/><use x="346.8" xlink:href="#BitstreamVeraSans-Roman-70"/><use x="410.3" xlink:href="#BitstreamVeraSans-Roman-65"/><use x="471.8" xlink:href="#BitstreamVeraSans-Roman-72"/><use x="512.9" xlink:href="#BitstreamVeraSans-Roman-63"/><use x="567.9" xlink:href="#BitstreamVeraSans-Roman-65"/><use x="629.4" xlink:href="#BitstreamVeraSans-Roman-6e"/><use x="692.8" xlink:href="#BitstreamVeraSans-Roman-74"/><use x="732" xlink:href="#BitstreamVeraSans-Roman-61"/><use x="793.3" xlink:href="#BitstreamVeraSans-Roman-67"/><use x="856.7" xlink:href="#BitstreamVeraSans-Roman-65"/><use x="918.3" xlink:href="#BitstreamVeraSans-Roman-20"/><use x="950.1" xlink:href="#BitstreamVeraSans-Roman-6f"/><use x="1011.2" xlink:href="#BitstreamVeraSans-Roman-66"/><use x="1046.4" xlink:href="#BitstreamVeraSans-Roman-20"/><use x="1078.2" xlink:href="#BitstreamVeraSans-Roman-61"/><use x="1139.5" xlink:href="#BitstreamVeraSans-Roman-20"/><use x="1171.3" xlink:href="#BitstreamVeraSans-Roman-73"/><use x="1223.4" xlink:href="#BitstreamVeraSans-Roman-75"/><use x="1286.8" xlink:href="#BitstreamVeraSans-Roman-63"/><use x="1341.8" xlink:href="#BitstreamVeraSans-Roman-65"/><use x="1403.3" xlink:href="#BitstreamVeraSans-Roman-73"/><use x="1455.4" xlink:href="#BitstreamVeraSans-Roman-73"/><use x="1507.5" xlink:href="#BitstreamVeraSans-Roman-66"/><use x="1542.7" xlink:href="#BitstreamVeraSans-Roman-75"/><use x="1606.1" xlink:href="#BitstreamVeraSans-Roman-6c"/><use x="1633.8" xlink:href="#BitstreamVeraSans-Roman-20"/><use x="1665.6" xlink:href="#BitstreamVeraSans-Roman-64"/><use x="1729.1" xlink:href="#BitstreamVeraSans-Roman-72"/><use x="1770.2" xlink:href="#BitstreamVeraSans-Roman-61"/><use x="1831.5" xlink:href="#BitstreamVeraSans-Roman-77"/><use x="1913.3" xlink:href="#BitstreamVeraSans-Roman-73"/></g></g></g></g><defs><clipPath id="pad7cd4ebe8"><path d="M72 43.2h446.4v345.6H72z"/></clipPath></defs></svg>