<svg height="576" viewBox="0 0 576 432" width="768" xmlns="http://www.w3.org/2000/svg" xmlns:xlink="http://www.w3.org/1999/xlink"><defs><style>*{stroke-linecap:butt;stroke-linejoin:round;stroke-miterlimit:100000;}</style></defs><g id="figure_1"><path d="M0 432h576V0H0z" fill="#fff" id="patch_1"/><g id="axes_1"><path d="M72 388.8h446.4V43.2H72z" fill="#fff" id="patch_2"/><path clip-path="url(#p17935bc9dd)" d="M72 372.38l71.7-.1 23.8-.28 18.03-.42 15.14-.57 13.25-.7 11.93-.87 10.93-1 10.14-1.17 9.55-1.32 8.98-1.45 8.52-1.62 8.17-1.77 7.82-1.9 7.5-2.06 7.27-2.23 7.1-2.4 6.88-2.57 6.66-2.72 6.5-2.9 6.45-3.1 6.26-3.26 6.16-3.48 6.02-3.65 5.98-3.87 5.94-4.13 5.8-4.3 5.77-4.55 5.62-4.72 5.67-5.05 5.67-5.35 5.57-5.58 5.54-5.85 5.45-6.07 5.5-6.46 5.53-6.85 5.45-7.1 5.44-7.47 5.4-7.78 5.45-8.23 5.54-8.78 5.45-9.06 5.45-9.5 5.4-9.85 5.5-10.5 5.58-11.13 5.5-11.48 5.52-12.08 5.45-12.42 5.53-13.17 5.63-13.97 5.58-14.46 5.63-15.2.13-.37" fill="none" stroke="#000" stroke-linecap="square" stroke-width="1.5" id="line2d_1"/><path clip-path="url(#p17935bc9dd)" d="M72 372.34l86.42-.1 14.68-.2 15.3-.5 30.45-1.72 25.14-2.18 15.37-2 1.17-.2 2.34-.37 1.4-.22 2.97-.53 3.6-.72 3.27-.7 3.67-.86 5.54-1.3 11.86-2.94" fill="none" stroke="red" stroke-linecap="square" stroke-width="1.5" id="line2d_2"/><path clip-path="url(#p17935bc9dd)" d="M464.3 388.8V207.7H72" fill="none" stroke="#00f" stroke-linecap="square" stroke-width="1.5" id="line2d_3"/><path d="M72 388.8h446.4" fill="none" stroke="#000" stroke-linecap="square" id="patch_3"/><path d="M72 43.2h446.4" fill="none" stroke="#000" stroke-linecap="square" id="patch_4"/><path d="M518.4 388.8V43.2" fill="none" stroke="#000" stroke-linecap="square" id="patch_5"/><path d="M72 388.8V43.2" fill="none" stroke="#000" stroke-linecap="square" id="patch_6"/><g id="matplotlib.axis_1"><g id="xtick_1"><g id="line2d_4"><defs><path d="M0 0v-4" id="m955611962a" stroke="#000" stroke-width=".5"/></defs><use x="128.83" xlink:href="#m955611962a" y="388.8" stroke="#000" stroke-width=".5"/></g><g id="line2d_5"><defs><path d="M0 0v4" id="m52eecef199" stroke="#000" stroke-width=".5"/></defs><use x="128.83" xlink:href="#m52eecef199" y="43.2" stroke="#000" stroke-width=".5"/></g><g id="text_1"><defs><path d="M19.2 8.3h34.4V0H7.34v8.3q5.6 5.8 15.3 15.6 9.7 9.8 12.18 12.63 4.75 5.3 6.62 9 1.9 3.7 1.9 7.25 0 5.8-4.1 9.47-4.06 3.67-10.6 3.67-4.65 0-9.8-1.6-5.15-1.62-11-4.9v9.97q5.95 2.38 11.12 3.6 5.18 1.22 9.48 1.22 11.33 0 18.06-5.67 6.74-5.66 6.74-15.13 0-4.5-1.7-8.53-1.66-4.02-6.1-9.5-1.23-1.42-7.78-8.18Q31.1 20.45 19.2 8.3" id="BitstreamVeraSans-Roman-32"/><path d="M12.4 8.3h16.12v55.62l-17.54-3.5v8.97l17.44 3.5h9.86V8.3h16.1V0H12.42z" id="BitstreamVeraSans-Roman-31"/><path d="M31.78 66.4q-7.6 0-11.45-7.5-3.83-7.48-3.83-22.52 0-15 3.83-22.5 3.84-7.5 11.45-7.5 7.67 0 11.5 7.5 3.84 7.5 3.84 22.5 0 15.04-3.84 22.53-3.83 7.5-11.5 7.5m0 7.82q12.27 0 18.74-9.7 6.46-9.7 6.46-28.14 0-18.4-6.46-28.1-6.47-9.7-18.74-9.7-12.25 0-18.72 9.7-6.47 9.7-6.47 28.1 0 18.45 6.46 28.14 6.47 9.7 18.72 9.7" id="BitstreamVeraSans-Roman-30"/></defs><g transform="matrix(.12 0 0 -.12 113.564 401.918)"><use xlink:href="#BitstreamVeraSans-Roman-32"/><use x="63.62" xlink:href="#BitstreamVeraSans-Roman-30"/><use x="127.25" xlink:href="#BitstreamVeraSans-Roman-31"/><use x="190.87" xlink:href="#BitstreamVeraSans-Roman-31"/></g></g></g><g id="xtick_2"><use x="185.9" xlink:href="#m955611962a" y="388.8" stroke="#000" stroke-width=".5" id="line2d_6"/><use x="185.9" xlink:href="#m52eecef199" y="43.2" stroke="#000" stroke-width=".5" id="line2d_7"/><g id="text_2"><defs><path d="M40.58 39.3q7.08-1.5 11.05-6.3 3.98-4.78 3.98-11.8 0-10.8-7.4-16.72-7.43-5.9-21.1-5.9-4.58 0-9.44.9Q12.8.38 7.62 2.2v9.52q4.1-2.4 8.97-3.6 4.88-1.23 10.2-1.23 9.28 0 14.14 3.65Q45.8 14.2 45.8 21.2q0 6.44-4.52 10.07-4.5 3.64-12.56 3.64h-8.5v8.12h8.9q7.25 0 11.1 2.9 3.87 2.9 3.87 8.38 0 5.6-4 8.6-3.96 3.02-11.38 3.02-4.06 0-8.7-.9-4.64-.86-10.2-2.7v8.77q5.62 1.56 10.52 2.34 4.9.78 9.25.78 11.23 0 17.76-5.1Q53.9 64 53.9 55.3q0-6.05-3.46-10.23-3.47-4.18-9.86-5.8" id="BitstreamVeraSans-Roman-33"/></defs><g transform="matrix(.12 0 0 -.12 170.632 401.918)"><use xlink:href="#BitstreamVeraSans-Roman-32"/><use x="63.62" xlink:href="#BitstreamVeraSans-Roman-30"/><use x="127.25" xlink:href="#BitstreamVeraSans-Roman-31"/><use x="190.87" xlink:href="#BitstreamVeraSans-Roman-33"/></g></g></g><g id="xtick_3"><use x="242.89" xlink:href="#m955611962a" y="388.8" stroke="#000" stroke-width=".5" id="line2d_8"/><use x="242.89" xlink:href="#m52eecef199" y="43.2" stroke="#000" stroke-width=".5" id="line2d_9"/><g id="text_3"><defs><path d="M10.8 72.9h38.72v-8.3h-29.7V46.72q2.15.74 4.3 1.1 2.15.36 4.3.36 12.2 0 19.33-6.7 7.14-6.7 7.14-18.1 0-11.77-7.34-18.3-7.33-6.52-20.65-6.52-4.6 0-9.35.78T7.72 1.7v9.93q4.4-2.4 9.08-3.57t9.9-1.17q8.46 0 13.38 4.43 4.94 4.44 4.94 12.06 0 7.6-4.94 12.04-4.92 4.45-13.38 4.45-3.95 0-7.9-.88-3.9-.88-8-2.74z" id="BitstreamVeraSans-Roman-35"/></defs><g transform="matrix(.12 0 0 -.12 227.622 401.918)"><use xlink:href="#BitstreamVeraSans-Roman-32"/><use x="63.62" xlink:href="#BitstreamVeraSans-Roman-30"/><use x="127.25" xlink:href="#BitstreamVeraSans-Roman-31"/><use x="190.87" xlink:href="#BitstreamVeraSans-Roman-35"/></g></g></g><g id="xtick_4"><use x="299.96" xlink:href="#m955611962a" y="388.8" stroke="#000" stroke-width=".5" id="line2d_10"/><use x="299.96" xlink:href="#m52eecef199" y="43.2" stroke="#000" stroke-width=".5" id="line2d_11"/><g id="text_4"><defs><path d="M8.2 72.9h46.88v-4.2L28.6 0H18.3l24.92 64.6H8.2z" id="BitstreamVeraSans-Roman-37"/></defs><g transform="matrix(.12 0 0 -.12 284.69 401.918)"><use xlink:href="#BitstreamVeraSans-Roman-32"/><use x="63.62" xlink:href="#BitstreamVeraSans-Roman-30"/><use x="127.25" xlink:href="#BitstreamVeraSans-Roman-31"/><use x="190.87" xlink:href="#BitstreamVeraSans-Roman-37"/></g></g></g><g id="xtick_5"><use x="356.95" xlink:href="#m955611962a" y="388.8" stroke="#000" stroke-width=".5" id="line2d_12"/><use x="356.95" xlink:href="#m52eecef199" y="43.2" stroke="#000" stroke-width=".5" id="line2d_13"/><g id="text_5"><defs><path d="M10.98 1.52v8.98q3.72-1.77 7.52-2.7 3.8-.9 7.48-.9 9.77 0 14.9 6.55 5.17 6.57 5.9 19.96-2.83-4.2-7.2-6.45-4.33-2.25-9.6-2.25-10.93 0-17.3 6.6Q6.3 37.95 6.3 49.43q0 11.22 6.64 18 6.64 6.8 17.67 6.8 12.67 0 19.32-9.7 6.67-9.7 6.67-28.14 0-17.24-8.2-27.52Q40.24-1.42 26.43-1.42q-3.72 0-7.53.73-3.8.75-7.92 2.22m19.63 30.9q6.65 0 10.52 4.53 3.9 4.55 3.9 12.47 0 7.86-3.9 12.42-3.87 4.57-10.5 4.57-6.65 0-10.53-4.56-3.88-4.56-3.88-12.42 0-7.92 3.87-12.47 3.87-4.53 10.5-4.53" id="BitstreamVeraSans-Roman-39"/></defs><g transform="matrix(.12 0 0 -.12 341.68 401.918)"><use xlink:href="#BitstreamVeraSans-Roman-32"/><use x="63.62" xlink:href="#BitstreamVeraSans-Roman-30"/><use x="127.25" xlink:href="#BitstreamVeraSans-Roman-31"/><use x="190.87" xlink:href="#BitstreamVeraSans-Roman-39"/></g></g></g><g id="xtick_6"><use x="414.02" xlink:href="#m955611962a" y="388.8" stroke="#000" stroke-width=".5" id="line2d_14"/><use x="414.02" xlink:href="#m52eecef199" y="43.2" stroke="#000" stroke-width=".5" id="line2d_15"/><g transform="matrix(.12 0 0 -.12 398.75 401.918)" id="text_6"><use xlink:href="#BitstreamVeraSans-Roman-32"/><use x="63.62" xlink:href="#BitstreamVeraSans-Roman-30"/><use x="127.25" xlink:href="#BitstreamVeraSans-Roman-32"/><use x="190.87" xlink:href="#BitstreamVeraSans-Roman-31"/></g></g><g id="xtick_7"><use x="471.01" xlink:href="#m955611962a" y="388.8" stroke="#000" stroke-width=".5" id="line2d_16"/><use x="471.01" xlink:href="#m52eecef199" y="43.2" stroke="#000" stroke-width=".5" id="line2d_17"/><g transform="matrix(.12 0 0 -.12 455.74 401.918)" id="text_7"><use xlink:href="#BitstreamVeraSans-Roman-32"/><use x="63.62" xlink:href="#BitstreamVeraSans-Roman-30"/><use x="127.25" xlink:href="#BitstreamVeraSans-Roman-32"/><use x="190.87" xlink:href="#BitstreamVeraSans-Roman-33"/></g></g><g id="text_8"><defs><path d="M9.42 54.7h9V0h-9zm0 21.28h9v-11.4h-9z" id="BitstreamVeraSans-Roman-69"/><path d="M56.2 29.6v-4.4H14.9q.58-9.28 5.58-14.14 5-4.86 13.94-4.86 5.17 0 10.03 1.27 4.86 1.26 9.66 3.8v-8.5Q49.28.74 44.2-.32q-5.1-1.1-10.3-1.1-13.1 0-20.74 7.62-7.64 7.6-7.64 20.6 0 13.43 7.25 21.3Q20.02 56 32.33 56q11.03 0 17.45-7.1t6.42-19.3m-8.98 2.63q-.1 7.36-4.13 11.75-4.04 4.4-10.68 4.4-7.5 0-12.03-4.24-4.52-4.25-5.2-11.97z" id="BitstreamVeraSans-Roman-65"/><path d="M-.3 72.9h61.67v-8.3H35.5V0h-9.9v64.6H-.3z" id="BitstreamVeraSans-Roman-54"/><path d="M52 44.2q3.38 6.05 8.06 8.92Q64.76 56 71.1 56q8.54 0 13.18-5.98 4.64-5.97 4.64-17V0H79.9v32.72q0 7.86-2.8 11.66t-8.5 3.8q-6.97 0-11.04-4.63-4.04-4.63-4.04-12.64V0h-9.04v32.72q0 7.9-2.78 11.7-2.78 3.77-8.6 3.77-6.88 0-10.94-4.67-4.05-4.66-4.05-12.62V0H9.1v54.7h9.03v-8.5q3.1 5.02 7.38 7.4 4.3 2.4 10.2 2.4 5.98 0 10.15-3.03Q50 49.95 52 44.2" id="BitstreamVeraSans-Roman-6d"/></defs><g transform="matrix(.15 0 0 -.15 276.62 420.81)"><use xlink:href="#BitstreamVeraSans-Roman-54"/><use x="61.04" xlink:href="#BitstreamVeraSans-Roman-69"/><use x="88.82" xlink:href="#BitstreamVeraSans-Roman-6d"/><use x="186.23" xlink:href="#BitstreamVeraSans-Roman-65"/></g></g></g><g id="matplotlib.axis_2"><g id="ytick_1"><g id="line2d_18"><defs><path d="M0 0h4" id="m07d51f147f" stroke="#000" stroke-width=".5"/></defs><use x="72" xlink:href="#m07d51f147f" y="372.34" stroke="#000" stroke-width=".5"/></g><g id="line2d_19"><defs><path d="M0 0h-4" id="m2b9aca18df" stroke="#000" stroke-width=".5"/></defs><use x="518.4" xlink:href="#m2b9aca18df" y="372.34" stroke="#000" stroke-width=".5"/></g><use xlink:href="#BitstreamVeraSans-Roman-30" transform="matrix(.12 0 0 -.12 60.365 375.654)" id="text_9"/></g><g id="ytick_2"><use x="72" xlink:href="#m07d51f147f" y="290.06" stroke="#000" stroke-width=".5" id="line2d_20"/><use x="518.4" xlink:href="#m2b9aca18df" y="290.06" stroke="#000" stroke-width=".5" id="line2d_21"/><g transform="matrix(.12 0 0 -.12 45.095 293.368)" id="text_10"><use xlink:href="#BitstreamVeraSans-Roman-35"/><use x="63.62" xlink:href="#BitstreamVeraSans-Roman-30"/><use x="127.25" xlink:href="#BitstreamVeraSans-Roman-30"/></g></g><g id="ytick_3"><use x="72" xlink:href="#m07d51f147f" y="207.77" stroke="#000" stroke-width=".5" id="line2d_22"/><use x="518.4" xlink:href="#m2b9aca18df" y="207.77" stroke="#000" stroke-width=".5" id="line2d_23"/><g transform="matrix(.12 0 0 -.12 37.46 211.083)" id="text_11"><use xlink:href="#BitstreamVeraSans-Roman-31"/><use x="63.62" xlink:href="#BitstreamVeraSans-Roman-30"/><use x="127.25" xlink:href="#BitstreamVeraSans-Roman-30"/><use x="190.87" xlink:href="#BitstreamVeraSans-Roman-30"/></g></g><g id="ytick_4"><use x="72" xlink:href="#m07d51f147f" y="125.49" stroke="#000" stroke-width=".5" id="line2d_24"/><use x="518.4" xlink:href="#m2b9aca18df" y="125.49" stroke="#000" stroke-width=".5" id="line2d_25"/><g transform="matrix(.12 0 0 -.12 37.46 128.797)" id="text_12"><use xlink:href="#BitstreamVeraSans-Roman-31"/><use x="63.62" xlink:href="#BitstreamVeraSans-Roman-35"/><use x="127.25" xlink:href="#BitstreamVeraSans-Roman-30"/><use x="190.87" xlink:href="#BitstreamVeraSans-Roman-30"/></g></g><g id="ytick_5"><use x="72" xlink:href="#m07d51f147f" y="43.2" stroke="#000" stroke-width=".5" id="line2d_26"/><use x="518.4" xlink:href="#m2b9aca18df" y="43.2" stroke="#000" stroke-width=".5" id="line2d_27"/><g transform="matrix(.12 0 0 -.12 37.46 46.51)" id="text_13"><use xlink:href="#BitstreamVeraSans-Roman-32"/><use x="63.62" xlink:href="#BitstreamVeraSans-Roman-30"/><use x="127.25" xlink:href="#BitstreamVeraSans-Roman-30"/><use x="190.87" xlink:href="#BitstreamVeraSans-Roman-30"/></g></g><g id="text_14"><defs><path d="M54.9 33.02V0h-9v32.72q0 7.76-3.02 11.6-3.04 3.87-9.08 3.87-7.28 0-11.5-4.65-4.2-4.63-4.2-12.64V0H9.1v54.7h9.03v-8.5q3.24 4.92 7.6 7.36Q30.08 56 35.8 56q9.42 0 14.25-5.83 4.84-5.83 4.84-17.15" id="BitstreamVeraSans-Roman-6e"/><path d="M9.08 75.98h9.03V31.1l26.82 23.6H56.4l-29-25.6L57.62 0H45.9L18.1 26.7V0H9.1z" id="BitstreamVeraSans-Roman-6b"/><path d="M19.67 34.8V8.1H35.5q7.95 0 11.78 3.3 3.84 3.3 3.84 10.08 0 6.85-3.84 10.08-3.83 3.25-11.78 3.25zm0 30V42.83h14.6q7.23 0 10.76 2.7 3.55 2.72 3.55 8.28 0 5.53-3.55 8.26-3.53 2.74-10.75 2.74zM9.8 72.9h25.22q11.28 0 17.37-4.68 6.1-4.7 6.1-13.33 0-6.7-3.13-10.67-3.12-3.95-9.18-4.92 7.27-1.55 11.3-6.52 4.03-4.95 4.03-12.37 0-9.76-6.64-15.1Q48.24 0 35.97 0H9.8z" id="BitstreamVeraSans-Roman-42"/><path d="M44.28 53.08v-8.5q-3.8 1.95-7.9 2.92-4.1.98-8.5.98-6.7 0-10.04-2.04-3.34-2.05-3.34-6.16 0-3.12 2.4-4.9 2.38-1.8 9.62-3.4l3.07-.68q9.56-2.05 13.6-5.78 4.02-3.74 4.02-10.43 0-7.63-6.03-12.08-6.04-4.44-16.6-4.44-4.38 0-9.15.86Q10.7.3 5.42 2v9.28q5-2.6 9.8-3.9 4.84-1.27 9.6-1.27 6.34 0 9.74 2.18 3.42 2.17 3.42 6.13 0 3.66-2.46 5.62-2.46 1.95-10.82 3.76l-3.12.74q-8.35 1.75-12.06 5.4-3.7 3.63-3.7 9.97 0 7.7 5.46 11.9Q16.75 56 26.8 56q4.98 0 9.37-.73 4.4-.72 8.1-2.2" id="BitstreamVeraSans-Roman-73"/><path d="M54.9 33.02V0h-9v32.72q0 7.76-3.02 11.6-3.04 3.87-9.08 3.87-7.28 0-11.5-4.65-4.2-4.63-4.2-12.64V0H9.1v75.98h9.03v-29.8q3.24 4.95 7.6 7.38Q30.08 56 35.8 56q9.42 0 14.25-5.83 4.84-5.83 4.84-17.15" id="BitstreamVeraSans-Roman-68"/><path d="M59.52 10.4V30h-16.1v8.1h25.86V6.8q-5.7-4.05-12.6-6.12Q49.82-1.42 42-1.42q-17.1 0-26.75 9.98-9.64 10-9.64 27.8 0 17.9 9.65 27.87 9.66 10 26.75 10 7.13 0 13.55-1.78 6.42-1.75 11.84-5.17v-10.5q-5.48 4.64-11.63 7-6.16 2.33-12.94 2.33-13.4 0-20.1-7.46-6.7-7.47-6.7-22.27 0-14.74 6.7-22.2 6.7-7.48 20.1-7.48 5.22 0 9.3.9 4.12.9 7.4 2.8" id="BitstreamVeraSans-Roman-47"/><path d="M48.78 52.6v-8.4q-3.8 2.1-7.64 3.14-3.83 1.05-7.73 1.05-8.74 0-13.6-5.56Q15 37.3 15 27.3q0-10.02 4.83-15.57Q24.67 6.2 33.4 6.2q3.9 0 7.74 1.05 3.83 1.05 7.64 3.16V2.1Q45.02.33 40.98-.54q-4-.9-8.56-.9-12.36 0-19.64 7.77Q5.52 14.1 5.52 27.3q0 13.37 7.34 21.03Q20.22 56 33.02 56q4.14 0 8.1-.86 3.94-.84 7.66-2.55" id="BitstreamVeraSans-Roman-63"/><path d="M30.6 48.4q-7.2 0-11.4-5.65-4.22-5.64-4.22-15.45 0-9.82 4.18-15.46Q23.34 6.2 30.6 6.2q7.2 0 11.38 5.66 4.2 5.67 4.2 15.44 0 9.72-4.2 15.4-4.18 5.7-11.37 5.7m0 7.6q11.73 0 18.42-7.63 6.7-7.6 6.7-21.07 0-13.43-6.7-21.08-6.7-7.64-18.4-7.64-11.78 0-18.45 7.64-6.65 7.66-6.65 21.08 0 13.47 6.65 21.07Q18.84 56 30.6 56" id="BitstreamVeraSans-Roman-6f"/><path d="M5.52 54.7H48.2v-8.22L14.4 7.18h33.8V0H4.3v8.2l33.8 39.32H5.5z" id="BitstreamVeraSans-Roman-7a"/><path d="M9.42 75.98h9V0h-9z" id="BitstreamVeraSans-Roman-6c"/><path d="M34.28 27.48q-10.9 0-15.1-2.48-4.2-2.48-4.2-8.5 0-4.78 3.16-7.6 3.16-2.8 8.56-2.8 7.5 0 12 5.3 4.52 5.3 4.52 14.08v2zM52.2 31.2V0h-8.98v8.3Q40.14 3.33 35.55.95q-4.6-2.37-11.24-2.37-8.38 0-13.35 4.72Q6 8.02 6 15.92q0 9.22 6.17 13.9 6.2 4.7 18.44 4.7h12.62v.9q0 6.2-4.08 9.58-4.08 3.4-11.45 3.4-4.7 0-9.15-1.13-4.44-1.13-8.53-3.38v8.3q4.92 1.9 9.56 2.85 4.64.95 9.03.95 11.88 0 17.74-6.16Q52.2 43.7 52.2 31.2" id="BitstreamVeraSans-Roman-61"/></defs><g transform="matrix(0 -.15 -.15 0 29.34 296.08)"><use xlink:href="#BitstreamVeraSans-Roman-42"/><use x="68.6" xlink:href="#BitstreamVeraSans-Roman-6c"/><use x="96.39" xlink:href="#BitstreamVeraSans-Roman-6f"/><use x="157.57" xlink:href="#BitstreamVeraSans-Roman-63"/><use x="212.55" xlink:href="#BitstreamVeraSans-Roman-6b"/><use x="270.46" xlink:href="#BitstreamVeraSans-Roman-63"/><use x="325.44" xlink:href="#BitstreamVeraSans-Roman-68"/><use x="388.82" xlink:href="#BitstreamVeraSans-Roman-61"/><use x="450.1" xlink:href="#BitstreamVeraSans-Roman-69"/><use x="477.88" xlink:href="#BitstreamVeraSans-Roman-6e"/><use x="541.26" xlink:href="#BitstreamVeraSans-Roman-20"/><use x="573.05" xlink:href="#BitstreamVeraSans-Roman-73"/><use x="625.15" xlink:href="#BitstreamVeraSans-Roman-69"/><use x="652.93" xlink:href="#BitstreamVeraSans-Roman-7a"/><use x="705.42" xlink:href="#BitstreamVeraSans-Roman-65"/><use x="766.94" xlink:href="#BitstreamVeraSans-Roman-20"/><use x="798.73" xlink:href="#BitstreamVeraSans-Roman-69"/><use x="826.51" xlink:href="#BitstreamVeraSans-Roman-6e"/><use x="889.89" xlink:href="#BitstreamVeraSans-Roman-20"/><use x="921.68" xlink:href="#BitstreamVeraSans-Roman-47"/><use x="999.17" xlink:href="#BitstreamVeraSans-Roman-42"/></g></g></g><g id="text_15"><defs><path d="M18.3 70.22V54.7h18.5v-7H18.3V18.02q0-6.7 1.84-8.6 1.83-1.9 7.45-1.9h9.2V0h-9.2Q17.2 0 13.22 3.88q-3.95 3.9-3.95 14.14V47.7h-6.6v7h6.6V70.2z" id="BitstreamVeraSans-Roman-74"/><path d="M45.4 27.98q0 9.77-4.02 15.13-4.02 5.38-11.3 5.38-7.22 0-11.25-5.37Q14.8 37.76 14.8 28q0-9.7 4.03-15.1 4.03-5.36 11.25-5.36 7.28 0 11.3 5.37 4.03 5.37 4.03 15.08m9-21.2q0-13.95-6.2-20.76-6.2-6.82-19-6.82-4.73 0-8.93.7-4.2.7-8.16 2.18v8.73q3.96-2.13 7.82-3.14 3.86-1.04 7.86-1.04 8.84 0 13.24 4.6 4.4 4.62 4.4 13.95v4.46q-2.8-4.85-7.14-7.24Q33.94 0 27.88 0q-10.05 0-16.2 7.66Q5.5 15.33 5.5 27.98q0 12.7 6.15 20.35Q17.83 56 27.87 56q6.07 0 10.4-2.4 4.35-2.38 7.14-7.2v8.3h9z" id="BitstreamVeraSans-Roman-67"/></defs><g transform="matrix(.2 0 0 -.2 152.708 38.2)"><use xlink:href="#BitstreamVeraSans-Roman-42"/><use x="68.6" xlink:href="#BitstreamVeraSans-Roman-6c"/><use x="96.39" xlink:href="#BitstreamVeraSans-Roman-6f"/><use x="157.57" xlink:href="#BitstreamVeraSans-Roman-63"/><use x="212.55" xlink:href="#BitstreamVeraSans-Roman-6b"/><use x="270.46" xlink:href="#BitstreamVeraSans-Roman-63"/><use x="325.44" xlink:href="#BitstreamVeraSans-Roman-68"/><use x="388.82" xlink:href="#BitstreamVeraSans-Roman-61"/><use x="450.1" xlink:href="#BitstreamVeraSans-Roman-69"/><use x="477.88" xlink:href="#BitstreamVeraSans-Roman-6e"/><use x="541.26" xlink:href="#BitstreamVeraSans-Roman-20"/><use x="573.05" xlink:href="#BitstreamVeraSans-Roman-73"/><use x="625.15" xlink:href="#BitstreamVeraSans-Roman-69"/><use x="652.93" xlink:href="#BitstreamVeraSans-Roman-7a"/><use x="705.42" xlink:href="#BitstreamVeraSans-Roman-65"/><use x="766.94" xlink:href="#BitstreamVeraSans-Roman-20"/><use x="798.73" xlink:href="#BitstreamVeraSans-Roman-61"/><use x="860.01" xlink:href="#BitstreamVeraSans-Roman-67"/><use x="923.49" xlink:href="#BitstreamVeraSans-Roman-61"/><use x="984.77" xlink:href="#BitstreamVeraSans-Roman-69"/><use x="1012.55" xlink:href="#BitstreamVeraSans-Roman-6e"/><use x="1075.93" xlink:href="#BitstreamVeraSans-Roman-73"/><use x="1128.03" xlink:href="#BitstreamVeraSans-Roman-74"/><use x="1167.24" xlink:href="#BitstreamVeraSans-Roman-20"/><use x="1199.02" xlink:href="#BitstreamVeraSans-Roman-74"/><use x="1238.23" xlink:href="#BitstreamVeraSans-Roman-69"/><use x="1266.02" xlink:href="#BitstreamVeraSans-Roman-6d"/><use x="1363.43" xlink:href="#BitstreamVeraSans-Roman-65"/></g></g><g id="legend_1"><path d="M79.2 118.13h163.92V50.4H79.2z" fill="#fff" stroke="#000" id="patch_7"/><path d="M89.28 62.06h20.16" fill="none" stroke="#000" stroke-linecap="square" stroke-width="1.5" id="line2d_28"/><g id="text_16"><defs><path d="M41.1 46.3q-1.5.87-3.3 1.28-1.77.42-3.9.42-7.63 0-11.7-4.95-4.1-4.96-4.1-14.24V0H9.1v54.7h9.03v-8.5q2.85 4.97 7.38 7.38Q30.03 56 36.53 56q.92 0 2.05-.13 1.12-.1 2.48-.35z" id="BitstreamVeraSans-Roman-72"/><path d="M45.4 46.4v29.58h9V0h-9v8.2Q42.6 3.33 38.26.95q-4.3-2.37-10.38-2.37-9.9 0-16.14 7.9-6.2 7.93-6.2 20.82 0 12.9 6.2 20.8Q17.97 56 27.87 56q6.07 0 10.38-2.38 4.33-2.35 7.16-7.23M14.8 27.3q0-9.9 4.07-15.55 4.08-5.64 11.2-5.64 7.13 0 11.23 5.65 4.1 5.64 4.1 15.55 0 9.9-4.1 15.54-4.1 5.64-11.22 5.64-7.13 0-11.2-5.64Q14.8 37.2 14.8 27.3" id="BitstreamVeraSans-Roman-64"/><path d="M8.5 21.58v33.1h8.98V21.93q0-7.76 3.02-11.65 3.03-3.88 9.1-3.88 7.26 0 11.48 4.63 4.23 4.64 4.23 12.66v31h9V0h-9v8.4Q42.06 3.43 37.73 1q-4.3-2.42-10.03-2.42-9.43 0-14.32 5.86Q8.5 10.3 8.5 21.58" id="BitstreamVeraSans-Roman-75"/><path d="M64.4 67.28v-10.4q-4.98 4.65-10.62 6.93-5.64 2.3-11.98 2.3-12.5 0-19.14-7.63-6.64-7.64-6.64-22.1 0-14.4 6.64-22.04Q29.3 6.7 41.8 6.7q6.34 0 11.98 2.28 5.64 2.3 10.63 6.94V5.62Q59.24 2.08 53.45.3 47.66-1.4 41.22-1.4q-16.56 0-26.1 10.12-9.5 10.14-9.5 27.68 0 17.57 9.5 27.7 9.54 10.14 26.1 10.14 6.53 0 12.3-1.74 5.8-1.73 10.9-5.2" id="BitstreamVeraSans-Roman-43"/><path d="M9.8 72.9h41.9v-8.3H19.67V43.1h28.9v-8.3h-28.9V0H9.8z" id="BitstreamVeraSans-Roman-46"/><path d="M2.98 54.7h9.52L29.6 8.8l17.1 45.9h9.5L35.7 0H23.47z" id="BitstreamVeraSans-Roman-76"/></defs><g transform="matrix(.144 0 0 -.144 125.28 67.102)"><use xlink:href="#BitstreamVeraSans-Roman-46"/><use x="57.41" xlink:href="#BitstreamVeraSans-Roman-69"/><use x="85.19" xlink:href="#BitstreamVeraSans-Roman-74"/><use x="124.4" xlink:href="#BitstreamVeraSans-Roman-74"/><use x="163.61" xlink:href="#BitstreamVeraSans-Roman-65"/><use x="225.13" xlink:href="#BitstreamVeraSans-Roman-64"/><use x="288.61" xlink:href="#BitstreamVeraSans-Roman-20"/><use x="320.4" xlink:href="#BitstreamVeraSans-Roman-43"/><use x="390.22" xlink:href="#BitstreamVeraSans-Roman-75"/><use x="453.6" xlink:href="#BitstreamVeraSans-Roman-72"/><use x="494.71" xlink:href="#BitstreamVeraSans-Roman-76"/><use x="553.89" xlink:href="#BitstreamVeraSans-Roman-65"/></g></g><path d="M89.28 83.2h20.16" fill="none" stroke="red" stroke-linecap="square" stroke-width="1.5" id="line2d_30"/><g id="text_17"><defs><path d="M53.52 70.52V60.9q-5.6 2.68-10.6 4-4.98 1.32-9.62 1.32-8.05 0-12.42-3.13-4.38-3.13-4.38-8.9 0-4.84 2.9-7.3t11.02-3.98l5.95-1.22q11.04-2.1 16.3-7.4Q57.9 29 57.9 20.13q0-10.6-7.1-16.08-7.1-5.47-20.82-5.47-5.17 0-11 1.17Q13.13.92 6.87 3.22v10.15q6-3.35 11.78-5.07 5.76-1.7 11.32-1.7 8.44 0 13.04 3.3 4.6 3.33 4.6 9.5 0 5.35-3.3 8.38Q41 30.8 33.5 32.33l-6.02 1.17q-11.03 2.2-15.96 6.88Q6.6 45.05 6.6 53.41q0 9.67 6.8 15.24 6.82 5.56 18.77 5.56 5.14 0 10.45-.94 5.33-.92 10.9-2.76" id="BitstreamVeraSans-Roman-53"/></defs><g transform="matrix(.144 0 0 -.144 125.28 88.238)"><use xlink:href="#BitstreamVeraSans-Roman-42"/><use x="68.6" xlink:href="#BitstreamVeraSans-Roman-6c"/><use x="96.39" xlink:href="#BitstreamVeraSans-Roman-6f"/><use x="157.57" xlink:href="#BitstreamVeraSans-Roman-63"/><use x="212.55" xlink:href="#BitstreamVeraSans-Roman-6b"/><use x="270.46" xlink:href="#BitstreamVeraSans-Roman-63"/><use x="325.44" xlink:href="#BitstreamVeraSans-Roman-68"/><use x="388.82" xlink:href="#BitstreamVeraSans-Roman-61"/><use x="450.1" xlink:href="#BitstreamVeraSans-Roman-69"/><use x="477.88" xlink:href="#BitstreamVeraSans-Roman-6e"/><use x="541.26" xlink:href="#BitstreamVeraSans-Roman-20"/><use x="573.05" xlink:href="#BitstreamVeraSans-Roman-53"/><use x="636.52" xlink:href="#BitstreamVeraSans-Roman-69"/><use x="664.31" xlink:href="#BitstreamVeraSans-Roman-7a"/><use x="716.8" xlink:href="#BitstreamVeraSans-Roman-65"/></g></g><path d="M89.28 104.33h20.16" fill="none" stroke="#00f" stroke-linecap="square" stroke-width="1.5" id="line2d_32"/><g transform="matrix(.144 0 0 -.144 125.28 109.375)" id="text_18"><use xlink:href="#BitstreamVeraSans-Roman-31"/><use x="63.62" xlink:href="#BitstreamVeraSans-Roman-20"/><use x="95.41" xlink:href="#BitstreamVeraSans-Roman-54"/><use x="156.49" xlink:href="#BitstreamVeraSans-Roman-42"/></g></g></g></g><defs><clipPath id="p17935bc9dd"><path d="M72 43.2h446.4v345.6H72z"/></clipPath></defs></svg>