<svg xmlns="http://www.w3.org/2000/svg" xmlns:xlink="http://www.w3.org/1999/xlink" viewBox="0 0 535 391"><defs><style>*{stroke-linecap:butt;stroke-linejoin:round;stroke-miterlimit:100000;}</style><path id="y" stroke="#3572a4" d="M73.62-35.1v12.3H520v-293.4l-7 48.7-7 58.2-6.7-40.1-7 16.5-6.8-128.5-7 131.1-6.9 122.6-6.8-3-7-7.5-6.8 8.5-7 6.1-6.5 5.9-7 14.17-7 7.26-6.7-21.2-7-4.14-6.8 16.1-7 20.5-7 2.5-6.7.5-7 3.4-6.8-9.8-7 10.7-6.3 11.4-7 3.9-7 3.3-6.7-3.4-7-2.8-6.8 3.7-7 4.56-7 2.53-6.7.7-7-.08-6.8-.66-7 .15-6.3 2.57-7 .87-7 2.93-6.7-1.43-7-1.78-6.8 1.5-7 2.8-6.9.53-6.8.4-7-.6-6.8-.3-7 .9-6.3.7-7 .32-6.9.73-6.8-.6-7-.1-6.8.1-6.9.34-7 .3-6.8-.08-7 .08-6.8-.22-6.9.2-6.6.37h-7L94.14-24l-6.76-.1-7-1.5-6.76-10.02z"/><path id="g" stroke="#000" stroke-width=".5" d="M0 0v-4"/><path id="h" stroke="#000" stroke-width=".5" d="M0 0v4"/><path id="e" d="M19.2 8.3h34.4V0H7.34v8.3q5.6 5.8 15.3 15.6 9.7 9.8 12.18 12.63 4.75 5.3 6.62 9 1.9 3.7 1.9 7.25 0 5.8-4.1 9.47-4.06 3.67-10.6 3.67-4.65 0-9.8-1.6-5.15-1.62-11-4.9v9.97q5.96 2.3 11.12 3.6 5.18 1.2 9.48 1.2 11.33 0 18.06-5.7 6.74-5.7 6.74-15.2 0-4.5-1.7-8.6-1.66-4-6.1-9.5-1.23-1.4-7.78-8.2L19.2 8.3"/><path id="b" d="M12.4 8.3h16.12v55.62l-17.54-3.5v8.97l17.44 3.5h9.86V8.3h16.1V0H12.42z"/><path id="a" d="M31.78 66.4q-7.6 0-11.45-7.5-3.83-7.48-3.83-22.52 0-15 3.83-22.5 3.84-7.5 11.45-7.5 7.67 0 11.5 7.5 3.84 7.5 3.84 22.5 0 15.04-3.84 22.53-3.83 7.5-11.5 7.5m0 7.9q12.27 0 18.74-9.7 6.46-9.7 6.46-28.1 0-18.4-6.46-28.1-6.47-9.7-18.74-9.7-12.25 0-18.72 9.7Q6.6 18 6.6 36.4q0 18.44 6.45 28.13 6.47 9.7 18.72 9.7"/><path id="ag" d="M40.58 39.3q7.08-1.5 11.04-6.3 4-4.78 4-11.8 0-10.8-7.43-16.72-7.5-5.9-21.1-5.9-4.6 0-9.5.9T7.6 2.2v9.52q4.1-2.4 8.97-3.6Q21.44 6.9 26.8 6.9q9.27 0 14.13 3.64Q45.8 14.2 45.8 21.2q0 6.44-4.52 10.07-4.5 3.64-12.56 3.64h-8.5v8.2h8.9q7.26 0 11.1 2.9 3.87 2.9 3.87 8.4 0 5.6-4 8.6t-11.4 3q-4.1 0-8.7-.9-4.7-.8-10.2-2.7v8.8q5.6 1.6 10.5 2.4t9.2.8q11.2 0 17.7-5.1 6.7-5.3 6.7-14 0-6-3.5-10.2-3.5-4.2-9.9-5.8"/><path id="o" d="M37.8 64.3L12.9 25.4h24.9zm-2.6 8.6h12.4V25.4h10.42v-8.2h-10.4V0H37.8v17.2H4.9v9.5z"/><path id="af" d="M10.8 72.9h38.72v-8.3h-29.7V46.72q2.15.74 4.3 1.1 2.15.36 4.3.36 12.2 0 19.33-6.7 7.14-6.7 7.14-18.1 0-11.78-7.4-18.3-7.3-6.52-20.6-6.52-4.6 0-9.4.78T7.7 1.7v9.92q4.4-2.4 9.08-3.56 4.7-1.17 9.9-1.17 8.47 0 13.4 4.4t4.93 12-4.9 12q-4.9 4.4-13.4 4.4-3.9 0-7.9-.9-3.9-.9-8-2.8z"/><path id="n" d="M33.02 40.38q-6.64 0-10.54-4.55Q18.6 31.3 18.6 23.4q0-7.87 3.88-12.45 3.9-4.56 10.54-4.56t10.5 4.5q3.9 4.6 3.9 12.4 0 7.9-3.9 12.4-3.86 4.5-10.5 4.5m19.58 31v-9q-3.72 1.8-7.5 2.7-3.8.9-7.5.9-9.77 0-14.93-6.6-5.14-6.6-5.87-19.9 2.87 4.2 7.22 6.5Q28.38 48 33.6 48q10.9 0 17.3-6.7t6.4-18.18q0-11.2-6.7-18Q44-1.4 33-1.4q-12.66 0-19.35 9.7-6.7 9.7-6.7 28.1 0 17.28 8.22 27.56 8.2 10.28 22 10.28 3.72 0 7.5-.74 3.78-.73 7.9-2.18"/><path id="ae" d="M8.2 72.9h46.88v-4.2L28.6 0H18.3l24.92 64.6H8.2z"/><path id="d" stroke="#000" stroke-width=".5" d="M0 0h4"/><path id="c" stroke="#000" stroke-width=".5" d="M0 0h-4"/><path id="ad" d="M31.78 34.62q-7.03 0-11.06-3.76-4.02-3.77-4.02-10.34 0-6.6 4.02-10.36Q24.75 6.4 31.78 6.4t11.08 3.77q4.06 3.8 4.06 10.35 0 6.57-4.03 10.34-4.1 3.76-11.2 3.76m-9.9 4.2q-6.4 1.56-9.9 5.9-3.5 4.36-3.5 10.6 0 8.74 6.2 13.82t17 5.08q10.9 0 17.1-5.08 6.2-5.08 6.2-13.8 0-6.26-3.6-10.62-3.58-4.34-9.88-5.9 7.1-1.66 11.1-6.5 3.95-4.84 3.95-11.8 0-10.6-6.5-16.3Q43.82-1.4 31.8-1.4T13.27 4.25Q6.8 9.93 6.8 20.55q0 6.95 4 11.78 4.02 4.86 11.14 6.5m-3.6 15.6q0-5.67 3.52-8.84 3.55-3.2 9.94-3.2 6.36 0 9.94 3.1 3.6 3.1 3.6 8.8t-3.6 8.8q-3.58 3.2-9.94 3.2-6.4 0-9.94-3.2-3.53-3.2-3.53-8.9"/><path id="v" d="M9.8 72.9h13.3l32.3-60.97v61h9.56V0H51.7L19.4 60.98V0H9.8z"/><path id="t" d="M48.7 27.3q0 9.9-4.1 15.54t-11.2 5.64q-7.13 0-11.2-5.64T18.1 27.3q0-9.9 4.1-15.55Q26.26 6.1 33.4 6.1q7.13 0 11.2 5.65 4.1 5.64 4.1 15.55M18.1 46.4q2.85 4.87 7.17 7.22Q29.6 56 35.6 56q9.96 0 16.18-7.9 6.24-7.9 6.24-20.8T51.78 6.48q-6.22-7.9-16.2-7.9-6 0-10.3 2.37T18.1 8.2V0h-9v75.98h9.03z"/><path id="q" d="M8.5 21.58v33.1h8.98V21.93q0-7.76 3.02-11.65 3.03-3.88 9.1-3.88 7.26 0 11.48 4.63 4.23 4.64 4.23 12.66v31h9V0h-9v8.4Q42.1 3.43 37.8 1q-4.3-2.42-10.03-2.42-9.42 0-14.3 5.86-4.9 5.86-4.9 17.14"/><path id="r" d="M37.1 75.98V68.5h-8.58q-4.83 0-6.72-1.95-1.88-1.96-1.88-7.03V54.7h14.8v-7h-14.8V0H10.9v47.7H2.3v7h8.6v3.8q0 9.12 4.24 13.3t13.47 4.18z"/><path id="i" d="M30.6 48.4q-7.2 0-11.4-5.65-4.22-5.64-4.22-15.45 0-9.82 4.18-15.46Q23.34 6.2 30.6 6.2q7.2 0 11.38 5.66 4.2 5.67 4.2 15.44 0 9.72-4.2 15.4-4.18 5.7-11.37 5.7m0 7.6q11.8 0 18.5-7.62 6.7-7.6 6.7-21.08 0-13.42-6.7-21.08-6.7-7.64-18.4-7.64-11.8 0-18.4 7.64-6.7 7.66-6.7 21.08 0 13.47 6.7 21.08Q18.9 56 30.6 56"/><path id="j" d="M44.28 53.08v-8.5q-3.8 1.95-7.9 2.92-4.1.98-8.5.98-6.7 0-10.04-2.04-3.34-2.05-3.34-6.16 0-3.12 2.4-4.9 2.38-1.8 9.62-3.4l3.07-.68q9.5-2.05 13.6-5.78 4-3.74 4-10.43 0-7.7-6.1-12.1-6-4.5-16.6-4.5-4.4 0-9.2.8Q10.7.3 5.4 2v9.28q5-2.6 9.8-3.9 4.84-1.27 9.6-1.27 6.34 0 9.74 2.2Q38 10.5 38 14.5q0 3.66-2.47 5.62-2.47 1.9-10.83 3.7l-3.12.74q-8.35 1.75-12.06 5.4-3.7 3.63-3.7 9.97 0 7.7 5.46 11.9Q16.75 56 26.8 56q4.98 0 9.37-.73 4.4-.72 8.1-2.2"/><path id="m" d="M52 44.2q3.38 6.05 8.06 8.92Q64.76 56 71.1 56q8.54 0 13.18-5.98 4.64-5.97 4.64-17V0H79.9v32.72q0 7.86-2.8 11.66t-8.5 3.8q-6.98 0-11.04-4.63-4.04-4.63-4.04-12.64V0h-9.04v32.72q0 7.9-2.78 11.7-2.78 3.77-8.6 3.77-6.88 0-10.94-4.7-4.05-4.7-4.05-12.6V0h-9v54.7h9.1v-8.5q3.1 5.02 7.4 7.4Q29.8 56 35.7 56q6 0 10.16-3.03Q50 49.95 52 44.2"/><path id="k" d="M45.4 46.4v29.58h9V0h-9v8.2Q42.6 3.33 38.26.95q-4.3-2.37-10.37-2.37-9.9 0-16.2 7.9Q5.5 14.4 5.5 27.3t6.2 20.8Q17.98 56 27.9 56q6.06 0 10.37-2.38 4.33-2.35 7.16-7.23M14.8 27.3q0-9.9 4.08-15.55 4.07-5.64 11.2-5.64 7.12 0 11.22 5.7 4.1 5.7 4.1 15.6 0 9.9-4.1 15.6-4.1 5.7-11.22 5.7-7.13 0-11.2-5.6-4.08-5.7-4.08-15.6"/><path id="u" d="M34.28 27.48q-10.9 0-15.1-2.48-4.2-2.48-4.2-8.5 0-4.78 3.16-7.6 3.16-2.8 8.56-2.8 7.5 0 12 5.3 4.52 5.3 4.52 14.08v2zM52.2 31.2V0h-8.98v8.3Q40.14 3.33 35.55.95q-4.6-2.37-11.24-2.37Q16-1.42 11 3.3T6 15.92q0 9.22 6.2 13.9 6.2 4.7 18.43 4.7H43.3v.9q0 6.2-4.1 9.58t-11.5 3.4q-4.7 0-9.14-1.13t-8.53-3.38v8.3q4.92 1.9 9.56 2.8 4.6.9 9 .9 11.9 0 17.8-6.2 5.8-6.1 5.8-18.6"/><path id="p" d="M2.98 54.7h9.52L29.6 8.8l17.1 45.9h9.5L35.7 0H23.47z"/><path id="f" d="M56.2 29.6v-4.4H14.9q.58-9.28 5.58-14.14 5-4.86 13.94-4.86 5.17 0 10.03 1.27 4.86 1.26 9.66 3.8v-8.5Q49.3.74 44.2-.33t-10.3-1.1q-13.1 0-20.74 7.63-7.64 7.6-7.64 20.6 0 13.43 7.25 21.3Q20.02 56 32.33 56q11.03 0 17.45-7.1t6.42-19.3m-8.98 2.63q-.1 7.36-4.13 11.75-4.1 4.4-10.7 4.4-7.5 0-12.1-4.24-4.5-4.25-5.2-11.97z"/><path id="w" d="M17.92 72.9V45.8h-8.3v27.1z"/><path id="s" d="M48.78 52.6v-8.4q-3.8 2.1-7.64 3.14-3.83 1.05-7.73 1.05-8.7 0-13.6-5.6Q15 37.3 15 27.3q0-10.02 4.83-15.57Q24.67 6.2 33.4 6.2q3.9 0 7.74 1.05t7.64 3.16V2.1Q45.02.33 40.98-.54q-4-.9-8.56-.9-12.36 0-19.64 7.77Q5.52 14.1 5.52 27.3q0 13.37 7.34 21.03Q20.22 56 33.02 56q4.14 0 8.1-.86 3.94-.84 7.66-2.55"/><path id="l" d="M41.1 46.3q-1.5.87-3.3 1.28-1.77.42-3.9.42-7.63 0-11.7-4.95-4.1-4.96-4.1-14.24V0h-9v54.7h9.03v-8.5q2.85 4.97 7.38 7.38Q30.1 56 36.6 56q.92 0 2.05-.12 1.1-.1 2.48-.36z"/><path id="aa" d="M18.1 8.2v-29h-9v75.5h9.03v-8.3q2.85 4.87 7.17 7.22Q29.6 56 35.6 56q9.96 0 16.18-7.9 6.24-7.9 6.24-20.8T51.78 6.48q-6.22-7.9-16.2-7.9-6 0-10.3 2.38T18.1 8.2m30.6 19.1q0 9.9-4.1 15.55T33.4 48.5q-7.13 0-11.2-5.65T18.1 27.3q0-9.9 4.1-15.54 4.07-5.64 11.2-5.64 7.13 0 11.2 5.64 4.1 5.64 4.1 15.55"/><path id="ab" d="M54.9 33.02V0h-9v32.72q0 7.76-3.02 11.6-3.04 3.87-9.08 3.87-7.28 0-11.5-4.7-4.2-4.7-4.2-12.7V0h-9v54.7h9.03v-8.5q3.24 4.92 7.6 7.36Q30.08 56 35.8 56q9.42 0 14.25-5.83 4.84-5.83 4.84-17.15"/><path id="ac" d="M54.9 33.02V0h-9v32.72q0 7.76-3.02 11.6-3.04 3.87-9.08 3.87-7.28 0-11.5-4.7-4.2-4.7-4.2-12.7V0h-9v75.98h9.03v-29.8q3.24 4.94 7.6 7.38Q30.08 56 35.8 56q9.42 0 14.25-5.83 4.84-5.83 4.84-17.15"/><path id="z" d="M18.3 70.22V54.7h18.5v-7H18.3V18.02q0-6.7 1.84-8.6 1.83-1.9 7.45-1.9h9.2V0h-9.2Q17.2 0 13.2 3.87 9.28 7.77 9.28 18v29.7h-6.6v6.98h6.6V70.2z"/><clipPath id="x"><path d="M73.62 23.14h446.4v345.6H73.62z"/></clipPath></defs><path fill="none" d="M0 391.6h535.5V0H0z"/><path fill="none" d="M73.62 368.7h446.4V23.1l-446.4.04z"/><g clip-path="url(#x)"><use y="391.56" fill="#3572a4" stroke="#3572a4" xlink:href="#y"/></g><path fill="none" stroke="#000" d="M73.62 368.7h446.4m-.02 0V23.1M73.62 368.7V23.1m0 .04h446.4" stroke-linecap="square"/><use x="101.13" y="368.74" stroke="#000" stroke-width=".5" xlink:href="#g"/><use x="101.13" y="23.14" stroke="#000" stroke-width=".5" xlink:href="#h"/><g transform="matrix(.1 0 0 -.1 85.9 381.9)"><use xlink:href="#e"/><use x="63.62" xlink:href="#a"/><use x="127.25" xlink:href="#b"/><use x="190.87" xlink:href="#e"/></g><use x="183.65" y="368.74" stroke="#000" stroke-width=".5" xlink:href="#g"/><use x="183.65" y="23.14" stroke="#000" stroke-width=".5" xlink:href="#h"/><g transform="matrix(.1 0 0 -.1 168.4 381.9)"><use xlink:href="#e"/><use x="63.62" xlink:href="#a"/><use x="127.25" xlink:href="#b"/><use x="190.87" xlink:href="#ag"/></g><use x="265.94" y="368.74" stroke="#000" stroke-width=".5" xlink:href="#g"/><use x="265.94" y="23.14" stroke="#000" stroke-width=".5" xlink:href="#h"/><g transform="matrix(.1 0 0 -.1 250.7 381.9)"><use xlink:href="#e"/><use x="63.62" xlink:href="#a"/><use x="127.25" xlink:href="#b"/><use x="190.87" xlink:href="#o"/></g><use x="348.23" y="368.74" stroke="#000" stroke-width=".5" xlink:href="#g"/><use x="348.23" y="23.14" stroke="#000" stroke-width=".5" xlink:href="#h"/><g transform="matrix(.1 0 0 -.1 333 381.9)"><use xlink:href="#e"/><use x="63.62" xlink:href="#a"/><use x="127.25" xlink:href="#b"/><use x="190.87" xlink:href="#af"/></g><use x="430.52" y="368.74" stroke="#000" stroke-width=".5" xlink:href="#g"/><use x="430.52" y="23.14" stroke="#000" stroke-width=".5" xlink:href="#h"/><g transform="matrix(.1 0 0 -.1 415.2 381.9)"><use xlink:href="#e"/><use x="63.62" xlink:href="#a"/><use x="127.25" xlink:href="#b"/><use x="190.87" xlink:href="#n"/></g><use x="513.03" y="368.74" stroke="#000" stroke-width=".5" xlink:href="#g"/><use x="513.03" y="23.14" stroke="#000" stroke-width=".5" xlink:href="#h"/><g transform="matrix(.1 0 0 -.1 497.8 381.9)"><use xlink:href="#e"/><use x="63.62" xlink:href="#a"/><use x="127.25" xlink:href="#b"/><use x="190.87" xlink:href="#ae"/></g><use x="73.62" y="368.74" stroke="#000" stroke-width=".5" xlink:href="#d"/><use x="520.02" y="368.74" stroke="#000" stroke-width=".5" xlink:href="#c"/><use xlink:href="#a" transform="matrix(.1 0 0 -.1 62 372.1)"/><use x="73.62" y="325.54" stroke="#000" stroke-width=".5" xlink:href="#d"/><use x="520.02" y="325.54" stroke="#000" stroke-width=".5" xlink:href="#c"/><g transform="matrix(.1 0 0 -.1 31.4 328.9)"><use xlink:href="#e"/><use x="63.62" xlink:href="#a"/><use x="127.25" xlink:href="#a"/><use x="190.87" xlink:href="#a"/><use x="254.49" xlink:href="#a"/></g><use x="73.62" y="282.34" stroke="#000" stroke-width=".5" xlink:href="#d"/><use x="520.02" y="282.34" stroke="#000" stroke-width=".5" xlink:href="#c"/><g transform="matrix(.1 0 0 -.1 31.4 285.7)"><use xlink:href="#o"/><use x="63.62" xlink:href="#a"/><use x="127.25" xlink:href="#a"/><use x="190.87" xlink:href="#a"/><use x="254.49" xlink:href="#a"/></g><use x="73.62" y="239.14" stroke="#000" stroke-width=".5" xlink:href="#d"/><use x="520.02" y="239.14" stroke="#000" stroke-width=".5" xlink:href="#c"/><g transform="matrix(.1 0 0 -.1 31.4 242.5)"><use xlink:href="#n"/><use x="63.62" xlink:href="#a"/><use x="127.25" xlink:href="#a"/><use x="190.87" xlink:href="#a"/><use x="254.49" xlink:href="#a"/></g><use x="73.62" y="195.94" stroke="#000" stroke-width=".5" xlink:href="#d"/><use x="520.02" y="195.94" stroke="#000" stroke-width=".5" xlink:href="#c"/><g transform="matrix(.1 0 0 -.1 31.4 199.3)"><use xlink:href="#ad"/><use x="63.62" xlink:href="#a"/><use x="127.25" xlink:href="#a"/><use x="190.87" xlink:href="#a"/><use x="254.49" xlink:href="#a"/></g><use x="73.62" y="152.74" stroke="#000" stroke-width=".5" xlink:href="#d"/><use x="520.02" y="152.74" stroke="#000" stroke-width=".5" xlink:href="#c"/><g transform="matrix(.1 0 0 -.1 23.8 156.1)"><use xlink:href="#b"/><use x="63.62" xlink:href="#a"/><use x="127.25" xlink:href="#a"/><use x="190.87" xlink:href="#a"/><use x="254.49" xlink:href="#a"/><use x="318.12" xlink:href="#a"/></g><use x="73.62" y="109.54" stroke="#000" stroke-width=".5" xlink:href="#d"/><use x="520.02" y="109.54" stroke="#000" stroke-width=".5" xlink:href="#c"/><g transform="matrix(.1 0 0 -.1 23.8 112.9)"><use xlink:href="#b"/><use x="63.62" xlink:href="#e"/><use x="127.25" xlink:href="#a"/><use x="190.87" xlink:href="#a"/><use x="254.49" xlink:href="#a"/><use x="318.12" xlink:href="#a"/></g><use x="73.62" y="66.34" stroke="#000" stroke-width=".5" xlink:href="#d"/><use x="520.02" y="66.34" stroke="#000" stroke-width=".5" xlink:href="#c"/><g transform="matrix(.1 0 0 -.1 23.8 69.7)"><use xlink:href="#b"/><use x="63.62" xlink:href="#o"/><use x="127.25" xlink:href="#a"/><use x="190.87" xlink:href="#a"/><use x="254.49" xlink:href="#a"/><use x="318.12" xlink:href="#a"/></g><use x="73.62" y="23.14" stroke="#000" stroke-width=".5" xlink:href="#d"/><use x="520.02" y="23.14" stroke="#000" stroke-width=".5" xlink:href="#c"/><g transform="matrix(.1 0 0 -.1 23.8 26.4)"><use xlink:href="#b"/><use x="63.62" xlink:href="#n"/><use x="127.25" xlink:href="#a"/><use x="190.87" xlink:href="#a"/><use x="254.49" xlink:href="#a"/><use x="318.12" xlink:href="#a"/></g><g transform="matrix(0 -.1 -.1 0 16.3 268.6)"><use xlink:href="#v"/><use x="74.8" xlink:href="#q"/><use x="138.18" xlink:href="#m"/><use x="235.6" xlink:href="#t"/><use x="299.07" xlink:href="#f"/><use x="360.6" xlink:href="#l"/><use x="401.71" xlink:href="#BitstreamVeraSans-Roman-20"/><use x="433.5" xlink:href="#i"/><use x="494.68" xlink:href="#r"/><use x="529.88" xlink:href="#BitstreamVeraSans-Roman-20"/><use x="561.67" xlink:href="#s"/><use x="616.65" xlink:href="#i"/><use x="677.83" xlink:href="#k"/><use x="741.31" xlink:href="#f"/><use x="802.83" xlink:href="#w"/><use x="830.32" xlink:href="#j"/><use x="882.42" xlink:href="#BitstreamVeraSans-Roman-20"/><use x="914.21" xlink:href="#j"/><use x="966.31" xlink:href="#u"/><use x="1027.59" xlink:href="#p"/><use x="1086.77" xlink:href="#f"/><use x="1148.29" xlink:href="#k"/></g><g transform="matrix(.1 0 0 -.1 169.7 18.1)"><use xlink:href="#v"/><use x="74.8" xlink:href="#q"/><use x="138.18" xlink:href="#m"/><use x="235.6" xlink:href="#t"/><use x="299.07" xlink:href="#f"/><use x="360.6" xlink:href="#l"/><use x="401.71" xlink:href="#BitstreamVeraSans-Roman-20"/><use x="433.5" xlink:href="#i"/><use x="494.68" xlink:href="#r"/><use x="529.88" xlink:href="#BitstreamVeraSans-Roman-20"/><use x="561.67" xlink:href="#s"/><use x="616.65" xlink:href="#i"/><use x="677.83" xlink:href="#k"/><use x="741.31" xlink:href="#f"/><use x="802.83" xlink:href="#w"/><use x="830.32" xlink:href="#j"/><use x="882.42" xlink:href="#BitstreamVeraSans-Roman-20"/><use x="914.21" xlink:href="#j"/><use x="966.31" xlink:href="#u"/><use x="1027.59" xlink:href="#p"/><use x="1086.77" xlink:href="#f"/><use x="1148.29" xlink:href="#k"/><use x="1211.77" xlink:href="#BitstreamVeraSans-Roman-20"/><use x="1243.55" xlink:href="#aa"/><use x="1307.03" xlink:href="#f"/><use x="1368.55" xlink:href="#l"/><use x="1409.67" xlink:href="#BitstreamVeraSans-Roman-20"/><use x="1441.46" xlink:href="#m"/><use x="1538.87" xlink:href="#i"/><use x="1600.05" xlink:href="#ab"/><use x="1663.43" xlink:href="#z"/><use x="1702.64" xlink:href="#ac"/></g></svg>