<svg xmlns="http://www.w3.org/2000/svg" xmlns:xlink="http://www.w3.org/1999/xlink" viewBox="0 0 540 436"><defs><style>*{stroke-linecap:butt;stroke-linejoin:round;stroke-miterlimit:100000;}</style><path id="ad" stroke="#3572a4" d="M54.6-120.9v98.1h477.1v-223.6l-6.7 17.8-7.3 1-7.4-12.6-7.1-4.6-7.4 4.5-7.1 35-7.4 54.2-7.4-13.5-7.1-17.7-7.3-27-7.2 5.1-7.3 3.4-6.9-6.4-7.4.8-7.4 3.2-7.1-16.3-7.4-1.4-7.1-3.5-7.3 24.9-7.4 5.2-7.1-23.7-7.4 17.4-7.1-9.9-7.4-8.8-6.7-17.7-7.3-1.2-7.4-1.8-7.1-5.3-7.4-19.4-7.1 11.1-7.4-16-7.3 67.3-7.2-16.3-7.3 12.2-7.2-11.7-7.3-4.7-6.7 13.3-7.3-54.6-7.4 11.2-7.1-21.1-7.4 13.7-7.1-23-7.4 21.3-7.4 39.5-7.1 7.9-7.4 1.1-7.1-16.2-7.3 10.5-6.7-.7-7.4 52-7.3-28-7.2 46.2-7.3-13.5-7.2-13.9-7.3-8.5-7.4-11.2-7.1 32.9-7.4-25.9-7.1-15.2-7.37-67.8-6.9 30.4-7.35 103.9-7.37-24.2-7.1-11.7-7.3 39.8-7.1 13.7z"/><path id="ag" stroke="#d2bc12" d="M54.6-176v55.1l7.12-13.7 7.36-39.8 7.13 11.7 7.4 24.2L91-242.4l6.9-30.4 7.36 67.8 7.1 15.2 7.4 25.9 7.1-32.9 7.4 11.2 7.3 8.5 7.2 13.9 7.3 13.5 7.2-46.2 7.3 28 7.4-52 6.7.7 7.3-10.5 7.1 16.2 7.4-1.1 7.1-7.9 7.4-39.5 7.4-21.3 7.1 23 7.4-13.7 7.1 21.1 7.4-11.2 7.3 54.6 6.7-13.3 7.3 4.7 7.2 11.7 7.3-12.2 7.2 16.3 7.3-67.3 7.4 16 7.1-11.1 7.4 19.4 7.1 5.3 7.4 1.8 7.3 1.2 6.7 17.7 7.4 8.8 7.1 9.9 7.4-17.4 7.1 23.7 7.4-5.2 7.3-24.9 7.1 3.5 7.4 1.4 7.1 16.3 7.4-3.2 7.4-.8 6.9 6.4 7.3-3.4 7.2-5.1 7.3 27 7.1 17.7 7.4 13.5 7.4-54.2 7.1-35 7.4-4.5 7.1 4.6 7.4 12.6 7.3-1 6.7-17.8V-303l-6.7 11.4-7.3-3.8-7.4-14.4-7.1 4.1-7.4 1.2-7.1 18.1-7.4 22.1-7.4-42.1-7.1-7-7.3-1.7-7.2 10-7.3-5-6.9-.4-7.4-11-7.4 10.3-7.1-5-7.4 1.4-7.1-5.4-7.3-14.7-7.4 5-7.1-6.8-7.4 23.2-7.1.5-7.4-17.4-6.7-8.3-7.3 6.7-7.4 1.5-7.1-4.4-7.4-17.2-7.1 6.4-7.4 2.2-7.3 23.7-7.2-6.1-7.3 23.3-7.2-16.3-7.3-2.4-6.7 23.9-7.3-47.3-7.4 33.5-7.1-12.7-7.4-2.2-7.1-4.5-7.4 27.9-7.4 2.5-7.1 28.1-7.4 25.2-7.1-17.9-7.3-7.5-6.7 14.2-7.4 12-7.3-5.9-7.2 19.3-7.3-38.1-7.2 10.3-7.3 2.8-7.4-4.8-7.1 36.8-7.4-56-7.1 28.3-7.36-64.2-6.9 28.8-7.35 73.2-7.37 7.2-7.12-16.5-7.35 25.7-7.2 23.2z"/><path id="ah" stroke="#701516" d="M54.6-210.1v34.1l7.12-23.2 7.36-25.7 7.13 16.5 7.4-7.2 7.4-73.2 6.9-28.8 7.4 64.2 7.1-28.3 7.4 56 7.1-36.8 7.4 4.8 7.3-2.8 7.2-10.3 7.3 38.1 7.2-19.3 7.3 5.9 7.4-12 6.7-14.2 7.3 7.5 7.1 17.9 7.4-25.2 7.1-28.1 7.4-2.5 7.4-27.9 7.1 4.5 7.4 2.2 7.1 12.7 7.4-33.5 7.3 47.3 6.7-23.9 7.3 2.4 7.2 16.3 7.3-23.3 7.2 6.1 7.3-23.7 7.4-2.2 7.1-6.4 7.4 17.2 7.1 4.4 7.4-1.5 7.3-6.7 6.7 8.3 7.4 17.4 7.1-.5 7.4-23.2 7.1 6.8 7.4-5 7.3 14.7 7.1 5.4 7.4-1.4 7.1 5 7.4-10.3 7.4 11 6.9.4 7.3 5 7.2-10 7.3 1.7 7.1 7 7.4 42.1 7.4-22.1 7.1-18.1 7.4-1.2 7.1-4.1 7.4 14.4 7.3 3.8 6.7-11.4v-17.4l-6.7 7.6-7.3-4.3-7.4-13.7-7.1 7.2-7.4-4.3-7.1 13.6-7.4 15-7.4-52.5-7.1-5.5-7.3 4.7-7.2 4.1-7.3 4.3-6.9-5.1-7.4-7-7.4 13.3-7.1-3.6-7.4 1-7.1-8.5-7.3-17.5-7.4-.3-7.1-2.3-7.4 9.6-7.1 11.5L358-366l-6.7-9-7.3-3.6-7.4 5.8-7.1 2.4-7.4-5.9-7.1-.7-7.4-5.9-7.3 3.7-7.2 4.3-7.3 12-7.2-3-7.3 1.9-6.7 4.3-7.3-21.2-7.4 17.2-7.1 5.4-7.4-8.1-7.1 5.5-7.4 4.5-7.4.4-7.1 5.9-7.4 12-7.1-2.8-7.3 6-6.7 24.5-7.4-7.2-7.3 13.2-7.2 29.6-7.3-44.8-7.2 32.8-7.3-5.5-7.4-24.8-7.1-30.4-7.4 41.1-7.1 21.5-7.37-62.5-6.9 42.5-7.35 39.8-7.37 6.9-7.1-22.9-7.3 28.8-7.1 42.2z"/><path id="ac" stroke="#af7219" d="M54.6-210.1l7.12-42.2 7.36-28.8 7.13 22.9 7.4-6.9 7.4-39.8 6.9-42.5 7.4 62.5 7.1-21.5 7.4-41.1 7.1 30.4 7.4 24.8 7.3 5.5 7.2-32.8 7.3 44.8 7.2-29.6 7.3-13.2 7.4 7.2 6.7-24.5 7.3-6 7.1 2.8 7.4-12 7.1-5.9 7.4-.4 7.4-4.5 7.1-5.5 7.4 8.1 7.1-5.4 7.4-17.2 7.3 21.2 6.7-4.3 7.3-1.9 7.2 3 7.3-12 7.2-4.3 7.3-3.7 7.4 5.9 7.1.7 7.4 5.9 7.1-2.4 7.4-5.8 7.3 3.6 6.7 9 7.4 12.9 7.1-11.5 7.4-9.6 7.1 2.3 7.4.3 7.3 17.5 7.1 8.5 7.4-1 7.1 3.6 7.4-13.3 7.4 7 6.9 5.1 7.3-4.3 7.2-4.1 7.3-4.7 7.1 5.5 7.4 52.5 7.4-15 7.1-13.6 7.4 4.3 7.1-7.2 7.4 13.7 7.3 4.3 6.7-7.6v-31.4l-6.7 10.4-7.3-.9-7.4-10.7-7.1 6.9-7.4-3.6-7.1 8.3-7.4-8-7.4-16.8-7.1-7.6-7.3 8.3-7.2 2.6-7.3 4.1-6.9-8.1-7.4-7.2-7.4 14.9-7.1-7-7.4-1.1-7.1-4.1-7.3-11.6-7.4-1.6-7.1-1.5-7.4 8.9-7.1 12.1-7.4-10.8-6.7-6.1-7.3 3.4-7.4 5.8-7.1 2.4-7.4-5.9-7.1-.7-7.4-5.9-7.3 3.7-7.2 4.3-7.3 12-7.2-3-7.3 1.9-6.7 4.3-7.3-21.2-7.4 17.2-7.1 5.4-7.4-8.1-7.1 5.5-7.4 4.5-7.4.4-7.1 5.9-7.4 12-7.1-2.8-7.3 6-6.7 24.5-7.4-7.2-7.3 13.2-7.2 29.6-7.3-44.8-7.2 32.8-7.3-5.5-7.4-24.8-7.1-30.4-7.4 41.1-7.1 21.5-7.3-62.5-6.9 42.5-7.3 39.8-7.3 6.9-7.12-22.9L62-252.3l-7.14 42.2z"/><path id="af" stroke="#f24b7d" d="M54.6-210.1l7.12-42.2 7.36-28.8 7.13 22.9 7.4-6.9 7.4-39.8 6.9-42.5 7.4 62.5 7.1-21.5 7.4-41.1 7.1 30.4 7.4 24.8 7.3 5.5 7.2-32.8 7.3 44.8 7.2-29.6 7.3-13.2 7.4 7.2 6.7-24.5 7.3-6 7.1 2.8 7.4-12 7.1-5.9 7.4-.4 7.4-4.5 7.1-5.5 7.4 8.1 7.1-5.4 7.4-17.2 7.3 21.2 6.7-4.3 7.3-1.9 7.2 3 7.3-12 7.2-4.3 7.3-3.7 7.4 5.9 7.1.7 7.4 5.9 7.1-2.4 7.4-5.8 7.3-3.4 6.7 6.1 7.4 10.8 7.1-12.1 7.4-8.9 7.1 1.5 7.4 1.6 7.3 11.6 7.1 4.1 7.4 1.1 7.1 7 7.4-14.9 7.4 7.2 6.9 8.1 7.3-4.1 7.2-2.6 7.3-8.3 7.1 7.6 7.4 16.8 7.4 8 7.1-8.3 7.4 3.6 7.1-6.9 7.4 10.7 7.3.9 6.7-10.4v-23.5l-6.7 6.1-7.3 3.9-7.4-8.8-7.1 3.9-7.4-3.7-7.1 8.5-7.4-8.3-7.4-1.9-7.1-6.2-7.3.3-7.2-2.3-7.3 1.7-6.9.3-7.4-.4-7.4 8.2-7.1-7.3-7.4-5.2-7.1.8-7.3-1.2-7.4 1.7-7.1-1.2-7.4 8.8-7.1 7.8-7.4-7.7-6.7-4.5-7.3 3.4-7.4 5.8-7.1 2.4-7.4-5.9-7.1-.7-7.4-5.9-7.3 3.7-7.2 4.3-7.3 12-7.2-3-7.3 1.9-6.7 4.3-7.3-21.2-7.4 17.2-7.1 5.4-7.4-8.1-7.1 5.5-7.4 4.5-7.4.4-7.1 5.9-7.4 12-7.1-2.8-7.3 6-6.7 24.5-7.4-7.2-7.3 13.2-7.2 29.6-7.3-44.8-7.2 32.8-7.3-5.5-7.4-24.8-7.1-30.4-7.4 41.1-7.1 21.5-7.3-62.5-6.9 42.5-7.3 39.8-7.3 6.9-7.12-22.9L62-252.3l-7.14 42.2z"/><path id="ab" stroke="#555" d="M54.6-210.1l7.12-42.2 7.36-28.8 7.13 22.9 7.4-6.9 7.4-39.8 6.9-42.5 7.4 62.5 7.1-21.5 7.4-41.1 7.1 30.4 7.4 24.8 7.3 5.5 7.2-32.8 7.3 44.8 7.2-29.6 7.3-13.2 7.4 7.2 6.7-24.5 7.3-6 7.1 2.8 7.4-12 7.1-5.9 7.4-.4 7.4-4.5 7.1-5.5 7.4 8.1 7.1-5.4 7.4-17.2 7.3 21.2 6.7-4.3 7.3-1.9 7.2 3 7.3-12 7.2-4.3 7.3-3.7 7.4 5.9 7.1.7 7.4 5.9 7.1-2.4 7.4-5.8 7.3-3.4 6.7 4.5 7.4 7.7 7.1-7.8 7.4-8.8 7.1 1.2 7.4-1.7 7.3 1.2 7.1-.8 7.4 5.2 7.1 7.3 7.4-8.2 7.4.4 6.9-.3 7.3-1.7 7.2 2.3 7.3-.3 7.1 6.2 7.4 1.9 7.4 8.3 7.1-8.5 7.4 3.7 7.1-3.9 7.4 8.8 7.3-3.9 6.7-6.1v-9.2l-6.7 5.2-7.3 3.9-7.4-4.3-7.1 1.5-7.4-3.1-7.1 7.9-7.4-9.8-7.4 2.8-7.1-5.7-7.3-.2-7.2-2.8-7.3.9-6.9-2.5-7.4.2-7.4 6.8-7.1-6.9-7.4-2.1-7.1 1.7-7.3-.3-7.4 1-7.1-2.3-7.4 9.9-7.1 7.6-7.4-4.5-6.7-2.4-7.3 3.4-7.4 5.8-7.1 2.4-7.4-5.9-7.1-.7-7.4-5.9-7.3 3.7-7.2 4.3-7.3 12-7.2-3-7.3 1.9-6.7 4.3-7.3-21.2-7.4 17.2-7.1 5.4-7.4-8.1-7.1 5.5-7.4 4.5-7.4.4-7.1 5.9-7.4 12-7.1-2.8-7.3 6-6.7 24.5-7.4-7.2-7.3 13.2-7.2 29.6-7.3-44.8-7.2 32.8-7.3-5.5-7.4-24.8-7.1-30.4-7.4 41.1-7.1 21.5-7.3-62.5-6.9 42.5-7.3 39.8-7.3 6.9-7.12-22.9L62-252.3l-7.14 42.2z"/><path id="ae" stroke="#563d7c" d="M54.6-210.1l7.12-42.2 7.36-28.8 7.13 22.9 7.4-6.9 7.4-39.8 6.9-42.5 7.4 62.5 7.1-21.5 7.4-41.1 7.1 30.4 7.4 24.8 7.3 5.5 7.2-32.8 7.3 44.8 7.2-29.6 7.3-13.2 7.4 7.2 6.7-24.5 7.3-6 7.1 2.8 7.4-12 7.1-5.9 7.4-.4 7.4-4.5 7.1-5.5 7.4 8.1 7.1-5.4 7.4-17.2 7.3 21.2 6.7-4.3 7.3-1.9 7.2 3 7.3-12 7.2-4.3 7.3-3.7 7.4 5.9 7.1.7 7.4 5.9 7.1-2.4 7.4-5.8 7.3-3.4 6.7 2.4 7.4 4.5 7.1-7.6 7.4-9.9 7.1 2.3 7.4-1 7.3.3 7.1-1.7 7.4 2.1 7.1 6.9 7.4-6.8 7.4-.2 6.9 2.5 7.3-.9 7.2 2.8 7.3.2 7.1 5.7 7.4-2.8 7.4 9.8 7.1-7.9 7.4 3.1 7.1-1.5 7.4 4.3 7.3-3.9 6.7-5.2v-9.4l-6.7 3.5-7.3 3-7.4-2.4-7.1.8-7.4-.8-7.1 6.1-7.4-4.4-7.4-.3-7.1-2.1-7.3 4.2-7.2-2.8-7.3.9-6.9-2.5-7.4.2-7.4 6.8-7.1-6.9-7.4-2.1-7.1 1.7-7.3-.3-7.4 1-7.1-2.3-7.4 9.9-7.1 7.6-7.4-4.5-6.7-2.4-7.3 3.4-7.4 5.8-7.1 2.4-7.4-5.9-7.1-.7-7.4-5.9-7.3 3.7-7.2 4.3-7.3 12-7.2-3-7.3 1.9-6.7 4.3-7.3-21.2-7.4 17.2-7.1 5.4-7.4-8.1-7.1 5.5-7.4 4.5-7.4.4-7.1 5.9-7.4 12-7.1-2.8-7.3 6-6.7 24.5-7.4-7.2-7.3 13.2-7.2 29.6-7.3-44.8-7.2 32.8-7.3-5.5-7.4-24.8-7.1-30.4-7.4 41.1-7.1 21.5-7.3-62.5-6.9 42.5-7.3 39.8-7.3 6.9-7.12-22.9L62-252.3l-7.14 42.2z"/><path id="ai" stroke="#b1011d" d="M54.6-410.2v200.1l7.12-42.2 7.36-28.8 7.13 22.9 7.4-6.9 7.4-39.8 6.9-42.5 7.4 62.5 7.1-21.5 7.4-41.1 7.1 30.4 7.4 24.8 7.3 5.5 7.2-32.8 7.3 44.8 7.2-29.6 7.3-13.2 7.4 7.2 6.7-24.5 7.3-6 7.1 2.8 7.4-12 7.1-5.9 7.4-.4 7.4-4.5 7.1-5.5 7.4 8.1 7.1-5.4 7.4-17.2 7.3 21.2 6.7-4.3 7.3-1.9 7.2 3 7.3-12 7.2-4.3 7.3-3.7 7.4 5.9 7.1.7 7.4 5.9 7.1-2.4 7.4-5.8 7.3-3.4 6.7 2.4 7.4 4.5 7.1-7.6 7.4-9.9 7.1 2.3 7.4-1 7.3.3 7.1-1.7 7.4 2.1 7.1 6.9 7.4-6.8 7.4-.2 6.9 2.5 7.3-.9 7.2 2.8 7.3-4.2 7.1 2.1 7.4.3 7.4 4.4 7.1-6.1 7.4.8 7.1-.8 7.4 2.4 7.3-3 6.7-3.5v-16.3H54.6z"/><path id="k" stroke="#000" stroke-width=".5" d="M0 0v-4"/><path id="i" stroke="#000" stroke-width=".5" d="M0 0v4"/><path id="f" d="M19.2 8.3h34.4V0H7.34v8.3q5.6 5.8 15.3 15.6 9.7 9.8 12.18 12.63 4.75 5.3 6.62 9 1.9 3.7 1.9 7.25 0 5.8-4.1 9.47-4.06 3.67-10.6 3.67-4.65 0-9.8-1.6-5.15-1.62-11-4.9v9.97q5.96 2.3 11.12 3.6 5.18 1.2 9.48 1.2 11.33 0 18.06-5.7 6.74-5.7 6.74-15.2 0-4.5-1.7-8.6-1.66-4-6.1-9.5-1.23-1.4-7.78-8.2L19.2 8.3"/><path id="g" d="M12.4 8.3h16.12v55.62l-17.54-3.5v8.97l17.44 3.5h9.86V8.3h16.1V0H12.42z"/><path id="a" d="M31.78 66.4q-7.6 0-11.45-7.5-3.83-7.48-3.83-22.52 0-15 3.83-22.5 3.84-7.5 11.45-7.5 7.67 0 11.5 7.5 3.84 7.5 3.84 22.5 0 15.04-3.84 22.53-3.83 7.5-11.5 7.5m0 7.9q12.27 0 18.74-9.7 6.46-9.7 6.46-28.1 0-18.4-6.46-28.1-6.47-9.7-18.74-9.7-12.25 0-18.72 9.7Q6.6 18 6.6 36.4q0 18.44 6.45 28.13 6.47 9.7 18.72 9.7"/><path id="ar" d="M40.58 39.3q7.08-1.5 11.04-6.3 4-4.78 4-11.8 0-10.8-7.43-16.72-7.5-5.9-21.1-5.9-4.6 0-9.5.9T7.6 2.2v9.52q4.1-2.4 8.97-3.6Q21.44 6.9 26.8 6.9q9.27 0 14.13 3.64Q45.8 14.2 45.8 21.2q0 6.44-4.52 10.07-4.5 3.64-12.56 3.64h-8.5v8.2h8.9q7.26 0 11.1 2.9 3.87 2.9 3.87 8.4 0 5.6-4 8.6t-11.4 3q-4.1 0-8.7-.9-4.7-.8-10.2-2.7v8.8q5.6 1.6 10.5 2.4t9.2.8q11.2 0 17.7-5.1 6.7-5.3 6.7-14 0-6-3.5-10.2-3.48-4.2-9.87-5.8"/><path id="aa" d="M37.8 64.3L12.9 25.4h24.9zm-2.6 8.6h12.4V25.4h10.42v-8.2h-10.4V0H37.8v17.2H4.9v9.5z"/><path id="aq" d="M10.8 72.9h38.72v-8.3h-29.7V46.72q2.15.74 4.3 1.1 2.15.36 4.3.36 12.2 0 19.33-6.7 7.14-6.7 7.14-18.1 0-11.78-7.4-18.3-7.3-6.52-20.6-6.52-4.6 0-9.4.78T7.7 1.7v9.92q4.4-2.4 9.08-3.56 4.7-1.17 9.9-1.17 8.47 0 13.4 4.4t4.93 12-4.9 12q-4.9 4.4-13.4 4.4-3.9 0-7.9-.9-3.9-.9-8-2.8z"/><path id="z" d="M33.02 40.38q-6.64 0-10.54-4.55Q18.6 31.3 18.6 23.4q0-7.87 3.88-12.45 3.9-4.56 10.54-4.56t10.5 4.5q3.9 4.6 3.9 12.4 0 7.9-3.9 12.4-3.86 4.5-10.5 4.5m19.58 31v-9q-3.72 1.8-7.5 2.7-3.8.9-7.5.9-9.77 0-14.93-6.6-5.14-6.6-5.87-19.9 2.87 4.2 7.22 6.5 4.36 2.23 9.57 2.23 10.9 0 17.3-6.7t6.4-18.18q0-11.2-6.7-18Q44-1.4 33-1.4q-12.66 0-19.35 9.7-6.7 9.7-6.7 28.1 0 17.28 8.22 27.56 8.2 10.28 22 10.28 3.72 0 7.5-.74 3.78-.73 7.9-2.18"/><path id="ap" d="M8.2 72.9h46.88v-4.2L28.6 0H18.3l24.92 64.6H8.2z"/><path id="j" stroke="#000" stroke-width=".5" d="M0 0h4"/><path id="h" stroke="#000" stroke-width=".5" d="M0 0h-4"/><path id="ao" d="M31.78 34.62q-7.03 0-11.06-3.76-4.02-3.77-4.02-10.34 0-6.6 4.02-10.36Q24.75 6.4 31.78 6.4t11.08 3.77q4.06 3.8 4.06 10.35 0 6.57-4.03 10.34-4.1 3.76-11.2 3.76m-9.9 4.2q-6.4 1.56-9.9 5.9-3.5 4.36-3.5 10.6 0 8.74 6.2 13.82t17 5.08q10.9 0 17.1-5.08 6.2-5.08 6.2-13.8 0-6.26-3.6-10.62-3.55-4.34-9.85-5.9 7.1-1.66 11.1-6.5 3.95-4.84 3.95-11.8 0-10.6-6.5-16.3Q43.83-1.4 31.8-1.4T13.27 4.25Q6.8 9.93 6.8 20.55q0 6.95 4 11.78 4.02 4.86 11.14 6.5m-3.6 15.6q0-5.67 3.52-8.84 3.55-3.2 9.94-3.2 6.36 0 9.94 3.1 3.6 3.1 3.6 8.8t-3.6 8.8q-3.58 3.2-9.94 3.2-6.4 0-9.94-3.2-3.53-3.2-3.53-8.9"/><path id="p" d="M45.4 27.98q0 9.77-4.02 15.13-4.02 5.4-11.3 5.4-7.22 0-11.25-5.3T14.8 28q0-9.7 4.03-15.1 4.03-5.36 11.25-5.36 7.28 0 11.3 5.37Q45.4 18.3 45.4 28m9-21.2q0-13.96-6.2-20.77-6.2-6.82-19-6.82-4.72 0-8.92.7t-8.16 2.2v8.8q3.96-2.1 7.82-3.1 3.86-1 7.86-1 8.84 0 13.24 4.6t4.4 14v4.4q-2.8-4.9-7.14-7.3Q33.94 0 27.88 0q-10.05 0-16.2 7.66Q5.5 15.33 5.5 27.98q0 12.7 6.15 20.35Q17.83 56 27.87 56q6.07 0 10.4-2.4t7.14-7.2v8.3h9z"/><path id="c" d="M34.28 27.48q-10.9 0-15.1-2.48-4.2-2.48-4.2-8.5 0-4.78 3.16-7.6 3.16-2.8 8.56-2.8 7.5 0 12 5.3 4.52 5.3 4.52 14.08v2zM52.2 31.2V0h-8.98v8.3Q40.14 3.33 35.55.95q-4.6-2.37-11.24-2.37Q16-1.42 11 3.3T6 15.92q0 9.22 6.2 13.9 6.2 4.7 18.43 4.7H43.3v.9q0 6.2-4.1 9.58t-11.5 3.4q-4.7 0-9.14-1.13t-8.53-3.38v8.3q4.92 1.9 9.56 2.8 4.6.9 9 .9 11.9 0 17.8-6.2 5.8-6.1 5.8-18.6"/><path id="am" d="M19.67 64.8V37.4h12.4q6.9 0 10.65 3.57 3.76 3.56 3.76 10.15 0 6.55-3.76 10.1-3.75 3.58-10.64 3.58zM9.8 72.9h22.3q12.26 0 18.53-5.54 6.3-5.55 6.3-16.24 0-10.8-6.3-16.3-6.26-5.52-18.52-5.52H19.7V0H9.8z"/><path id="b" d="M56.2 29.6v-4.4H14.9q.58-9.28 5.58-14.14 5-4.86 13.94-4.86 5.17 0 10.03 1.27 4.86 1.26 9.66 3.8v-8.5Q49.3.74 44.2-.33t-10.3-1.1q-13.1 0-20.74 7.63-7.64 7.6-7.64 20.6 0 13.43 7.25 21.3Q20.02 56 32.33 56q11.03 0 17.45-7.1t6.42-19.3m-8.98 2.63q-.1 7.36-4.13 11.75-4.1 4.4-10.7 4.4-7.5 0-12.1-4.24-4.5-4.25-5.2-11.97z"/><path id="o" d="M54.9 33.02V0h-9v32.72q0 7.76-3.02 11.6-3.04 3.87-9.08 3.87-7.28 0-11.5-4.7-4.2-4.7-4.2-12.7V0h-9v54.7h9.03v-8.5q3.24 4.92 7.6 7.36Q30.08 56 35.8 56q9.42 0 14.25-5.83 4.84-5.83 4.84-17.15"/><path id="e" d="M18.3 70.22V54.7h18.5v-7H18.3V18.02q0-6.7 1.84-8.6 1.83-1.9 7.45-1.9h9.2V0h-9.2Q17.2 0 13.2 3.87 9.28 7.77 9.28 18v29.7h-6.6v6.98h6.6V70.2z"/><path id="n" d="M48.78 52.6v-8.4q-3.8 2.1-7.64 3.14-3.83 1.05-7.73 1.05-8.7 0-13.6-5.6Q15 37.3 15 27.3q0-10.02 4.83-15.57Q24.67 6.2 33.4 6.2q3.9 0 7.74 1.05t7.64 3.16V2.1Q45.02.33 40.98-.54q-4-.9-8.56-.9-12.36 0-19.64 7.77Q5.52 14.1 5.52 27.3q0 13.37 7.34 21.03Q20.22 56 33.02 56q4.14 0 8.1-.86 3.94-.84 7.66-2.55"/><path id="l" d="M41.1 46.3q-1.5.87-3.3 1.28-1.77.42-3.9.42-7.63 0-11.7-4.95-4.1-4.96-4.1-14.24V0h-9v54.7h9.03v-8.5q2.85 4.97 7.38 7.38Q30.1 56 36.6 56q.92 0 2.05-.12 1.1-.1 2.48-.36z"/><path id="m" d="M18.1 8.2v-29h-9v75.5h9.03v-8.3q2.85 4.87 7.17 7.22Q29.6 56 35.6 56q9.96 0 16.18-7.9 6.24-7.9 6.24-20.8T51.78 6.48q-6.22-7.9-16.2-7.9-6 0-10.3 2.38T18.1 8.2m30.6 19.1q0 9.9-4.1 15.55T33.4 48.5q-7.13 0-11.2-5.65T18.1 27.3q0-9.9 4.1-15.54 4.07-5.64 11.2-5.64 7.13 0 11.2 5.64 4.1 5.64 4.1 15.55"/><path id="s" d="M9.42 54.7h9V0h-9zm0 21.28h9v-11.4h-9z"/><path id="an" d="M9.8 72.9h9.87V8.3h35.5V0H9.8z"/><path id="v" d="M8.5 21.58v33.1h8.98V21.93q0-7.76 3.02-11.65 3.03-3.88 9.1-3.88 7.26 0 11.48 4.63 4.23 4.64 4.23 12.66v31h9V0h-9v8.4Q42.1 3.43 37.8 1q-4.3-2.42-10.03-2.42-9.42 0-14.3 5.86-4.9 5.86-4.9 17.14"/><path id="w" d="M44.28 53.08v-8.5q-3.8 1.95-7.9 2.92-4.1.98-8.5.98-6.7 0-10.04-2.04-3.34-2.05-3.34-6.16 0-3.12 2.4-4.9 2.38-1.8 9.62-3.4l3.07-.68q9.5-2.05 13.6-5.78 4-3.74 4-10.43 0-7.7-6.1-12.1-6-4.5-16.6-4.5-4.4 0-9.2.8Q10.7.3 5.4 2v9.28q5-2.6 9.8-3.9 4.84-1.27 9.6-1.27 6.34 0 9.74 2.2Q38 10.5 38 14.5q0 3.66-2.47 5.62-2.47 1.9-10.83 3.7l-3.12.74q-8.35 1.75-12.06 5.4-3.7 3.63-3.7 9.97 0 7.7 5.46 11.9Q16.75 56 26.8 56q4.98 0 9.37-.73 4.4-.72 8.1-2.2"/><path id="ak" d="M52 44.2q3.38 6.05 8.06 8.92Q64.76 56 71.1 56q8.54 0 13.18-5.98 4.64-5.97 4.64-17V0H79.9v32.72q0 7.86-2.8 11.66t-8.5 3.8q-6.98 0-11.04-4.63-4.04-4.63-4.04-12.64V0h-9.04v32.72q0 7.9-2.78 11.7-2.78 3.77-8.6 3.77-6.88 0-10.94-4.7-4.05-4.7-4.05-12.6V0h-9v54.7h9.1v-8.5q3.1 5.02 7.4 7.4Q29.8 56 35.7 56q6 0 10.16-3.03Q50 49.95 52 44.2"/><path id="t" d="M32.17-5.08q-3.8-9.76-7.42-12.73-3.6-3-9.66-3H7.9v7.5h5.3q3.7 0 5.74 1.7Q21-9.8 23.48-3.3l1.6 4.1L3 54.7h9.52L29.6 11.9l17.1 42.8h9.5z"/><path id="q" d="M30.6 48.4q-7.2 0-11.4-5.65-4.22-5.64-4.22-15.45 0-9.82 4.18-15.46Q23.34 6.2 30.6 6.2q7.2 0 11.38 5.66 4.2 5.67 4.2 15.44 0 9.72-4.2 15.4-4.18 5.7-11.37 5.7m0 7.6q11.8 0 18.5-7.62 6.7-7.6 6.7-21.08 0-13.42-6.7-21.08-6.7-7.64-18.4-7.64-11.8 0-18.4 7.64-6.7 7.66-6.7 21.08 0 13.47 6.7 21.08Q18.9 56 30.6 56"/><path id="x" d="M54.9 33.02V0h-9v32.72q0 7.76-3.02 11.6-3.04 3.87-9.08 3.87-7.28 0-11.5-4.7-4.2-4.7-4.2-12.7V0h-9v75.98h9.03v-29.8q3.24 4.94 7.6 7.38Q30.08 56 35.8 56q9.42 0 14.25-5.83 4.84-5.83 4.84-17.15"/><path id="r" d="M9.42 54.7h9V-1q0-10.44-4-15.13-3.97-4.7-12.8-4.7H-1.8v7.6H.6q5.12 0 6.96 2.4Q9.42-8.46 9.42-1zm0 21.28h9v-11.4h-9z"/><path id="u" d="M2.98 54.7h9.52L29.6 8.8l17.1 45.9h9.5L35.7 0H23.47z"/><path id="y" d="M48.7 27.3q0 9.9-4.1 15.54t-11.2 5.64q-7.13 0-11.2-5.64T18.1 27.3q0-9.9 4.1-15.55Q26.26 6.1 33.4 6.1q7.13 0 11.2 5.65 4.1 5.64 4.1 15.55M18.1 46.4q2.85 4.87 7.17 7.22Q29.6 56 35.6 56q9.96 0 16.18-7.9 6.24-7.9 6.24-20.8T51.78 6.48q-6.22-7.9-16.2-7.9-6 0-10.3 2.37T18.1 8.2V0h-9v75.98h9.03z"/><path id="aj" d="M4.2 54.7h9L24.4 12l11.2 42.7h10.6L57.4 12l11.2 42.67h8.97L63.27 0h-10.6L40.93 44.83 29.13 0H18.5z"/><path id="al" d="M50.98-16.6v-6.98H-.98v6.97z"/><clipPath id="d"><path d="M54.6 25.88h477.1v387.4H54.6z"/></clipPath></defs><path fill="none" d="M0 436.1h540.1V0H0z"/><path fill="none" d="M54.6 413.2h477.1V25.9l-477.1-.02z"/><g clip-path="url(#d)"><use y="436.05" fill="#3572a4" stroke="#3572a4" xlink:href="#ad"/></g><g clip-path="url(#d)"><use y="436.05" fill="#d2bc12" stroke="#d2bc12" xlink:href="#ag"/></g><g clip-path="url(#d)"><use y="436.05" fill="#701516" stroke="#701516" xlink:href="#ah"/></g><g clip-path="url(#d)"><use y="436.05" fill="#af7219" stroke="#af7219" xlink:href="#ac"/></g><g clip-path="url(#d)"><use y="436.05" fill="#f24b7d" stroke="#f24b7d" xlink:href="#af"/></g><g clip-path="url(#d)"><use y="436.05" fill="#555" stroke="#555" xlink:href="#ab"/></g><g clip-path="url(#d)"><use y="436.05" fill="#563d7c" stroke="#563d7c" xlink:href="#ae"/></g><g clip-path="url(#d)"><use y="436.05" fill="#b1011d" stroke="#b1011d" xlink:href="#ai"/></g><path fill="none" stroke="#000" d="M54.6 413.2h477.1m0 0V25.9M54.6 413.2V25.9m0-.02h477.1" stroke-linecap="square"/><use x="83.58" y="413.24" stroke="#000" stroke-width=".5" xlink:href="#k"/><use x="83.58" y="25.88" stroke="#000" stroke-width=".5" xlink:href="#i"/><g transform="matrix(.1 0 0 -.1 68.3 426.4)"><use xlink:href="#f"/><use x="63.62" xlink:href="#a"/><use x="127.25" xlink:href="#g"/><use x="190.87" xlink:href="#f"/></g><use x="170.54" y="413.24" stroke="#000" stroke-width=".5" xlink:href="#k"/><use x="170.54" y="25.88" stroke="#000" stroke-width=".5" xlink:href="#i"/><g transform="matrix(.1 0 0 -.1 155.3 426.4)"><use xlink:href="#f"/><use x="63.62" xlink:href="#a"/><use x="127.25" xlink:href="#g"/><use x="190.87" xlink:href="#ar"/></g><use x="257.26" y="413.24" stroke="#000" stroke-width=".5" xlink:href="#k"/><use x="257.26" y="25.88" stroke="#000" stroke-width=".5" xlink:href="#i"/><g transform="matrix(.1 0 0 -.1 242 426.4)"><use xlink:href="#f"/><use x="63.62" xlink:href="#a"/><use x="127.25" xlink:href="#g"/><use x="190.87" xlink:href="#aa"/></g><use x="343.98" y="413.24" stroke="#000" stroke-width=".5" xlink:href="#k"/><use x="343.98" y="25.88" stroke="#000" stroke-width=".5" xlink:href="#i"/><g transform="matrix(.1 0 0 -.1 328.7 426.4)"><use xlink:href="#f"/><use x="63.62" xlink:href="#a"/><use x="127.25" xlink:href="#g"/><use x="190.87" xlink:href="#aq"/></g><use x="430.7" y="413.24" stroke="#000" stroke-width=".5" xlink:href="#k"/><use x="430.7" y="25.88" stroke="#000" stroke-width=".5" xlink:href="#i"/><g transform="matrix(.1 0 0 -.1 415.4 426.4)"><use xlink:href="#f"/><use x="63.62" xlink:href="#a"/><use x="127.25" xlink:href="#g"/><use x="190.87" xlink:href="#z"/></g><use x="517.66" y="413.24" stroke="#000" stroke-width=".5" xlink:href="#k"/><use x="517.66" y="25.88" stroke="#000" stroke-width=".5" xlink:href="#i"/><g transform="matrix(.1 0 0 -.1 502.4 426.4)"><use xlink:href="#f"/><use x="63.62" xlink:href="#a"/><use x="127.25" xlink:href="#g"/><use x="190.87" xlink:href="#ap"/></g><use x="54.59" y="413.24" stroke="#000" stroke-width=".5" xlink:href="#j"/><use x="531.68" y="413.24" stroke="#000" stroke-width=".5" xlink:href="#h"/><use xlink:href="#a" transform="matrix(.1 0 0 -.1 43 416.5)"/><use x="54.59" y="335.77" stroke="#000" stroke-width=".5" xlink:href="#j"/><use x="531.68" y="335.77" stroke="#000" stroke-width=".5" xlink:href="#h"/><g transform="matrix(.1 0 0 -.1 35.3 339.1)"><use xlink:href="#f"/><use x="63.62" xlink:href="#a"/></g><use x="54.59" y="258.29" stroke="#000" stroke-width=".5" xlink:href="#j"/><use x="531.68" y="258.29" stroke="#000" stroke-width=".5" xlink:href="#h"/><g transform="matrix(.1 0 0 -.1 35.3 261.6)"><use xlink:href="#aa"/><use x="63.62" xlink:href="#a"/></g><use x="54.59" y="180.82" stroke="#000" stroke-width=".5" xlink:href="#j"/><use x="531.68" y="180.82" stroke="#000" stroke-width=".5" xlink:href="#h"/><g transform="matrix(.1 0 0 -.1 35.3 184.1)"><use xlink:href="#z"/><use x="63.62" xlink:href="#a"/></g><use x="54.59" y="103.35" stroke="#000" stroke-width=".5" xlink:href="#j"/><use x="531.68" y="103.35" stroke="#000" stroke-width=".5" xlink:href="#h"/><g transform="matrix(.1 0 0 -.1 35.3 106.7)"><use xlink:href="#ao"/><use x="63.62" xlink:href="#a"/></g><use x="54.59" y="25.88" stroke="#000" stroke-width=".5" xlink:href="#j"/><use x="531.68" y="25.88" stroke="#000" stroke-width=".5" xlink:href="#h"/><g transform="matrix(.1 0 0 -.1 27.7 29.2)"><use xlink:href="#g"/><use x="63.62" xlink:href="#a"/><use x="127.25" xlink:href="#a"/></g><g transform="matrix(0 -.2 -.2 0 19.4 265)"><use xlink:href="#am"/><use x="60.26" xlink:href="#b"/><use x="121.78" xlink:href="#l"/><use x="162.86" xlink:href="#n"/><use x="217.84" xlink:href="#b"/><use x="279.37" xlink:href="#o"/><use x="342.74" xlink:href="#e"/><use x="381.95" xlink:href="#c"/><use x="443.23" xlink:href="#p"/><use x="506.71" xlink:href="#b"/></g><g transform="matrix(.2 0 0 -.2 135.2 20.9)"><use xlink:href="#an"/><use x="55.71" xlink:href="#c"/><use x="116.99" xlink:href="#o"/><use x="180.37" xlink:href="#p"/><use x="243.85" xlink:href="#v"/><use x="307.23" xlink:href="#c"/><use x="368.51" xlink:href="#p"/><use x="431.98" xlink:href="#b"/><use x="493.51" xlink:href="#BitstreamVeraSans-Roman-20"/><use x="525.29" xlink:href="#m"/><use x="588.77" xlink:href="#b"/><use x="650.29" xlink:href="#l"/><use x="691.38" xlink:href="#n"/><use x="746.36" xlink:href="#b"/><use x="807.88" xlink:href="#o"/><use x="871.26" xlink:href="#e"/><use x="910.47" xlink:href="#c"/><use x="971.75" xlink:href="#p"/><use x="1035.22" xlink:href="#b"/><use x="1096.75" xlink:href="#BitstreamVeraSans-Roman-20"/><use x="1128.53" xlink:href="#c"/><use x="1189.81" xlink:href="#p"/><use x="1253.29" xlink:href="#c"/><use x="1314.57" xlink:href="#s"/><use x="1342.35" xlink:href="#o"/><use x="1405.73" xlink:href="#w"/><use x="1457.83" xlink:href="#e"/><use x="1497.04" xlink:href="#BitstreamVeraSans-Roman-20"/><use x="1528.83" xlink:href="#e"/><use x="1568.04" xlink:href="#s"/><use x="1595.82" xlink:href="#ak"/><use x="1693.23" xlink:href="#b"/></g><path fill="#fff" stroke="#000" d="M430.1 408.2h96.6V287.5h-96.6z"/><path fill="#3572a4" stroke="#3572a4" d="M434.1 299.1h20v-7h-20z"/><g transform="matrix(.1 0 0 -.1 462.1 299.1)"><use xlink:href="#m"/><use x="63.48" xlink:href="#t"/><use x="122.66" xlink:href="#e"/><use x="161.87" xlink:href="#x"/><use x="225.24" xlink:href="#q"/><use x="286.43" xlink:href="#o"/></g><path fill="#d2bc12" stroke="#d2bc12" d="M434.1 313.8h20v-7h-20z"/><g transform="matrix(.1 0 0 -.1 462.1 313.8)"><use xlink:href="#r"/><use x="27.78" xlink:href="#c"/><use x="89.06" xlink:href="#u"/><use x="148.24" xlink:href="#c"/><use x="209.52" xlink:href="#w"/><use x="261.62" xlink:href="#n"/><use x="316.6" xlink:href="#l"/><use x="357.71" xlink:href="#s"/><use x="385.5" xlink:href="#m"/><use x="448.97" xlink:href="#e"/></g><path fill="#701516" stroke="#701516" d="M434.1 328.5h20v-7h-20z"/><g transform="matrix(.1 0 0 -.1 462.1 328.5)"><use xlink:href="#l"/><use x="41.11" xlink:href="#v"/><use x="104.49" xlink:href="#y"/><use x="167.97" xlink:href="#t"/></g><path fill="#af7219" stroke="#af7219" d="M434.1 343.2h20v-7h-20z"/><g transform="matrix(.1 0 0 -.1 462.1 343.2)"><use xlink:href="#r"/><use x="27.78" xlink:href="#c"/><use x="89.06" xlink:href="#u"/><use x="148.24" xlink:href="#c"/></g><path fill="#f24b7d" stroke="#f24b7d" d="M434.1 357.8h20v-7h-20z"/><g transform="matrix(.1 0 0 -.1 462.1 357.8)"><use xlink:href="#n"/><use x="54.98" xlink:href="#m"/><use x="118.46" xlink:href="#m"/></g><path fill="#555" stroke="#555" d="M434.1 372.5h20v-7h-20z"/><use xlink:href="#n" transform="matrix(.1 0 0 -.1 462.1 372.5)"/><path fill="#563d7c" stroke="#563d7c" d="M434.1 387.2h20v-7h-20z"/><g transform="matrix(.1 0 0 -.1 462.1 387.2)"><use xlink:href="#aj"/><use x="81.79" xlink:href="#b"/><use x="143.31" xlink:href="#y"/><use x="206.79" xlink:href="#al"/><use x="256.79" xlink:href="#m"/><use x="320.26" xlink:href="#l"/><use x="361.35" xlink:href="#q"/><use x="422.53" xlink:href="#r"/><use x="450.31" xlink:href="#b"/><use x="511.83" xlink:href="#n"/><use x="566.81" xlink:href="#e"/></g><path fill="#b1011d" stroke="#b1011d" d="M434.1 402.2h20v-7h-20z"/><g transform="matrix(.1 0 0 -.1 462.1 402.2)"><use xlink:href="#q"/><use x="61.18" xlink:href="#e"/><use x="100.39" xlink:href="#x"/><use x="163.77" xlink:href="#b"/><use x="225.29" xlink:href="#l"/></g></svg>