<svg xmlns="http://www.w3.org/2000/svg" xmlns:xlink="http://www.w3.org/1999/xlink" viewBox="0 0 490 404"><defs><style>*{stroke-linecap:butt;stroke-linejoin:round;stroke-miterlimit:100000;}</style><path id="o" d="M63.38 33.3V0H45.8v25.4q0 7.16-.32 9.85-.3 2.7-1.1 3.95-1.02 1.72-2.8 2.68-1.74.95-4 .95-5.46 0-8.58-4.24t-3.12-11.7V0H8.4v75.98h17.5v-29.3q3.95 4.8 8.4 7.05Q38.7 56 44.07 56q9.48 0 14.4-5.8 4.9-5.8 4.9-16.9"/><path id="d" d="M27.48 70.22V54.7h18.04V42.2H27.48V19q0-3.8 1.52-5.16 1.52-1.34 6.02-1.34H44V0H29Q18.66 0 14.33 4.3q-4.3 4.34-4.3 14.7v23.2H1.3v12.5h8.72v15.5z"/><path id="j" d="M62.98 27.48v-4.96H22.12q.63-6.16 4.44-9.24 3.82-3.08 10.64-3.08 5.52 0 11.3 1.64 5.8 1.64 11.9 4.96V3.33Q54.2.98 48-.22t-12.4-1.2q-14.85 0-23.08 7.54Q4.3 13.68 4.3 27.3q0 13.37 8.08 21.04Q20.45 56 34.62 56q12.9 0 20.63-7.76 7.73-7.76 7.73-20.76M45.02 33.3q0 5-2.9 8.04-2.92 3.05-7.6 3.05-5.08 0-8.25-2.9-3.18-2.9-3.96-8.3z"/><path id="h" d="M34.42 43.5q-5.8 0-8.86-4.17-3.04-4.17-3.04-12.03t3.04-12.05q3.05-4.17 8.86-4.17 5.72 0 8.74 4.17 3.03 4.2 3.03 12.05t-3.1 12.03q-3 4.17-8.7 4.17m0 12.5q14.1 0 22-7.62 7.9-7.6 7.9-21.08 0-13.5-8-21.1-7.9-7.62-22-7.62-14.2 0-22.2 7.6-7.9 7.64-7.9 21.12 0 13.47 7.95 21.08Q20.25 56 34.4 56"/><path id="e" d="M49.03 39.8q-2.3 1.08-4.58 1.58-2.26.5-4.56.5-6.8 0-10.4-4.32-3.7-4.3-3.7-12.36V0H8.4v54.7h17.5v-9q3.37 5.38 7.73 7.83Q38 56 44.1 56q.87 0 1.88-.08 1.04-.06 3-.3z"/><path id="b" d="M77.48 30.08q-3.45 0-5.36-3-1.9-3-1.9-8.58 0-5.6 1.87-8.6t5.3-3q3.5 0 5.4 3 1.8 3 1.8 8.6 0 5.58-1.9 8.58t-5.4 3m0 8.2q9.1 0 14.3-5.28Q97 27.73 97 18.5q0-9.22-5.2-14.58-5.23-5.34-14.33-5.34-9.07 0-14.32 5.34Q57.9 9.28 57.9 18.5q0 9.2 5.26 14.48 5.25 5.3 14.32 5.3M32.72-1.42h-10.8l45.56 75.64h10.85zM22.7 74.22q9.08 0 14.28-5.3 5.2-5.3 5.2-14.53T37 39.8q-5.2-5.32-14.28-5.32t-14.3 5.34q-5.2 5.33-5.2 14.55t5.2 14.5q5.2 5.3 14.28 5.3m0-8.2q-3.5 0-5.42-3.04-1.9-3-1.9-8.6t1.9-8.66q1.9-3.04 5.42-3.04t5.4 3.05q1.88 3.08 1.88 8.7 0 5.56-1.9 8.57Q26.18 66 22.7 66"/><path id="r" d="M36.2 35.98q-4.95 0-7.42-3.2-2.47-3.2-2.47-9.6 0-6.38 2.5-9.6 2.5-3.17 7.4-3.17 5 0 7.5 3.2t2.5 9.6q0 6.4-2.4 9.6-2.5 3.2-7.4 3.2m23.2 35V57.6q-4.6 2.2-8.7 3.25-4.1 1.04-8 1.04-8.4 0-13.1-4.7-4.7-4.7-5.46-13.8 3.2 2.4 6.93 3.6 3.76 1.2 8.2 1.2 11.2 0 18.04-6.6 6.86-6.5 6.86-17.1 0-11.78-7.67-18.8Q48.9-1.4 36-1.4q-14.2 0-22 9.6-7.8 9.53-7.8 27.15 0 18.06 9.1 28.4 9.12 10.3 24.98 10.3 5.03 0 9.77-.77 4.73-.8 9.37-2.35"/><path id="ac" d="M46.58 39.3q7.37-1.9 11.2-6.6 3.84-4.72 3.84-12 0-10.84-8.3-16.48Q45-1.42 29.1-1.42q-5.64 0-11.28.9T6.7 2.2v14.5q5.27-2.64 10.46-3.98 5.2-1.34 10.23-1.34 7.4 0 11.4 2.57 4 2.6 4 7.44 0 4.9-4.1 7.5t-12 2.6h-7.5v12.1h7.9q7.1 0 10.5 2.2 3.5 2.2 3.5 6.7 0 4.1-3.4 6.4t-9.5 2.3q-4.6 0-9.2-1.1-4.7-1-9.3-3V71q5.6 1.57 11 2.35 5.46.8 10.74.8 14.2 0 21.27-4.7 7.07-4.65 7.07-14.02 0-6.4-3.37-10.5-3.36-4.07-9.95-5.73"/><path id="a" d="M10.2 18.9h17.58V0H10.2z"/><path id="v" d="M3.52 54.7h17L29.7 17l9.22 37.7h14.6l9.18-37.3 9.22 37.3h17L74.52 0h-19.1L46.2 37.6 37 0H17.9z"/><path id="aa" d="M50-14.3v-9.28H0v9.27z"/><path id="c" d="M25.88 7.9v-28.7H8.4v75.5h17.5v-8q3.62 4.77 8 7.03Q38.3 56 44 56q10.1 0 16.6-8.03 6.5-8.03 6.5-20.67T60.6 6.6Q54.1-1.42 44-1.42q-5.72 0-10.1 2.27-4.4 2.28-8.02 7.06M37.5 43.3q-5.6 0-8.62-4.12-3-4.13-3-11.9 0-7.76 3-11.88 3-4.13 8.62-4.13t8.56 4.1q2.97 4.1 2.97 11.92 0 7.8-2.97 11.9-2.95 4.1-8.56 4.1"/><path id="i" d="M8.4 54.7h17.5V.97q0-11-5.3-16.78-5.25-5.8-15.25-5.8H-3.3v11.4h3q4.98 0 6.84 2.2Q8.4-5.6 8.4 1zm0 21.28h17.5V61.72H8.4z"/><path id="p" d="M37.5 11.28q5.6 0 8.56 4.1 2.97 4.1 2.97 11.92 0 7.8-2.97 11.9-2.95 4.1-8.56 4.1t-8.62-4.1q-3-4.14-3-11.9 0-7.77 3-11.9 3-4.12 8.62-4.12m-11.62 35.4q3.62 4.8 8 7.05Q38.3 56 44 56q10.1 0 16.6-8.03 6.5-8.03 6.5-20.67T60.6 6.6q-6.5-8-16.6-8-5.72 0-10.1 2.26-4.4 2.28-8.02 7.07V0H8.4v75.98h17.5z"/><path id="f" d="M52.6 52.98V38.72q-3.57 2.44-7.16 3.6-3.6 1.18-7.46 1.18-7.3 0-11.4-4.27-4.06-4.26-4.06-11.93 0-7.68 4.07-11.96 4-4.26 11.3-4.26 4.1 0 7.8 1.22 3.7 1.23 6.8 3.62V1.62q-4-1.54-8.2-2.3-4.3-.75-8.5-.75-14.8 0-23.2 7.6T4.3 27.3t8.34 21.1Q21 56 35.8 56q4.3 0 8.47-.75 4.17-.75 8.32-2.27"/><path id="l" d="M10.6 72.9h46.73V59.1H25.6V47.8q2.13.6 4.3.9 2.18.33 4.52.33 13.33 0 20.75-6.67t7.42-18.58q0-11.8-8.1-18.5-8.1-6.7-22.5-6.7-6.2 0-12.3 1.2t-12 3.64v14.8q5.9-3.42 11.3-5.14 5.3-1.7 10.1-1.7 6.8 0 10.7 3.34 3.9 3.34 3.9 9.06 0 5.77-4 9.08Q35.8 36.2 29 36.2q-4.1 0-8.7-1.1t-9.87-3.3z"/><path id="u" d="M11.72 12.98h16.6V60.1L11.3 56.6v12.8l16.94 3.5H46.1V13h16.6V0H11.72z"/><path id="ab" d="M34.8 32.62q-5.25 0-8.1-2.9-2.82-2.86-2.82-8.24 0-5.37 2.82-8.23 2.85-2.84 8.1-2.84t8.03 2.9q2.78 2.9 2.78 8.3 0 5.5-2.7 8.3-2.8 2.9-8 2.9M21.2 39q-6.6 2-10 6.14-3.4 4.1-3.4 10.3 0 9.23 6.9 14.06t20.2 4.82q13.3 0 20.16-4.8 6.9-4.83 6.9-14.1 0-6.2-3.4-10.35-3.4-4.1-10.1-6.1 7.4-2 11.2-6.62 3.8-4.6 3.8-11.62 0-10.84-7.2-16.4Q49-1.3 34.8-1.3T13.36 4.27Q6.1 9.67 6.1 20.57q0 7 3.8 11.62 3.8 4.6 11.2 6.6m4.4 14.6q0-4.3 2.43-6.7 2.5-2.37 6.9-2.37t6.8 2.34q2.4 2.33 2.4 6.7 0 4.32-2.4 6.63-2.4 2.3-6.8 2.3T27.9 60q-2.4-2.33-2.4-6.63"/><path id="s" d="M36.8 57.42l-20.58-30.5h20.6zm-3.1 15.5h20.9v-46h10.38V13.27h-10.4V0H36.82v13.28H4.5v16.1z"/><path id="n" d="M1.52 54.7H19l13.62-37.8L46.2 54.7h17.5L42.2 0H23z"/><path id="g" d="M32.9 24.6q-5.46 0-8.23-1.85-2.75-1.84-2.75-5.47 0-3.3 2.22-5.2 2.24-1.88 6.2-1.88 4.9 0 8.28 3.53Q42 17.28 42 22.6v2zm26.72 6.6V0H42v8.1Q38.48 3.14 34.08.85q-4.4-2.26-10.7-2.26-8.5 0-13.8 4.9-5.28 5-5.28 12.9 0 9.6 6.6 14.1Q17.53 35 31.7 35H42v1.37q0 4.15-3.28 6.07-3.27 1.94-10.2 1.94-5.6 0-10.46-1.17-4.83-1.1-8.98-3.3v13.3q5.62 1.4 11.28 2.1 5.67.7 11.33.7 14.7 0 21.3-5.8t6.5-18.9"/><path id="m" d="M1.22 54.7H18.7l14.7-37.12 12.5 37.1h17.5l-23-59.85q-3.46-9.14-8.08-12.77-4.6-3.64-12.18-3.64h-10.1v11.47h5.46q4.44 0 6.46 1.4Q24-7.3 25.1-3.6l.5 1.5z"/><path id="w" d="M7.8 21.3v33.4h17.6v-5.5q0-4.44-.06-11.16l-.04-8.95q0-6.6.34-9.5t1.17-4.3q1.1-1.7 2.8-2.7 1.8-.9 4-.9 5.5 0 8.6 4.2 3.1 4.2 3.1 11.6v27h17.5V0H45.3v7.9Q41.37 3.14 36.95.85 32.53-1.4 27.2-1.4q-9.47 0-14.42 5.8Q7.8 10.2 7.8 21.3"/><path id="q" d="M10.02 1.6v13.5q4.48-2.12 8.57-3.16 4.1-1.05 8.1-1.05 8.4 0 13.1 4.6 4.6 4.6 5.5 13.8-3.3-2.5-7.1-3.7-3.8-1.2-8.2-1.2-11.2 0-18.1 6.5Q5 37.4 5 48.1q0 11.7 7.64 18.8Q20.34 74 33.2 74q14.25 0 22.07-9.63 7.8-9.6 7.8-27.2 0-18.07-9.1-28.4Q44.94-1.4 29-1.4q-5.12 0-9.8.76Q14.5.1 10 1.6m23.2 35.13q4.94 0 7.42 3.2 2.5 3.2 2.5 9.6 0 6.34-2.5 9.56-2.48 3.2-7.42 3.2-4.93 0-7.42-3.2-2.48-3.3-2.48-9.6 0-6.4 2.48-9.6 2.5-3.2 7.42-3.2"/><path id="k" d="M6.7 72.9h54.9V62.3L33.2 0H14.9l26.9 59.08H6.7z"/><path id="z" d="M8.4 54.7h17.5V0H8.4zm0 21.28h17.5V61.72H8.4z"/><path id="x" d="M51.12 52.98V39.7q-5.6 2.35-10.84 3.52-5.22 1.17-9.86 1.17-4.98 0-7.4-1.3-2.4-1.3-2.4-3.9 0-2.1 1.82-3.3 1.83-1.1 6.56-1.7l3.08-.48q13.44-1.7 18.06-5.6 4.64-3.9 4.64-12.25 0-8.7-6.45-13.13Q41.9-1.5 29.1-1.5q-5.4 0-11.2.88Q12.1.3 6 2v13.28q5.23-2.53 10.72-3.8 5.5-1.28 11.16-1.28 5.14 0 7.7 1.4 2.6 1.43 2.6 4.23 0 2.34-1.77 3.48-1.7 1.2-7.1 1.8l-3 .4Q14.6 23 9.9 26.9q-4.7 4-4.7 12.05 0 8.7 5.95 12.88Q17.1 56 29.4 56q4.83 0 10.15-.73 5.33-.72 11.57-2.3"/><path id="t" d="M28.8 13.8h32.1V0h-53v13.8l26.62 23.5q3.57 3.23 5.28 6.3 1.7 3.1 1.7 6.4 0 5.12-3.44 8.25t-9.15 3.13q-4.3 0-9.6-1.88-5.2-1.88-11.1-5.6v16.02q6.4 2.1 12.6 3.2 6.2 1.1 12.2 1.1 13.1 0 20.4-5.77 7.2-5.75 7.2-16.05 0-5.96-3.02-11.12-3.1-5.14-12.96-13.8z"/><path id="y" d="M63.38 33.3V0H45.8v25.48q0 7.08-.32 9.77-.3 2.7-1.1 3.95-1.02 1.72-2.8 2.68-1.74.95-4 .95-5.46 0-8.58-4.24t-3.12-11.7V0H8.4v54.7h17.5v-8q3.95 4.77 8.4 7.03Q38.7 56 44.07 56q9.48 0 14.4-5.8 4.9-5.8 4.9-16.9"/></defs><path fill="none" d="M0 404.5h490.6V0H0z"/><path fill="#b1011d" stroke="#b1011d" d="M403.1 201.9c0-11.4-1.2-22.8-3.4-34-2.3-11.2-5.7-22.2-10.1-32.7l-158.8 66.7h172.3z"/><path fill="#563d7c" stroke="#563d7c" d="M389.6 135.2c-1.1-2.6-2.2-5.1-3.4-7.6-1.2-2.4-2.4-4.9-3.7-7.3l-151.7 81.6 158.8-66.7z"/><path fill="#555" stroke="#555" d="M382.5 120.3c-1.5-2.8-3.1-5.6-4.8-8.4-1.7-2.7-3.4-5.4-5.3-8l-141.6 98 151.7-81.6z"/><path fill="#f24b7d" stroke="#f24b7d" d="M372.4 103.9c-4.7-6.9-10-13.4-15.6-19.5-5.7-6.08-11.8-11.76-18.4-16.97l-107.6 134.5 141.6-98z"/><path fill="#af7219" stroke="#af7219" d="M338.4 67.43c-7.7-6.2-16-11.72-24.7-16.5s-17.8-8.8-27.2-12l-55.7 163 107.6-134.5z"/><path fill="#701516" stroke="#701516" d="M286.5 38.92c-13.4-4.6-27.4-7.53-41.6-8.7-14.2-1.16-28.5-.57-42.5 1.78l28.4 169.9 55.7-163z"/><path fill="#d2bc12" stroke="#d2bc12" d="M202.4 32c-40.8 6.8-77.7 28.04-104.1 59.8-26.45 31.8-40.57 72-39.8 113.3l172.3-3.2L202.4 32z"/><path fill="#3572a4" stroke="#3572a4" d="M58.5 205.1c.84 45.4 19.6 88.7 52.1 120.4 32.6 31.6 76.4 49.2 121.8 48.7 45.4-.4 88.8-18.7 120.8-51 31.9-32.2 49.9-75.9 49.9-121.3H230.8l-172.3 3.2z"/><g transform="matrix(.1 0 0 -.1 416.6 167.8)"><use xlink:href="#h"/><use x="68.7" xlink:href="#d"/><use x="116.5" xlink:href="#o"/><use x="187.7" xlink:href="#j"/><use x="255.52" xlink:href="#e"/></g><g fill="#fff" transform="matrix(.1 0 0 -.1 361.1 175.6)"><use xlink:href="#r"/><use x="69.58" xlink:href="#a"/><use x="107.57" xlink:href="#ac"/><use x="177.15" xlink:href="#b"/></g><g transform="matrix(.1 0 0 -.1 401.8 123.3)"><use xlink:href="#v"/><use x="92.38" xlink:href="#j"/><use x="160.21" xlink:href="#p"/><use x="231.79" xlink:href="#aa"/><use x="281.79" xlink:href="#c"/><use x="353.37" xlink:href="#e"/><use x="402.69" xlink:href="#h"/><use x="471.39" xlink:href="#i"/><use x="505.66" xlink:href="#j"/><use x="573.49" xlink:href="#f"/><use x="632.76" xlink:href="#d"/></g><g fill="#fff" transform="matrix(.1 0 0 -.1 349.4 140.6)"><use xlink:href="#u"/><use x="69.58" xlink:href="#a"/><use x="107.57" xlink:href="#l"/><use x="177.15" xlink:href="#b"/></g><use xlink:href="#f" transform="matrix(.1 0 0 -.1 392.4 106.2)"/><g fill="#fff" transform="matrix(.1 0 0 -.1 341.9 126.9)"><use xlink:href="#u"/><use x="69.58" xlink:href="#a"/><use x="107.57" xlink:href="#ab"/><use x="177.15" xlink:href="#b"/></g><g transform="matrix(.1 0 0 -.1 369.4 76)"><use xlink:href="#f"/><use x="59.28" xlink:href="#c"/><use x="130.86" xlink:href="#c"/></g><g fill="#fff" transform="matrix(.1 0 0 -.1 323.7 103)"><use xlink:href="#s"/><use x="69.58" xlink:href="#a"/><use x="107.57" xlink:href="#r"/><use x="177.15" xlink:href="#b"/></g><g transform="matrix(.1 0 0 -.1 322 39.1)"><use xlink:href="#i"/><use x="34.28" xlink:href="#g"/><use x="101.76" xlink:href="#n"/><use x="166.94" xlink:href="#g"/></g><g fill="#fff" transform="matrix(.1 0 0 -.1 286.3 73.9)"><use xlink:href="#l"/><use x="69.58" xlink:href="#a"/><use x="107.57" xlink:href="#l"/><use x="177.15" xlink:href="#b"/></g><g transform="matrix(.1 0 0 -.1 246.3 16.3)"><use xlink:href="#e"/><use x="49.32" xlink:href="#w"/><use x="120.51" xlink:href="#p"/><use x="192.09" xlink:href="#m"/></g><g fill="#fff" transform="matrix(.1 0 0 -.1 226.4 55.9)"><use xlink:href="#k"/><use x="69.58" xlink:href="#a"/><use x="107.57" xlink:href="#q"/><use x="177.15" xlink:href="#b"/></g><g transform="matrix(.1 0 0 -.1 18.3 84.1)"><use xlink:href="#i"/><use x="34.28" xlink:href="#g"/><use x="101.76" xlink:href="#n"/><use x="166.94" xlink:href="#g"/><use x="234.42" xlink:href="#x"/><use x="293.95" xlink:href="#f"/><use x="353.22" xlink:href="#e"/><use x="402.54" xlink:href="#z"/><use x="436.82" xlink:href="#c"/><use x="508.4" xlink:href="#d"/></g><g fill="#fff" transform="matrix(.1 0 0 -.1 94.7 109.4)"><use xlink:href="#t"/><use x="69.58" xlink:href="#t"/><use x="139.16" xlink:href="#a"/><use x="177.15" xlink:href="#k"/><use x="246.73" xlink:href="#b"/></g><g transform="matrix(.1 0 0 -.1 232.5 394.7)"><use xlink:href="#c"/><use x="71.58" xlink:href="#m"/><use x="136.77" xlink:href="#d"/><use x="184.57" xlink:href="#o"/><use x="255.76" xlink:href="#h"/><use x="324.46" xlink:href="#y"/></g><g fill="#fff" transform="matrix(.1 0 0 -.1 211.3 355.2)"><use xlink:href="#s"/><use x="69.58" xlink:href="#q"/><use x="139.16" xlink:href="#a"/><use x="177.15" xlink:href="#k"/><use x="246.73" xlink:href="#b"/></g></svg>