<svg xmlns="http://www.w3.org/2000/svg" viewBox="0 0 510 394" xmlns:xlink="http://www.w3.org/1999/xlink"><defs><style>*{stroke-linecap:butt;stroke-linejoin:round;stroke-miterlimit:100000;}</style></defs><path fill="none" d="M0 394.3h510.34V0H0z"/><path fill="none" d="M54.6 371.48H501V25.88H54.6z"/><defs><path id="p" stroke="#3572a4" d="M54.6-368.4v345.6H501.02v-69.4l-6.24-2.67-6.9 1L481-113.3l-6.67 20.9-6.88-2.1-6.67 9.53-6.9-18.2-6.88 2.8-6.67 4.5-6.9-8.58-6.66-1.62-6.9-3.37-6.44-3.93-6.9 3.45-6.9 15.1-6.65 1.75-6.9 18.3-6.67-40.26-6.9-54.03-6.88 29.32-6.67-29.23-6.9-.36-6.66-2.36-6.9-30.58-6.2-48.58-6.9-89.8-6.9-27.75H54.57z"/></defs><g clip-path="url(#l)"><use y="394.29" fill="#3572a4" stroke="#3572a4" xlink:href="#p"/></g><defs><path id="o" stroke="#d5ac43" d="M54.6-368.4h263.89l6.9 27.73 6.9 89.8 6.2 48.6 6.9 30.58 6.67 2.37 6.9.36 6.66 29.23 6.9-29.32 6.88 54.03 6.67 40.26 6.9-18.3 6.66-1.74 6.9-15.12 6.9-3.45 6.45 3.93 6.9 3.37 6.66 1.62 6.9 8.6 6.67-4.52 6.9-2.8 6.88 18.2 6.67-9.52 6.9 2.1 6.66-20.9 6.9 19.44 6.88-1L501-92.2v-276.2H54.57z"/></defs><g clip-path="url(#l)"><use y="394.29" fill="#d5ac43" stroke="#d5ac43" xlink:href="#o"/></g><path fill="none" stroke="#000" d="M54.6 371.48H501M501 371.48V25.88M54.6 371.48V25.88M54.6 25.88H501" stroke-linecap="square"/><defs><path id="d" stroke="#000" stroke-width=".5" d="M0 0v-4"/></defs><use x="81.71" y="371.48" stroke="#000" stroke-width=".5" xlink:href="#d"/><defs><path id="e" stroke="#000" stroke-width=".5" d="M0 0v4"/></defs><use x="81.71" y="25.88" stroke="#000" stroke-width=".5" xlink:href="#e"/><defs><path id="b" d="M19.2 8.3h34.4V0H7.34v8.3q5.6 5.8 15.3 15.6 9.7 9.8 12.18 12.63 4.75 5.3 6.62 9 1.9 3.7 1.9 7.25 0 5.8-4.08 9.47-4.08 3.67-10.63 3.67-4.63 0-9.8-1.6-5.13-1.62-11-4.9v9.97q5.97 2.38 11.14 3.6 5.2 1.22 9.48 1.22 11.33 0 18.07-5.67 6.72-5.66 6.72-15.13 0-4.5-1.7-8.53-1.66-4.02-6.1-9.5-1.23-1.4-7.78-8.18Q31.1 20.45 19.2 8.3"/><path id="c" d="M12.4 8.3h16.12v55.62l-17.54-3.5v8.97l17.44 3.5h9.86V8.3h16.1V0H12.42z"/><path id="a" d="M31.78 66.4q-7.6 0-11.45-7.5-3.83-7.48-3.83-22.52 0-15 3.83-22.5 3.84-7.5 11.45-7.5 7.67 0 11.5 7.5 3.84 7.5 3.84 22.5 0 15.04-3.84 22.53-3.83 7.5-11.5 7.5m0 7.82q12.27 0 18.73-9.7Q57 54.82 57 36.37q0-18.4-6.46-28.1-6.47-9.7-18.74-9.7-12.25 0-18.72 9.7-6.47 9.7-6.47 28.1 0 18.46 6.46 28.15 6.47 9.7 18.72 9.7"/></defs><g transform="matrix(.1 0 0 -.1 66.4 384.6)"><use xlink:href="#b"/><use x="63.62" xlink:href="#a"/><use x="127.25" xlink:href="#c"/><use x="190.87" xlink:href="#b"/></g><use x="163.08" y="371.48" stroke="#000" stroke-width=".5" xlink:href="#d"/><use x="163.08" y="25.88" stroke="#000" stroke-width=".5" xlink:href="#e"/><defs><path id="k" d="M40.58 39.3q7.08-1.5 11.05-6.3 3.98-4.78 3.98-11.8 0-10.8-7.4-16.72-7.43-5.9-21.1-5.9-4.58 0-9.44.9T7.62 2.2v9.52q4.1-2.4 8.97-3.6 4.88-1.23 10.2-1.23 9.28 0 14.14 3.65T45.8 21.2q0 6.44-4.52 10.07-4.5 3.64-12.56 3.64h-8.5v8.12h8.9q7.26 0 11.12 2.9t3.85 8.38q0 5.6-4 8.6-3.96 3.02-11.38 3.02-4.06 0-8.7-.9-4.64-.86-10.2-2.7v8.77q5.62 1.56 10.52 2.34t9.25.78q11.23 0 17.76-5.1Q53.9 64 53.9 55.3q0-6.05-3.46-10.23t-9.86-5.8"/></defs><g transform="matrix(.1 0 0 -.1 147.8 384.6)"><use xlink:href="#b"/><use x="63.62" xlink:href="#a"/><use x="127.25" xlink:href="#c"/><use x="190.87" xlink:href="#k"/></g><use x="244.22" y="371.48" stroke="#000" stroke-width=".5" xlink:href="#d"/><use x="244.22" y="25.88" stroke="#000" stroke-width=".5" xlink:href="#e"/><defs><path id="n" d="M37.8 64.3L12.9 25.4h24.9zm-2.6 8.6h12.4V25.4h10.42v-8.2h-10.4V0H37.8v17.2H4.9v9.5z"/></defs><g transform="matrix(.1 0 0 -.1 228.9 384.6)"><use xlink:href="#b"/><use x="63.62" xlink:href="#a"/><use x="127.25" xlink:href="#c"/><use x="190.87" xlink:href="#n"/></g><use x="325.36" y="371.48" stroke="#000" stroke-width=".5" xlink:href="#d"/><use x="325.36" y="25.88" stroke="#000" stroke-width=".5" xlink:href="#e"/><defs><path id="y" d="M10.8 72.9h38.72v-8.3h-29.7V46.72q2.15.74 4.3 1.1 2.15.36 4.3.36 12.2 0 19.33-6.7 7.14-6.7 7.14-18.1 0-11.77-7.34-18.3-7.33-6.52-20.65-6.52-4.6 0-9.35.78T7.72 1.7v9.93q4.4-2.4 9.08-3.57t9.9-1.17q8.46 0 13.38 4.43 4.94 4.44 4.94 12.06 0 7.6-4.94 12.04-4.92 4.45-13.38 4.45-3.95 0-7.9-.88-3.9-.88-8-2.74z"/></defs><g transform="matrix(.1 0 0 -.1 310.1 384.6)"><use xlink:href="#b"/><use x="63.62" xlink:href="#a"/><use x="127.25" xlink:href="#c"/><use x="190.87" xlink:href="#y"/></g><use x="406.51" y="371.48" stroke="#000" stroke-width=".5" xlink:href="#d"/><use x="406.51" y="25.88" stroke="#000" stroke-width=".5" xlink:href="#e"/><defs><path id="m" d="M33.02 40.38q-6.64 0-10.54-4.55Q18.6 31.3 18.6 23.4q0-7.87 3.88-12.45 3.9-4.56 10.54-4.56t10.5 4.55q3.9 4.58 3.9 12.44 0 7.9-3.9 12.43-3.86 4.55-10.5 4.55M52.6 71.3v-9q-3.72 1.76-7.5 2.68-3.8.94-7.5.94-9.77 0-14.93-6.6-5.14-6.6-5.87-19.9 2.87 4.24 7.22 6.5 4.36 2.27 9.57 2.27 10.98 0 17.35-6.68 6.38-6.66 6.38-18.13 0-11.24-6.64-18.04Q44.04-1.42 33-1.42q-12.66 0-19.35 9.7-6.7 9.7-6.7 28.1 0 17.28 8.22 27.56t22 10.28q3.72 0 7.5-.74t7.9-2.18"/></defs><g transform="matrix(.1 0 0 -.1 391.2 384.6)"><use xlink:href="#b"/><use x="63.62" xlink:href="#a"/><use x="127.25" xlink:href="#c"/><use x="190.87" xlink:href="#m"/></g><use x="487.87" y="371.48" stroke="#000" stroke-width=".5" xlink:href="#d"/><use x="487.87" y="25.88" stroke="#000" stroke-width=".5" xlink:href="#e"/><defs><path id="x" d="M8.2 72.9h46.88v-4.2L28.6 0H18.3l24.92 64.6H8.2z"/></defs><g transform="matrix(.1 0 0 -.1 472.6 384.6)"><use xlink:href="#b"/><use x="63.62" xlink:href="#a"/><use x="127.25" xlink:href="#c"/><use x="190.87" xlink:href="#x"/></g><defs><path id="m9566b2b39f" stroke="#000" stroke-width=".5" d="M0 0h4"/></defs><use x="54.59" y="371.48" stroke="#000" stroke-width=".5" xlink:href="#m9566b2b39f"/><defs><path id="m22de6694bc" stroke="#000" stroke-width=".5" d="M0 0h-4"/></defs><use x="500.99" y="371.48" stroke="#000" stroke-width=".5" xlink:href="#m22de6694bc"/><use xlink:href="#a" transform="matrix(.1 0 0 -.1 43 374.8)"/><use x="54.59" y="302.36" stroke="#000" stroke-width=".5" xlink:href="#m9566b2b39f"/><use x="500.99" y="302.36" stroke="#000" stroke-width=".5" xlink:href="#m22de6694bc"/><g transform="matrix(.1 0 0 -.1 35.3 305.7)"><use xlink:href="#b"/><use x="63.62" xlink:href="#a"/></g><use x="54.59" y="233.24" stroke="#000" stroke-width=".5" xlink:href="#m9566b2b39f"/><use x="500.99" y="233.24" stroke="#000" stroke-width=".5" xlink:href="#m22de6694bc"/><g transform="matrix(.1 0 0 -.1 35.3 236.6)"><use xlink:href="#n"/><use x="63.62" xlink:href="#a"/></g><use x="54.59" y="164.12" stroke="#000" stroke-width=".5" xlink:href="#m9566b2b39f"/><use x="500.99" y="164.12" stroke="#000" stroke-width=".5" xlink:href="#m22de6694bc"/><g transform="matrix(.1 0 0 -.1 35.3 167.4)"><use xlink:href="#m"/><use x="63.62" xlink:href="#a"/></g><use x="54.59" y="95" stroke="#000" stroke-width=".5" xlink:href="#m9566b2b39f"/><use x="500.99" y="95" stroke="#000" stroke-width=".5" xlink:href="#m22de6694bc"/><defs><path id="w" d="M31.78 34.63q-7.03 0-11.06-3.77-4.02-3.77-4.02-10.34 0-6.6 4.02-10.36Q24.75 6.4 31.78 6.4t11.08 3.77q4.06 3.8 4.06 10.35 0 6.57-4.03 10.34-4.03 3.77-11.12 3.77m-9.86 4.18q-6.34 1.58-9.9 5.92-3.52 4.36-3.52 10.6 0 8.74 6.22 13.82 6.23 5.08 17.06 5.08 10.9 0 17.1-5.08t6.2-13.8q0-6.26-3.55-10.62-3.53-4.34-9.83-5.9 7.13-1.66 11.1-6.5 3.98-4.84 3.98-11.8 0-10.6-6.47-16.28-6.46-5.66-18.52-5.66-12.05 0-18.53 5.66Q6.78 9.9 6.78 20.52q0 6.96 4 11.8 4.02 4.84 11.14 6.5m-3.6 15.57q0-5.67 3.52-8.84 3.55-3.17 9.94-3.17 6.36 0 9.94 3.16 3.6 3.17 3.6 8.83t-3.6 8.83q-3.58 3.18-9.94 3.18-6.4 0-9.94-3.17-3.53-3.17-3.53-8.84"/></defs><g transform="matrix(.1 0 0 -.1 35.3 98.3)"><use xlink:href="#w"/><use x="63.62" xlink:href="#a"/></g><use x="54.59" y="25.88" stroke="#000" stroke-width=".5" xlink:href="#m9566b2b39f"/><use x="500.99" y="25.88" stroke="#000" stroke-width=".5" xlink:href="#m22de6694bc"/><g transform="matrix(.1 0 0 -.1 27.7 29.2)"><use xlink:href="#c"/><use x="63.62" xlink:href="#a"/><use x="127.25" xlink:href="#a"/></g><defs><path id="t" d="M45.4 27.98q0 9.77-4.03 15.13-4 5.38-11.3 5.38-7.2 0-11.24-5.37Q14.8 37.76 14.8 28q0-9.7 4.03-15.1t11.25-5.36q7.28 0 11.3 5.37 4.03 5.37 4.03 15.08m9-21.2q0-13.95-6.2-20.76-6.2-6.82-19-6.82-4.73 0-8.93.7T12.1-17.9v8.73q3.96-2.13 7.82-3.14 3.86-1.04 7.86-1.04 8.85 0 13.24 4.6t4.4 13.95v4.46q-2.8-4.85-7.14-7.24T27.88 0q-10.05 0-16.2 7.66Q5.5 15.33 5.5 27.98q0 12.7 6.15 20.35Q17.83 56 27.87 56q6.07 0 10.4-2.4t7.14-7.2v8.3h9z"/><path id="v" d="M34.28 27.48q-10.9 0-15.1-2.48T15 16.5q0-4.78 3.16-7.6 3.16-2.8 8.56-2.8 7.5 0 12 5.3t4.52 14.08v2zM52.2 31.2V0h-8.98v8.3Q40.14 3.33 35.55.95T24.3-1.42q-8.38 0-13.35 4.72Q6 8.02 6 15.92q0 9.22 6.17 13.9 6.2 4.7 18.44 4.7h12.62v.9q0 6.2-4.08 9.58T27.7 48.4q-4.7 0-9.15-1.13-4.44-1.13-8.53-3.38v8.3q4.92 1.9 9.56 2.85 4.64.95 9.03.95 11.9 0 17.74-6.16Q52.2 43.7 52.2 31.2"/><path id="g" d="M19.67 64.8V37.4h12.4q6.9 0 10.65 3.57 3.76 3.56 3.76 10.15 0 6.55-3.76 10.1-3.75 3.58-10.64 3.58zM9.8 72.9H32.1q12.26 0 18.53-5.54 6.3-5.55 6.3-16.23 0-10.8-6.3-16.32-6.26-5.5-18.52-5.5h-12.4V0H9.8z"/><path id="j" d="M56.2 29.6v-4.4H14.9q.58-9.28 5.58-14.14T34.42 6.2q5.17 0 10.03 1.27t9.66 3.8v-8.5Q49.28.74 44.2-.32t-10.3-1.1q-13.1 0-20.74 7.62-7.64 7.6-7.64 20.6 0 13.43 7.25 21.3Q20.02 56 32.33 56q11.03 0 17.45-7.1t6.42-19.3m-8.98 2.63q-.1 7.36-4.13 11.75-4.04 4.4-10.68 4.4-7.5 0-12.03-4.24t-5.2-11.97z"/><path id="BitstreamVeraSans-Roman-6e" d="M54.9 33.02V0h-9v32.72q0 7.76-3.02 11.6-3.04 3.87-9.08 3.87-7.28 0-11.5-4.65-4.2-4.63-4.2-12.64V0H9.1v54.7h9.03v-8.5q3.24 4.93 7.6 7.36Q30.08 56 35.8 56q9.42 0 14.25-5.83 4.84-5.83 4.84-17.15"/><path id="f" d="M18.3 70.22V54.7h18.5v-7H18.3V18.02q0-6.7 1.84-8.6t7.45-1.9h9.2V0h-9.2Q17.2 0 13.22 3.87q-3.95 3.9-3.95 14.15V47.7h-6.6v7h6.6V70.2z"/><path id="u" d="M48.78 52.6v-8.4q-3.8 2.1-7.64 3.14T33.4 48.4q-8.74 0-13.6-5.56Q15 37.3 15 27.3t4.83-15.56Q24.67 6.2 33.4 6.2q3.9 0 7.74 1.05t7.64 3.16V2.1Q45.02.33 40.98-.54q-4-.9-8.56-.9-12.36 0-19.64 7.77Q5.52 14.1 5.52 27.3q0 13.37 7.34 21.03Q20.22 56 33 56q4.16 0 8.1-.86 3.96-.84 7.68-2.55"/><path id="s" d="M41.1 46.3q-1.5.87-3.3 1.28-1.77.42-3.9.42-7.63 0-11.7-4.95T18.1 28.8V0H9.1v54.7h9.03v-8.5q2.85 4.97 7.38 7.38Q30.03 56 36.53 56q.92 0 2.05-.12 1.12-.1 2.48-.36z"/></defs><g transform="matrix(0 -.2 -.2 0 19.4 244.1)"><use xlink:href="#g"/><use x="60.26" xlink:href="#j"/><use x="121.78" xlink:href="#s"/><use x="162.86" xlink:href="#u"/><use x="217.84" xlink:href="#j"/><use x="279.37" xlink:href="#BitstreamVeraSans-Roman-6e"/><use x="342.74" xlink:href="#f"/><use x="381.95" xlink:href="#v"/><use x="443.23" xlink:href="#t"/><use x="506.71" xlink:href="#j"/></g><defs><path id="h" d="M32.17-5.08q-3.8-9.76-7.42-12.73-3.6-3-9.66-3H7.9v7.52h5.3q3.7 0 5.74 1.76 2.06 1.75 4.54 8.3l1.6 4.1L3 54.68h9.52l17.1-42.76L46.7 54.7h9.5z"/><path id="q" d="M2.98 54.7h9.52L29.6 8.8l17.1 45.9h9.5L35.7 0H23.47z"/><path id="i" d="M54.9 33.02V0h-9v32.72q0 7.76-3.02 11.6-3.04 3.87-9.08 3.87-7.28 0-11.5-4.65-4.2-4.63-4.2-12.64V0H9.1v75.98h9.03v-29.8q3.24 4.94 7.6 7.38Q30.08 56 35.8 56q9.42 0 14.25-5.83 4.84-5.83 4.84-17.15"/><path id="r" d="M44.28 53.08v-8.5q-3.8 1.95-7.9 2.92-4.1.98-8.5.98-6.7 0-10.04-2.04t-3.34-6.16q0-3.12 2.4-4.9t9.62-3.4l3.07-.68q9.56-2.05 13.6-5.78T47.2 15.1q0-7.63-6.03-12.08-6.04-4.44-16.6-4.44-4.38 0-9.15.86T5.42 2v9.28q5-2.6 9.8-3.9 4.84-1.27 9.6-1.27 6.34 0 9.74 2.18 3.42 2.17 3.42 6.13 0 3.66-2.46 5.62-2.46 1.95-10.82 3.76l-3.12.74q-8.34 1.75-12.06 5.4-3.7 3.63-3.7 9.97 0 7.7 5.46 11.9Q16.75 56 26.8 56q4.98 0 9.37-.73 4.4-.72 8.1-2.2"/><path id="BitstreamVeraSans-Roman-6f" d="M30.6 48.4q-7.2 0-11.4-5.65T14.97 27.3t4.18-15.46Q23.34 6.2 30.6 6.2q7.2 0 11.38 5.66 4.2 5.67 4.2 15.44 0 9.72-4.2 15.4-4.18 5.7-11.37 5.7m0 7.6q11.73 0 18.4-7.62 6.72-7.6 6.72-21.08 0-13.42-6.7-21.08-6.7-7.64-18.4-7.64-11.78 0-18.45 7.64Q5.5 13.88 5.5 27.3q0 13.47 6.67 21.08Q18.84 56 30.6 56"/></defs><g transform="matrix(.2 0 0 -.2 182.5 20.9)"><use xlink:href="#g"/><use x="60.3" xlink:href="#h"/><use x="119.48" xlink:href="#f"/><use x="158.69" xlink:href="#i"/><use x="222.07" xlink:href="#BitstreamVeraSans-Roman-6f"/><use x="283.25" xlink:href="#BitstreamVeraSans-Roman-6e"/><use x="346.63" xlink:href="#BitstreamVeraSans-Roman-20"/><use x="378.42" xlink:href="#b"/><use x="442.04" xlink:href="#BitstreamVeraSans-Roman-20"/><use x="473.83" xlink:href="#q"/><use x="533.01" xlink:href="#r"/><use x="585.11" xlink:href="#BitstreamVeraSans-Roman-20"/><use x="616.89" xlink:href="#g"/><use x="677.2" xlink:href="#h"/><use x="736.38" xlink:href="#f"/><use x="775.59" xlink:href="#i"/><use x="838.96" xlink:href="#BitstreamVeraSans-Roman-6f"/><use x="900.15" xlink:href="#BitstreamVeraSans-Roman-6e"/><use x="963.53" xlink:href="#BitstreamVeraSans-Roman-20"/><use x="995.31" xlink:href="#k"/></g><path fill="#fff" stroke="#000" d="M64.6 100.6H225V35.87H64.6z"/><path fill="#3572a4" stroke="#3572a4" d="M72.6 59.07h40v-14h-40z"/><g transform="matrix(.2 0 0 -.2 128.6 59.1)"><use xlink:href="#g"/><use x="60.3" xlink:href="#h"/><use x="119.48" xlink:href="#f"/><use x="158.69" xlink:href="#i"/><use x="222.07" xlink:href="#BitstreamVeraSans-Roman-6f"/><use x="283.25" xlink:href="#BitstreamVeraSans-Roman-6e"/><use x="346.63" xlink:href="#BitstreamVeraSans-Roman-20"/><use x="378.42" xlink:href="#b"/></g><path fill="#d5ac43" stroke="#d5ac43" d="M72.6 88.43h40v-14h-40z"/><g transform="matrix(.2 0 0 -.2 128.6 88.4)"><use xlink:href="#g"/><use x="60.3" xlink:href="#h"/><use x="119.48" xlink:href="#f"/><use x="158.69" xlink:href="#i"/><use x="222.07" xlink:href="#BitstreamVeraSans-Roman-6f"/><use x="283.25" xlink:href="#BitstreamVeraSans-Roman-6e"/><use x="346.63" xlink:href="#BitstreamVeraSans-Roman-20"/><use x="378.42" xlink:href="#k"/></g><defs><clipPath id="l"><path d="M54.6 25.88H501v345.6H54.6z"/></clipPath></defs></svg>