<svg xmlns="http://www.w3.org/2000/svg" viewBox="0 0 196 26"><path d="M32 0H4c-.2 0-.4.01-.6.04V1.8H.65A3.98 3.98 0 000 4v18a4 4 0 004 4h28a4 4 0 004-4V4a4 4 0 00-4-4z" fill="#00247d"/><path d="M29.16 11.2l-1.53 3.94-1.53-3.93 1.53-3.93z" fill="#288548"/><path d="M24.35 12.57s.28.6.91.6c.64 0 1-.46 1-.46l.64.82s-.4.27-.4.6c0 0-.28-.28-.19-.51 0 0-.18.18-.32.23 0 0-.04-.27.05-.41 0 0-.32.18-.73.18s-.82-.27-.91-.5c-.1-.23-.05-.55-.05-.55zm2.55-.59c0 .15-.12.27-.27.27h-.23a.27.27 0 010-.54h.23c.15 0 .27.12.27.27zm1.41-.36c0 .15-.12.27-.27.27h-.23a.27.27 0 010-.55h.23c.15 0 .27.13.27.28z" fill="#fff"/><path d="M27.08 12.19a.27.27 0 01-.38-.09l-.1-.15a.27.27 0 01.09-.38l.03-.02c.13-.08.3-.04.38.08l.1.16c.08.12.04.3-.08.37zm1.54-.18a.27.27 0 01-.37-.09l-.1-.15a.27.27 0 01.08-.38l.04-.02c.13-.08.3-.04.38.08l.1.16c.08.12.04.3-.09.37z" fill="#6488bd"/><path d="M27.62 12.1a.27.27 0 01-.37-.09l-.1-.15a.27.27 0 01.08-.38l.04-.02c.13-.08.3-.04.38.08l.1.16c.08.12.04.3-.09.37zm1.34.13a.27.27 0 01-.27-.28l.01-.18c0-.15.13-.27.28-.27h.05c.15.01.27.14.26.29v.18c0 .15-.13.27-.28.26z" fill="#297f47"/><path d="M27.63 11.7c.59-.02 1.46 1.7 1.5 1.92.05.23-.27.86-.5 1-.23.14-1.27.27-1.55.05-.27-.23-.31-.82-.36-1-.05-.19-.5-.82-.5-.82l-.5-.1.18-.18.6.05.04-.18h-.28s.41-.69 1.37-.73z" fill="#689f9e"/><path d="M27.45 14.53c.22-.27 1.04-.95 1.32-.82.27.14.22.41-.05.68-.27.28-1.27.14-1.27.14z" fill="#481918"/><path d="M27.63 14.44H24.9v2.41c0 1.64.61 2.5 1.11 2.96.5.45 1.62.86 1.62.86s1.11-.4 1.61-.86c.5-.46 1.12-1.32 1.12-2.96v-2.41z" fill="#fff"/><path d="M29.63 19.08c-.36 0-.64.41-1 .41s-.64-.36-.95-.36c-.32 0-.6.36-.96.36s-.64-.41-1-.41a.64.64 0 00-.25.07c.17.28.37.5.54.66.5.45 1.62.86 1.62.86s1.11-.4 1.61-.86c.19-.17.39-.4.57-.7a.57.57 0 00-.18-.03zm0-1.96c-.36 0-.64.41-1 .41s-.64-.36-.95-.36c-.32 0-.6.36-.96.36s-.64-.4-1-.4c-.25 0-.57.25-.78.37.03.29.08.55.15.78.17-.12.35-.25.58-.25.46 0 .78.41 1.1.41.31 0 .59-.31.9-.31.32 0 .6.31.91.31.32 0 .64-.4 1.1-.4.2 0 .35.09.5.19.07-.23.12-.5.15-.78-.21-.13-.48-.33-.7-.33zm0-1.95c-.36 0-.64.4-1 .4s-.64-.36-.95-.36c-.32 0-.6.37-.96.37s-.64-.41-1-.41c-.27 0-.6.29-.82.4v.89c.24-.15.47-.38.77-.38.46 0 .78.4 1.1.4.31 0 .59-.31.9-.31.32 0 .6.32.91.32.32 0 .64-.41 1.1-.41.26 0 .47.17.68.32v-.89c-.21-.12-.5-.34-.73-.34z" fill="#3ab1d6"/><path d="M25.13 18.41c.14.41.32.73.5.99l2-2.23 1.99 2.23c.2-.25.37-.58.5-.98l-2.5-2.7z" fill="#288548"/><path d="M23.53 18.9c.15-.01.47-.01.6.04.37.18.63.6.63.6s.55.4.6.68c0 0 .4.18.4.36s-.59.37-.77.32c-.18-.05-.68-.18-.86-.1-.19.1-.73.24-.96.2-.23-.06-.5 0-.68 0-.18 0-.41-.2-.69-.28-.27-.1-.9.09-1-.18-.09-.28.64-.55.91-.55.28 0 1.05-1.05 1.82-1.1z" fill="#74948f"/><path d="M23.03 19.13l.28.04c.04 0 .31-.09.4-.04.1.04.05.18.19.22.13.05.18.1.09.23l-.18.27s-.5.1-.69.19c-.18.09-.54.23-.13.27.4.05 1 .23.9.27-.09.05-.63 0-.81 0-.19 0-.55.1-.64.1-.1 0-.36.04-.23.13.14.1-.18-.05-.36-.1-.18-.04-.6-.17-.32-.26.27-.1.5-.05.64-.05.13 0 .32-.18.18-.23-.14-.04.14-.36.41-.4.27-.05.73-.15.36-.24-.36-.09-.4-.22-.09-.4z" fill="#cfdcd9"/><path d="M23.35 20.04c.18-.05.64.04.6.13-.05.1-.1.19-.23.14a1.43 1.43 0 01-.37-.27z" fill="#cfdcd9"/><path d="M25.35 20.22c-.04-.28-.59-.68-.59-.68s-.24-.4-.6-.58c-.14.05-.19.16-.04.26.23.13.23.22.14.27a.54.54 0 00-.23.23c-.04.09.14-.05.37 0 .23.04.23.04.4.09.19.04.37.23.28.27-.09.05.1.1.14.23.04.14-.1.1-.28.1-.18 0-.68 0-.73.04-.04.04.87.04.87.13 0 .1-.5 0-.64.05-.13.04-.59.14-.77.09-.18-.05-.55-.1-.64-.05-.09.05-.32.1-.04.14.27.05.72.05 1 0 .27-.04.45-.23.73-.14.14.05.14.13.16.2l.1.03c.12.03.37-.02.56-.11l.2-.14a.11.11 0 00.02-.07c0-.18-.4-.36-.4-.36z" fill="#3c4544"/><path d="M23.76 18.72s-.09-.41 0-.46c.1-.04.23.14.23.14s0-.5.14-.46c.13.05.18.23.18.23s.14-.36.27-.27c.14.09 0 .36 0 .36s.32.14.23.28c-.1.13-.55.13-.64.18-.09.04-.04.18.05.14.09-.05.54-.23.5-.05-.05.18-.14.23-.32.23s-.5-.1-.5-.1l-.41.28-.05-.05zm-.77-.46c.04.18.09.23.27.23.18 0 .32.1.23.18-.1.1-.32.1-.32.1l.14.36-.05.04-.18-.36-.18.23s-.28-.19-.19-.28c.1-.09.28-.09.19-.18-.1-.09-.23-.36.04-.32.27.05-.18.14-.18.14m-2.5 1.77c.04-.09.32-.18.32-.18s.04-.36.18-.36c.14 0 .27.27.27.27s.05-.18.14-.14c.09.05.32.28.27.37-.04.09-.1.4-.27.45-.18.05-.37-.27-.37-.27s-.09.04-.27.04c-.18 0-.27-.18-.27-.18zm4.14-.73s.14-.4.27-.36c.14.05.14.23.14.23s.4-.05.59.09c.18.14.18.4-.04.5-.23.1-.55-.1-.6-.14-.04-.04-.04.5-.22.5-.19 0-.28-.22-.23-.36.04-.14 0-.27 0-.27s-.37 0-.46.18c0 0 .1-.14.28-.23z" fill="#288548"/><path d="M24.17 12.9s-.14-.28-.6-.1a.89.89 0 00-.58.73c-.05.23.09.46-.23.68-.32.23-.55 1.64-.18 1.6.36-.05.45-.1.63.04.19.14.6.18.87-.13 0 0 .27.4.27.63 0 .23-.09.87.18.96 0 0 .41-.55.41-1.1 0-.54-.13-1.13-.59-1.4 0 0 .18-.14.32-.32.14-.19.23-.14.5-.14h.73s-.18-.41-.41-.5c-.23-.1-.64-.32-1.05 0l-.68.55-.05-.32s.1-.19.28-.37c.18-.18.18-.45.18-.59z" fill="#d1bea7"/><path d="M24.94 13.67c.78 0 1 .72 1 .72h-.81s-.14-.04-.23-.04c-.1 0-.41.23-.55.5-.14.27-.82-.05-.68-.27.14-.23.46-.91 1.27-.91z" fill="#937a61"/><path d="M23.35 14.53c.02-.08.16-.09.32-.06.18.04.34.19.5.24.41.14.87.73.87 1.28 0 .54-.41 1.18-.46 1.31-.04.14-.14 0-.18-.13-.05-.14-.05-.46-.05-.73 0-.27-.13-.68-.36-.82-.23-.13-.82-.36-.64-1.09zm-.68 3.73c0 .11.15.5.14.91l-.05.27c-.01.4-.14.6-.23.73 0 0-.22-.09-.45-.4-.23-.33-.27-.64-.14-.92.14-.27.73-.59.73-.59z" fill="#af987e"/><path d="M22.4 17.76c.04 0 .16.95.09 1.32-.14.73-.69 1.55-1.05 1.46-.36-.1-.14-.32-.04-.5.09-.19.22-.6.13-.91-.09-.32.87-1.37.87-1.37z" fill="#d1bea7"/><path d="M23.12 15.67c.14.27.46.5.82.09 0 0 .14.68-.13 1.14-.28.45-1.32 1.63-1.32 1.63l-.14-.77z" fill="#ba8f69"/><path d="M22.44 14.12c.32-.14.77.1.82.36.05.28.1.91.05 1.19-.05.27 0 .73-.1.95-.09.23-.45.46-.5.78-.04.31-.31.59-.72 1.04-.41.46-1.05 1.19-1.23 1.1-.19-.1-.41-1.73.13-3.15a6.28 6.28 0 011.55-2.27z" fill="#bb6c3f"/><path d="M23.63 12.94c.18-.1.31-.05.18.09-.14.14-.37 0-.19-.1z" fill="#020202"/><path d="M31.72 18.9c-.14-.01-.46-.01-.59.04-.38.18-.63.6-.63.6s-.55.4-.6.68c0 0-.4.18-.4.36s.59.37.77.32c.18-.05.68-.18.86-.1.18.1.73.24.96.2.22-.06.5 0 .68 0 .18 0 .4-.2.68-.28.28-.1.91.09 1-.18.1-.28-.63-.55-.9-.55-.28 0-1.05-1.05-1.83-1.1z" fill="#74948f"/><path d="M32.23 19.13l-.28.04c-.04 0-.32-.09-.4-.04-.1.04-.05.18-.19.22-.14.05-.18.1-.1.23l.2.27s.5.1.68.19c.18.09.54.23.13.27-.4.05-1 .23-.9.27.08.05.63 0 .81 0 .18 0 .55.1.64.1.09 0 .36.04.23.13-.14.1.18-.05.36-.1.18-.04.6-.17.32-.26-.28-.1-.5-.05-.64-.05s-.32-.18-.18-.23c.13-.04-.14-.36-.41-.4-.27-.05-.73-.15-.37-.24.37-.09.41-.22.1-.4z" fill="#cfdcd9"/><path d="M31.9 20.04c-.18-.05-.63.04-.59.13.05.1.1.19.23.14.14-.05.37-.27.37-.27z" fill="#cfdcd9"/><path d="M29.9 20.22c.05-.28.6-.68.6-.68s.24-.4.6-.58c.13.05.19.16.03.26-.22.13-.22.22-.13.27.09.04.18.14.22.23.05.09-.13-.05-.36 0-.23.04-.23.04-.4.09-.2.04-.37.23-.28.27.09.05-.1.1-.14.23-.04.14.1.1.27.1.19 0 .69 0 .73.04.05.04-.86.04-.86.13 0 .1.5 0 .64.05.13.04.59.14.77.09.18-.05.55-.1.64-.05.09.05.31.1.04.14-.27.05-.73.05-1 0-.27-.04-.46-.23-.73-.14-.14.05-.15.13-.16.2l-.11.03a1.1 1.1 0 01-.55-.11l-.2-.14a.11.11 0 01-.02-.07c0-.18.4-.36.4-.36z" fill="#3c4544"/><path d="M31.5 18.72s.09-.41 0-.46c-.1-.04-.23.14-.23.14s0-.5-.14-.46c-.13.05-.18.23-.18.23s-.14-.36-.27-.27c-.14.09 0 .36 0 .36s-.32.14-.23.28c.1.13.55.13.64.18.09.04.04.18-.05.14-.09-.05-.55-.23-.5-.05.05.18.14.23.32.23s.5-.1.5-.1l.4.28.05-.05zm.77-.46c-.05.18-.1.23-.27.23-.18 0-.32.1-.23.18.1.1.32.1.32.1l-.14.36.05.04.18-.36.18.23s.27-.19.18-.28c-.09-.09-.27-.09-.18-.18.1-.09.23-.36-.04-.32-.28.05.18.14.18.14m2.5 1.77c-.05-.09-.32-.18-.32-.18s-.04-.36-.18-.36c-.14 0-.27.27-.27.27s-.05-.18-.14-.14c-.1.05-.32.27-.27.37.04.09.09.4.27.45.18.05.36-.27.36-.27s.1.04.28.04c.18 0 .27-.18.27-.18zm-4.14-.73s-.14-.4-.27-.36c-.14.05-.14.23-.14.23s-.41-.05-.6.09c-.17.14-.17.4.05.5.23.1.55-.1.6-.14.04-.04.04.5.22.5.19 0 .28-.22.23-.36-.05-.14 0-.27 0-.27s.36 0 .45.18c0 0-.09-.14-.27-.23z" fill="#288548"/><path d="M31.09 12.9s.13-.28.59-.1c.45.18.54.5.59.73.05.23-.1.46.23.68.32.23.54 1.64.18 1.6-.36-.05-.45-.1-.64.04a.66.66 0 01-.86-.13s-.27.4-.27.63c0 .23.09.87-.19.96 0 0-.4-.55-.4-1.1 0-.54.13-1.13.59-1.4 0 0-.19-.14-.32-.32-.14-.19-.23-.14-.5-.14h-.73s.18-.41.41-.5c.23-.1.64-.32 1.05 0l.68.55.04-.32s-.09-.19-.27-.37c-.18-.18-.18-.45-.18-.59v-.23z" fill="#d1bea7"/><path d="M30.31 13.67c-.77 0-1 .72-1 .72h.82s.14-.04.23-.04.4.23.54.5.82-.05.69-.27c-.14-.23-.46-.91-1.28-.91z" fill="#937a61"/><path d="M31.9 14.53c-.01-.08-.15-.09-.31-.06-.18.04-.34.19-.5.24-.41.14-.87.73-.87 1.28 0 .54.41 1.18.46 1.31.04.14.13 0 .18-.13.05-.14.05-.46.05-.73 0-.27.13-.68.36-.82.23-.13.82-.36.64-1.09zm.69 3.73c0 .11-.15.5-.14.91l.05.27c.01.4.14.6.22.73 0 0 .23-.09.46-.4.23-.33.27-.64.14-.92-.14-.27-.73-.59-.73-.59z" fill="#af987e"/><path d="M32.86 17.76c-.04 0-.16.95-.09 1.32.14.73.68 1.55 1.05 1.46.36-.1.13-.32.04-.5-.09-.19-.23-.6-.14-.91.1-.32-.86-1.37-.86-1.37z" fill="#d1bea7"/><path d="M32.13 15.67c-.13.27-.45.5-.82.09 0 0-.13.68.14 1.14.27.45 1.32 1.63 1.32 1.63l.14-.77z" fill="#ba8f69"/><path d="M32.82 14.12c-.32-.14-.78.1-.82.36-.05.28-.1.91-.05 1.19.05.27 0 .73.1.95.08.23.45.46.5.78.04.31.31.59.72 1.04.41.46 1.05 1.19 1.23 1.1.18-.1.41-1.73-.14-3.15a6.302 6.302 0 00-1.54-2.27z" fill="#bb6c3f"/><path d="M31.63 12.94c-.18-.1-.31-.05-.18.09.14.14.37 0 .18-.1z" fill="#020202"/><path d="M23.22 9.75s.18.46.72.41c.55-.04.96-.18 1.1.32 0 0-.32.05-.46.27-.13.23.23.82.23.82s-.36 0-.5-.23c0 0-.05.41-.32.69-.11.11-.4.13-.4.13l.45-.9c.09-.19.18-.42-.23-.14-.41.27-.96.5-1.27.13 0 0 1.31-.59 1.59-.73-.46 0-.5-.04-.91 0-.25.03-.5.14-.5.14s-.05-.36.45-.36c.32 0-.04-.1-.09-.27-.05-.19.14-.28.14-.28zm6.96 3.73s1-.13.86-1.04-.82-1.55-.68-2.1c0 0-.33.1-.41.37-.18.59.4 1.07.5 1.23.18.27.27.59.27.59s-.5-.41-.77 0c0 0 .32-.05.45.09.14.14.23.32.1.5-.14.18-.32.36-.32.36zm2.86-3.09s.46.18.46.46c0 .27-.23.36-.6.36 0 0 .19-.14.23-.32.05-.18-.09-.5-.09-.5z" fill="#fff"/><path d="M26.04 10.07s.68.46.86.5c.18.05.91 0 .91 0l.14-.32s.36-.09.59-.09c.23 0 .5.05.5.05l.1.27-.37.82h-1.23c-.18 0-.6-.14-.68-.32-.1-.18-.46-.4-.55-.54-.1-.14-.6-.5-.27-.37z" fill="#905f41"/><path d="M27.9 10.56c0 .06-.04.1-.09.1a.1.1 0 01-.1-.1v-1.8a.1.1 0 01.2 0zm-.82.06a.1.1 0 01-.09.09.1.1 0 01-.09-.1V8.99a.1.1 0 01.18 0zm1.32 0a.1.1 0 01-.09.09.1.1 0 01-.09-.1V8.99c0-.05.04-.1.1-.1.04 0 .08.05.08.1z" fill="#905f41"/><path d="M27.27 9.44c0 .05-.17.09-.37.09-.2 0-.36-.04-.36-.1 0-.05.16-.09.36-.09.2 0 .37.04.37.1zm.18.45c0 .05-.22.1-.48.1-.27 0-.48-.05-.48-.1s.21-.1.48-.1c.26 0 .48.05.48.1zm.68-.61c0 .03-.16.06-.36.06-.2 0-.37-.03-.37-.06 0-.04.16-.07.37-.07.2 0 .36.03.36.06z" fill="#fff"/><path d="M28.68 9.25c0 .03-.14.05-.3.05-.16 0-.3-.02-.3-.05 0-.02.14-.04.3-.04.16 0 .3.02.3.04zm-.64.46c0 .05-.13.09-.3.09-.16 0-.3-.04-.3-.1 0-.04.14-.08.3-.08.17 0 .3.04.3.09zm.64 0c0 .04-.14.07-.3.07-.16 0-.3-.03-.3-.07 0-.04.14-.07.3-.07.16 0 .3.03.3.07z" fill="#fff"/><path d="M26.13 11.44s.36-.05.18-.37c0 0 .18-.09.4.14.24.23.65 0 .37-.27 0 0 .23-.14.41.04.18.19.5.23.37-.13 0 0 .31-.1.45.18.14.27.64.23.41-.14 0 0 .23-.04.32.14.09.18.18.23.18.23s.18-.23.36 0c.19.22.1.45-.22.5-.32.04-.46-.32-.46-.32s-.14.18-.36.14c-.23-.05-.37-.23-.37-.23s-.26.13-.4.13c-.23 0-.4-.22-.46-.13a.51.51 0 01-.64.13s-.22.37-.5.37c-.27 0-.54-.17-.54-.41 0-.23.13-.32.27-.27.14.04.23.27.23.27z" fill="#8fd2e2"/><path d="M25.49 12.4s-.5.13-.55.4c-.04.27-.09.32-.09.32s-.23-.1-.36-.27a1.1 1.1 0 01-.14-.73c.05-.14.23-.55.41-.77.18-.23.27-.69.23-.87-.05-.18-.27-.36-.27-.36s.59 0 .68.36c.1.36-.1.64-.1.64s.1.04.24-.14c0 0 .04.46-.23.55 0 0-.18.27-.27.5-.1.23-.25.5-.14.4.23-.18.59-.04.59-.04zm-3-1.87s-.19.22-.19.36c0 .14.19.46.46.55 0 0-.82-.32-.82-.6 0-.27.37-.31.55-.31zm7.41.27s.1-.68.6-.64c.5.05 1.22.18 1.36.05.14-.14.1-.41.1-.41s.26.04.3.18c.06.14-.13.32-.13.32s.23-.05.37.09l.27.32s-.46-.14-.68-.14c-.23 0-.87-.04-.87-.04s.64.36 1 .5c.37.13.64.27 1.1.13l-.6.37c-.13.09-.36.09-.63-.05a7.93 7.93 0 01-.73-.45s0 .31.13.63c.14.32.37.55.37.55s-.41-.1-.6-.27c-.18-.19-.18-.6-.18-.6s-.22.32-.54.23c0 0 .14-.09.23-.32.09-.22.22-.4.09-.59-.14-.18-.32-.36-.55-.31-.22.04-.4.45-.4.45zm-1.63.9c-.41.2-.69.46-.64 1.15 0 0 .23-.46.45-.6 0 0 0 .41.14.78.14.36.5.64.77.68 0 0-.31-.5-.31-.9 0 0 .27.67.72 1.08l.05-.31s-.18-.19-.23-.41c0 0 .27.36.64.36.36 0 .64-.23.68-.55 0 0-.18.1-.5.14-.32.05-.68-.14-.95-.5-.28-.36-.32-.68-.32-.68z" fill="#288548"/><path d="M19 13V0H4c-.32 0-.6.04-.6.04V1.8H.65L.53 2A3.99 3.99 0 000 4v9z" fill="#00247d"/><path d="M19 0h-2.33L12 3.27V0H7v2.57L3.4.05C2.78.13 2.2.36 1.72.7L6.42 4H4.7L.97 1.4c-.11.12-.21.25-.3.4L3.8 4H0v5h3.88L0 11.77V13h3.33L7 10.43V13h5V9.73L16.67 13H19v-2.03L16.18 9H19V4h-2.81L19 2.03z" fill="#eee"/><path d="M11 0H8v5H0v3h8v5h3V8h8V5h-8z" fill="#cf1b2b"/><path d="M19 0h-1.46L12 3.88V4h1.57L19 .2zM1.72.71c-.28.2-.53.42-.75.68L4.69 4h1.73zM6.44 9l-5.7 4h1.72L7 9.82V9zM19 12.8v-1.22L15.31 9h-1.74z" fill="#cf1b2b"/><g transform="translate(40 -5)"><path d="M36 27a4 4 0 01-4 4H4a4 4 0 01-4-4V9a4 4 0 014-4h28a4 4 0 014 4z" fill="#c60a1d"/><path d="M0 12h36v12H0z" fill="#ffc400"/><path d="M9 17v3a3 3 0 106 0v-3z" fill="#ea596e"/><path d="M12 16h3v3h-3z" fill="#f4a2b2"/><path d="M9 16h3v3H9z" fill="#dd2e44"/><ellipse cx="12" cy="14.5" rx="3" ry="1.5" fill="#ea596e"/><ellipse cx="12" cy="13.75" rx="3" ry=".75" fill="#ffac33"/><path d="M7 16h1v7H7zm9 0h1v7h-1z" fill="#99aab5"/><path d="M6 22h3v1H6zm9 0h3v1h-3zm-8-7h1v1H7zm9 0h1v1h-1z" fill="#66757f"/></g><g transform="translate(80 -5)"><path d="M36 27a4 4 0 01-4 4H4a4 4 0 01-4-4V9a4 4 0 014-4h28a4 4 0 014 4z" fill="#ed1c23"/><path d="M0 17h36v7H0z" fill="#034ea2"/><path d="M36 17V9a4 4 0 00-4-4H4a4 4 0 00-4 4v8z" fill="#fd0"/><path d="M23 19a2 2 0 01-2 2h-6a2 2 0 01-2-2v-3c0-1.1.9-2 2-2h6a2 2 0 012 2z" fill="#fd0"/><path d="M22 18c0 1.1-.9 3-2 3h-4c-1.1 0-2-1.9-2-3v-1c0-1.1.9-2 2-2h4a2 2 0 012 2z" fill="#034ea2"/><path d="M21 18c0 1.1-.9 3-2 3h-2c-1.1 0-2-1.9-2-3v-1c0-1.1.9-2 2-2h2a2 2 0 012 2z" fill="#ed1c23"/><path d="M19.97 14.13c-.13.5-.96.87-1.97.87s-1.84-.38-1.97-.87c-1.2.18-1.03.5-1.03.87 0 .55.8 1 3 1s3-.45 3-1c0-.37.18-.7-1.03-.86z" fill="#6dbe46"/><path d="M19 19a1 1 0 11-2 0v-3a1 1 0 012 0z" fill="#a6d388"/><path d="M21.5 12c.44 0 .86.05 1.25.14C22.12 11.06 20 10 18 12c-2-2-4.12-.94-4.75.14.4-.09.81-.14 1.25-.14 1.93 0 3.5.9 3.5 2 0-1.1 1.57-2 3.5-2z" fill="#662113"/><ellipse cx="18" cy="17.5" rx="2" ry="3.5" fill="#8ed2e7"/><path d="M17.5 17c-.54 0-1.04.13-1.5.34v.16c0 1.93.9 3.5 2 3.5 1 0 1.82-1.3 1.97-2.98A3.5 3.5 0 0017.5 17z" fill="#6dbe46"/><ellipse cx="18" cy="22" rx="3" ry="1" fill="#ffcc4d"/><path d="M20 23c0 .83-.9 1-2 1s-2-.17-2-1 .9-2 2-2 2 1.17 2 2z" fill="#034ea2"/><path d="M17 23c0-.83.45-2 1-2s1 1.17 1 2c0 .83-.45 1-1 1s-1-.17-1-1z" fill="#ed1c23"/><path d="M17 11c0-.55.45 0 1 0s1-.55 1 0a1 1 0 01-2 0z" fill="#ccd6dd"/><ellipse cx="18" cy="17.5" rx="1" ry=".5" fill="#fff"/><ellipse cx="13" cy="15.5" rx="1" ry=".5" fill="#c1694f"/><ellipse cx="14" cy="13.5" rx="1" ry=".5" fill="#c1694f"/><ellipse cx="23" cy="15.5" rx="1" ry=".5" fill="#c1694f"/><ellipse cx="22" cy="13.5" rx="1" ry=".5" fill="#c1694f"/></g><path d="M152 0h-28a4 4 0 00-4 4v18a4 4 0 004 4h28a4 4 0 004-4V4a4 4 0 00-4-4z" fill="#36f"/><path d="M138 13l-16.63 12.01c.7.62 1.62.99 2.63.99h28c1 0 1.93-.37 2.63-.99z" fill="red"/><path d="M138 13.02l18 1.49v-2.98zm-18-1.49v2.98l18-1.5zm2.4-11.2a4 4 0 00-2 1.92L138 13 122.4.33zm33.2 1.92a4.02 4.02 0 00-2-1.92L138 13zM139.5 0h-3l1.5 13z" fill="#ff0"/><g><path d="M164 0a4 4 0 00-4 4v15.63L186.46 0z" fill="#1eb53a"/><path d="M192 26a4 4 0 004-4V6.33L169.48 26z" fill="#00a3dd"/><path d="M192 0h-2.53L160 21.64V22a4 4 0 004 4h2.47L196 4.32V4a4 4 0 00-4-4z" fill="#141414"/><path d="M186.46 0L160 19.63v2L189.47 0zm-16.98 26L196 6.33V4.32L166.47 26z" fill="#fbd035"/></g></svg>