<svg id="Layer_1" xmlns="http://www.w3.org/2000/svg" viewBox="0 0 1680 385"><style>.st0{fill:#E6461A;} .st1{fill:#222C31;}</style><path class="st0" d="M206 0c11 2 22.4 3.3 33.3 6C314.5 24.6 371.5 88.4 382 165.4c14.2 102.4-52.4 196-154 216.3-7.2 1.5-14.7 2.3-22 3.4H104V192c0-4.3.4-8.7 1-13 6.7-43.2 46.2-76 89.5-74.2 45.7 2 82.4 37.2 85.3 82.2 4.3 66.8-63.7 113.7-124.6 86-1.3-.7-2.6-1.2-4.5-2 0 20.6 0 40.4.2 60.2 0 1 2 3 3 3.3 20 5.5 40 6.5 60 3.3 84-13.6 139-94 121-177.3-17-77.2-94-127.7-171-112C94 62.5 45 122 45 193v187c0 1.7.2 3.3.4 5H0V178c.6-4 1.3-7.8 1.8-11.8C12.4 88.5 69 25 145.2 6c10.8-3 22-4 32.8-6h28z"/><path class="st1" d="M1680 272h-31.7v-23c0-29.4 0-59-.3-88.4-.3-23-17.7-44-40.3-48.6-31-6.5-62.5 18.6-62.6 50.4l1 103.5v6h-31V89h31v10c10-9 21-14.4 33-17.4 47-12 97 22.8 101.8 71.2 0 1.4.7 3 1 4.3v115zM481.8 251.5V343h-30.6c0-1.4-.3-2.7-.3-4 0-53.2-1-106.3 0-159.5 0-48 34-88.7 81-98.2 56-11.3 111 28.3 119 85.5 7 56.4-32 107-88 113.8-30 3.4-56-6.6-78-26.6-1 0-2-2-3-3l-1.8 1zm70-1c38.6-.2 69.5-31.4 69.5-70.2 0-38.7-31.4-70-70-69.8-38.5.2-69.5 31.4-69.4 70.2-1 38.6 31 69.8 69 69.7zm576-29.2c14.7 22.6 46 33.8 73.7 26.4 17-4.5 30.4-14.2 40-28.7 9.8-14.5 13.4-30.7 11.3-48.4h30.6c5.5 38.7-17.6 89.2-69.4 105.7-49 15.6-102-8.4-122.6-55.5-20.8-47.3-2.5-102.8 42.6-128.5 46.7-26.6 99-9.2 123.4 20l-129.7 109zm-13-29.5l91.7-77.2c-23.3-9.7-53-3.2-72 15.7-16.5 16.7-22.8 37-19.8 61.5zM864 272h-31v-18.8l-3 2.8c-57.3 49.5-145.6 22-164.2-51.4-17-67.6 38.5-132 107.8-125 51 5.3 90 47.8 90.5 99 1 30 0 60 0 90v3.5zm-170.5-92c0 38.4 31 70 69.2 70 38.6.2 70.3-30.7 70.4-68.7 1-39.7-30-71-69-71-38-.3-70 31-70 69.7zm601.8 0c0-55.6 45.3-100.8 100.7-100.8 55.6 0 101 45.7 100.7 101.3-.3 55.7-45.4 100.6-101 100.5-55.4 0-100.5-45.4-100.4-101zm100.6 70c38 0 70-31.2 70-69.8 0-38.5-32-70-70-70.2-39 0-70 31.3-70 69.8 0 38.7 31 70.2 69 70.2zM873 88.3h18V17.5h31v70.8h46.3v31h-46V272h-31v-6c0-47 0-94 .2-141 0-4.5-1.3-6.3-6-5.8-4 .4-8 0-12 0-.3-10.3-.3-20.2-.3-31zm142 26.7c14.8-13 31.6-22.2 51-25.6 6.8-1.2 13.8-1.3 21-2v28.4c0 3.5-2.4 3-4.4 3-15.5 0-29.3 5-41 14.5-17.5 13.7-27 31.7-27 54-.5 26.2-.3 52.6-.3 79v5.7H984V88.7h30v25.8l1.2.6z"/></svg>