<svg width="3200" height="2400" xmlns="http://www.w3.org/2000/svg" xmlns:xlink="http://www.w3.org/1999/xlink"><title>ykmangele santa</title><defs><linearGradient id="b"><stop stop-color="#ff1010" offset="0"/><stop offset="1"/></linearGradient><linearGradient id="a"><stop stop-color="#ff1010" offset="0"/><stop offset="1"/></linearGradient><linearGradient y2="1.4" x2="1.2" x1=".3" id="c" xlink:href="#a"/><linearGradient y2="1.3" x2="1.1" y1=".1" id="d" xlink:href="#b"/><linearGradient y2="2.2" x2="1.5" y1=".1" id="e" xlink:href="#b"/></defs><title>Layer 1</title><path fill="#d0d0d0" d="M2367.2 2025.6l-19.7 63.8-25-61.2-.5 12.8-6.4-15-1 49-26-40 2.5 15-8-12.2 12 65.5-51-45.3 24 51-52-30.7 39 51.6-67-26 49 45-65-13 64 40-53 3-20 1h-4l60 19-56 13 9 1-12 3 77 10-65 33 61-6-47 35 52-14-38 42 60-29-34 56 62-45-19 70 2-3-1 3 40-48-4 57v3l37-69 15 74 14-61 23 55 1-50 27 40-9-57 44 44-26-69 68 41-5-7 3 2-34-46 60 22h2l-56-51 78 10-59-32 68-3-63-21 59-14-57-9 54-23-72 2 58-43-19 5 14-10-50 14 37-40-9 5 5-6-63 31 32-63-48 40 17-60-46 56 6-69-29 53-7-57z"/><path fill="url(#c)" fill-rule="evenodd" d="M1132.8 196.7c-16-40.4-83.4 75.2-116.6 123.5-38 55.2-77.5 108.2-119.7 160.2-44.2 54.4-122.5 79.2-160 127-15.2 19.5-7 59.5 5.7 84.6 25 49.6 61.7 91.2 97 133.7 34 40.6 68 80.4 109 114 54.2 44.7 104.2 93.8 164.4 130.6 71 43.4 139.5 90.8 214 128.4 53.7 27 106.8 54.2 163.8 74.3 98 34.6 196.4 71.2 297.7 92.8 67 14.2 135 25 203 27.2 27 .8 79 25.5 77 3.3-12-124-65-299.7-108-445.5-24-85.5-40-178-77-258.8-16-36-38-76.6-68-98.7-57-42.6-129-62-205-87.4-118-40-239-122-340-197-47-35-117-67-135-113z"/><path fill="#d0d0d0" d="M698 468c-7.8 13.5-13.4 82.6-22.7 54.3-10-31.7-18-49.8-23.5-51.6-3.3 12 4.6 75.7-15.2 25.4-12.2-24-10.7-6-14.4-6-.5 18 22.3 82-6.8 43 .3-21-20.7-14-28.6-26 25 28-1.4 59-6.5 14 2.6-18-14 23-17.7 7 23.3 28-13.8 54-16 9-8.2-28-10-11-14.4-15 3.2 43-3.5 46-21.2 6-5.5 0-11 0-2.7 37 15.7 50-16.5 5-33.8-11-24.3-25 32.7 64 2.5 37-32.8-26-41-27-14 10 31.7 38-24 1-41.6-4-19-5 51.8 47 28.7 43-27-5-71-19-25 8 42 22 26 27-13 26-47-2 4 12 22 19 11 9-51 14-46 21 16 7 84 4 59 18-39-23 9 14-36 21-32 7 53 14 5 35 3-6 60-3 15 14-50 1-12 2-6 19 50-5 3 14-23 17-6 7 36 10 60 14 15 6-53 30-47 35 28-3 71-12 27 16-49 35 37-10 23 8-23 27-39 48 3 20 35-21 12 1 5 22-28 44 14 1 32-12 23 18-26 24-25 28 46-17 8 54 29 24 23-38 39 5-1 12-44 19 33 2 28 9 32-15-56 44-19 28 46-22 25 4 3 29-6 14 65-43 45-13-13 24-38 64 0 26 29-30 39-28 23 13-14 44-3 33 17 2 23-43 6 30 10 26-8 39 16-16 42 15-9 12-44 14-47 21 16 7 84 4 59 18-18 12-72 36-21 25 51-13 4 17-13 33 25-7 64-24 27 11-35 37 19-1 36-9 9 2-43 71-17 49 16-9 59-61 41-17-3 20-24 76 2 34 23-41 25-24 20 14-6 42 16-24 24-35 14-43 13 28 19 44 4 35 10-35 15-48 8 16 25 84 22 36-1-44 4-15 19 3-14 37 48-13 40 8-23 26-39 47 3 19 42-31 4 19-4 39-1 10 38-30 53-40-5 23-17 62-16 74 11-9 41-72 35-31-2 30-5 62 11 16 13-32 24-57 26-8 10 46-4 35 29 21 28 14-33 47 21 24 44-22-34 46-10 35 25-14 63-41 32 2-28 44-2 20 22-1 33-36 6 24 5 43-12 39 21-20 32-31 5 3-9 71 1 53 10-12 28-79 32-51 5 14 9 88 15 47 5-30 10-62 21-14 1 13 11 36 15 1 48-3-33 48 11 28 48-22 12 13-4 34 9 1 69-48 46-13-17 31-31 56 5 20 32-35 29-15 18 20-16 47 3 18 20-6 19-31 4 33 6 48 9-14 23-47 33-68 5 21 9 67 14 72 1-26 16-71 26-21 3 31 5-3 28 1-6 29-33 44 12 18 41-30 2 21-5 40 2 6 39-31 54-41-5 23-15 56-17 74 13-13 44-74 35-26-6 47 2 35 17-2 15-49 18-11 23 19 4 54 10-2 15-25 5-30 22 64 24 39 0-36 0-48 13-23 21 50-1-33 35 0-24 23-39 34 5 17 35-16-46 55-11 34 30-18 56-34 27 8-29 45 7 9 28-8 30-32 0 33 0 49-8 30 24-28 34-37 2 12-10 80 2 51 11-13 28-83 31-42 5 17 9 87 15 38 4-42 12-46 22-3 16 54 1-45 13-23 21 43 21 27 13-11-9-37 35 37 37 27-1-16-35-76-12-59 23 7 44 46 58 31 29-18 55-33 26 8-29 45 8 8 28-8 29-31 0 34 0 50-8 30 24-27 34-36 2 12-10 80 2 50 10-12 28-82 31-41 5 16 10 86 15 37 4-42 12-44 22-2 15 53 0-48 13-25 21 42 22 29 13-10-9-38 35 37 37 27-1-17-35-76.6-12-60 17 9 63 50 45 23-18-26-38-54 5-28 46 25-3-17-16-33-24-23 42 1 57-1.5 5-6-76-37-32-34 42 0 51-4 6-17-50-10 34-16 29-22-34-4-64-8-16-24 40-16-33-3.7-47-6 1-8.5 60-45.7 43-43 18-18-42 14-35 0 20-23.5 28-29.5 22-35-23 13.5-57-33.6-11-23.7 50 2-17-13-32-21 1-7 81-16 28-19-52-1-4-17 19-29-15-3.7-84 14-51-9 24-20 41-35 31-35 2-8-67 29-24-10 26-29 6-20-20-3.7-41 32-13-12-4-35 21-40-33 30-36 21 2-17 27-83 1-40-19 29-36 53-26 3 8-52-6-19-19 10-11 32-6-65-14-39-7 16-13 84-23 36-11-39-15-34-21-40 1 35 0 60-19 14-6-8-7 2-10 2 25 37-48 40-10 8 19-22-12-1-27 6-41 33-15-10-4-34 20-38-25 17-36 25 1-15 27-84 5-48-14 17-41 68-30 17 5-41 2-52-15-8-15 47-9-42-15-36-8 14-13 85-23 45-10-34-16-42-23-49 0 28 3 72-16 24-10-17-9-3-12-3 12 32-54.5 28-11 0 22-25-10.5-5-33.4 8-36 27 4-31 8-47 9-24-50 57-36 20 7-27 21-69-6-23-23 41-26 27-20-13 8-51-13 10-23 28-6-3-4-84-12-40-8 27-14 71-24 20-10.6-37-14-29-19-27 3 42-3 46-21 6-4 3-12-3-3 37 24 50-32 5-17-6 16-7-30-10-34.4-4-44 7 17-27 28-41-4-3-1-12-38 3-13 1 43-50 18-37-18 6-70 50-45 9.4 15-31 28-59-6-20-32 39-6-22-4-41-3-8-34.2 52-40 48-2-15 12-88-3-50-15 40-22 41-23-3-2-38-13 30-19 44.5 7 3-29-30-3-40-22-10-19-8-26-18 8 29-49 13-5-10 24.6-19 12-18 2.4-19-46 23-21-5-1-28.6-1-6-32 14-54 26-14 3 26-57 19-59-16 14-52 60-33 12 16-46 3-31-17 0-25 46-12-15-12-37 3-36-24 59-27 33-3-34.5-6-65-15-14-16 42-24-22-4-15-32-4-24-8-33-16 4 25-42 18 2-7 36-25 0-11 14-24-38 17-47 13-16-19 17-21-20 3-40 14-30.6 20 11-38 13.5-54-2-9-54 63-37.7 20 10-34 16-59-10-16-23 43-22 19-18-16 9-53-11 2.6-21 22-5 7-5-40-8-47 3 2-36 3-47-4 25-13 69-30 16-23-50 9.7-20-12 4-31 22-17 1.8-11 2.7-16-43 20-35 4.7-9-23.2 11-17-32 13-51 22-14 3 26-57 20-59-17 14-53 60-34 12 15.4-46 3-31-17.6 0-23 40-12-1-12.7-27 9 3 1-35-10-8-16-16-49-8-21-19 48-8 27-12-9-16-20-5 75-32 18-25-41 6-49-1-12-25 30-22 10-17 9-22-43 21-35 5-9-23 9-14-27 9-47 20-22 11 16-43 19-60-15 10-56 65-38 20 13-41 9-46-14-8-25 46-18 4-15-24 6-47-15 18-25 33-2-20-4-39-6.4-58zm282.6 371.6c7.3 47.2-58.7 5.3-9 2.5l9-2zM635 1083.4c39.8 15.7-11.6 50-11 24.2 3.7-8 7.4-16 11-24.2zm827.3 157c25 26.8-45 9-3.4 1.7l3-1zm-602 51c15.5 36.5-48.7 16.4-7.3 1l4.6-.6 2.7-.3zM1004 1370c28.7 25-21.4 57-2.5 12.2l2.5-12.2zm1087 177c52.6-9.2 1 34-4 9.2l4-9.2zm-263.5 175c47.8 3.8.2 37.4 41.5 17.7 23 10.7-20.5 54-22 12-6.4-10-13-19.7-19.5-29.6z"/><path fill="#fff" d="M734.7 517.2c-7.7 13.3-13.2 79.7-23 43.8-10.4-32.4-17-40-21.8-39 2 38.4-3 46-21 8-4 4.7-11-.7-2 35.7 14 51.6-21-13.4-19-.5-31-24.6-12-8.3-10 20-25-.8-11-45-26-13.3-10-22 8 56-17 19-10-29-18-41-19-23 4 44-9 22-23-5 0 15-9 3 1 40 15 45-20-2-36-14-16-11 36 64 1 33-36-28-29-14-7 15 23 28-34-8-49-10 6 11 57 47 30 40-32-8-59-14-17 9 41 20 12 21-19 21-43-2 10 11 26 18-6 6-56 12-43 18 14 3 80 7 48 13-26-17 6 20-37 24 1-1 48 15 8 29 25-19 54 4 14 9-48 0-4 2-2 17 47-5 0 12-23 14-2 5 24 8 52 12 25 3-33 22-44 32 20-1 74-15 33 10-40 26 3 9 25 3-13 16-53 55-11 28 32-18 25-13 16 8-28 40-4 19 20 0 40-4-24 23-11 20 5-10 23 27 15 29 10-35 52-15 11 0-46 21 5 4 17 13 25-16-16 17-29 27 25-8 62-23 26 9-34 33 18-2 34-8 8 1-41 63-16 42 15-8 56-56 39-14-6 23-21 66 4 25 18-41 26-5 11 12 7 33 4-6 32 11 47 10-45 15-21 20-22 6 41 8 55 12-10 9-72 33-44 30 38-8 47-3 11 20-35 25 55-21 26 5-28 28-27 34 9 12 37-25-5 26-10 42 13-7 44-39 52-37-1 15-23 70-10 55 16-21 37-56 27-8-8 47 8 6 19-15 14-46 15 7 20 27 5 43 11-22 16-37 9 19 24 75 21 26-1-37 8 0 23 15-22 20 59-23 30 3-27 28-26 34 9 12 36-25-5 26-11 42 13-8 44-40 52-38-2 15-23 70-10 55 16-21 37-56 27-8-8 47 9 6 19-15 15-46 15 7 21 27-5 42 21-28 35 12-35 28 1 11 25 5-8 13-53 54-14 30 36-24 33-12 12 19-22 33 26-15 38-21 15-9-9 44-9 59 6 0 35-53 35-35-1 20-9 70 8 25 12-30 24-54 26-8 5 44 10 30 16-6 7-32 11 22 19 26-3 19 20-41 23 0-45 30 18 0 22 6-17 20-46 49-4 22 39-28 17 4 4 27-17 28 31-20 43-26 6 5-13 50-12 60 6 2 41-66 33-25-5 34-4 50 12 10 14-41 20-28 24 8 6 51 6-5 19-19 11 10 14 52 19 28 43-31-10 40 11 20 27-16 52-30 24 8-28 41 10 4 27-9 29-29 0 30 0 46-7 24 24-27 33-35 1 13-11 77 4 41 11-18 26-72 28-24 5 32 9 57 15 11 4-48 16 10 25 28 1-22 2-57 9-31 16 28 10 30 45 16 27-10-46 51-13 32 27-16 52-29 24 9-29 41 9 4 27-8 28-29 0 30 0 45-6 24 24-26 33-34.8 1 13-11 77 4 41 11-18 26-72 28-24 5 32 10 57 16 11 4-48 16 11 24 28-1-32-1-61 19-18 17.5 28.5-16-64.4 6-34 21.3 25 37.4 42 17.6 0-21-39-3-30 24-9 22 25.3 33 10 61-3.6 26-16-24 45-15 44 13-5 55-54 47-27-2 15-25 74-2.7 40.4 20-33 29-33 21 7-6 41 15-19 23-31 13-37 12 29 18 42 5 32 9-59 17-37 11 31 21 58 17.7 10-3-35 35 59 21 4-14-46 7-20 26 2 13 12-14-42-16.5-56 16 8 50 35 56 35 8-1-45.2-54-17-40.6 25 10 57 26 21-4-34-27-21.3-30 15-22 48 11 0-11-18-22-18.3-11 53.8-2.3 48-9-19-8.3-74-18.3-26-24 49-8-3-10-24.3-14 14-8 70-26 25-20.4-37 5-47 0-11-23 29-20 10-15 9-19-38 20-36 0-7-16 4-14-3 0-27-17-35-22 52-10 30-18-25-8-68-18-19-23 52-8-24-8-23-15 29-12 56-24 8-18-48 9-7-15 11-31 20-14-11-1 2-12-36 15-45 12-14-17 15-18-20 4-39 13-29 19 10.2-35 13-50-8 1-51.7 57-37 20 12-36 11-46-12-10-25 43-15-4.2-14-28 4-35-21 41-25 32-3-26-5-68-14-20-6 47-16 17-25-12-8-17-13-16-12 18 1 28-28-46-23-15-8-19 7 53-27 23 24-25 24-32-6-14-28 18-40.6 20-18.6-13 25-41.6.6-17.6-21 2.5-19 18.6 18-61 3-43-12.5 11.5-42 68.4-33.5 24.4 3-33 4-56-13-13-15 46-10-33-16-29-8 15-13 78.2-23 35-11-31-17.5-40-21-30.6 4 43.4-6 35-22.3 1.2-1 17-4-4-6 25-46 22-3-23-3-26-4-3-38 18-56 27 4-14 39-69 19-51-23 24-40 38-23-4 16-45-15 7-27 21-14 17 0-41-2-56-11 17-28 71-27 23-1-50-10 2-17 22-6 28-20-48-25-42-10-20-2 41-11 33-16-31-20-26-23-19 0 15 20 69-4 40-29-23 20.3-22-26-25-3 3-54.7 10-10.4-15 26-18 22-21 19-24 3-8-64.6 26-22-9 25-26 4.3-16-19.6-3-39 29-13-10-3-32 18-33-33 30-34 20 4-20 24-73-2-31-21 33-29 35-22-6 8-48-13 6-23 24-4-15-3-76-12-32-9 30-10 44-16 25-10-35 6-15-16-42-3 18-5-9-11 17-45 1 21-36 16-39-4-3-13-4-44 8 14-17 42.6-45 20-34-19 8-64 42-37 2 20-34 18-41-11-10-27 30 1-30 2-44-12 9-41.4 66-39 39 1-26 8-71-10-24-16 46-14-7-17.4-28-5 6-13 69-28 30 36-18-10-10-11-25-5 5-3-8-11 13-35-1 21-29 30.4-40-18.7 4-3-9.5-41 6-12-.4 35-40.3 20-36-15 4-67 46-48 14 11-23.4 33-61-1-24-31.5 37-11-10-6.5-31.4.4-14-33 46-38 41-1.5-13 12-81-3.5-45-15 28-16 40-20 9 4-36-6-14-38-24-26-2 67-27 20-22-32 3-59 5-19-19 31-21 15-18 12-22-41 18-33 4-8-22 6-12-26 8-45 18-21 10 14-38 17-53-15 9-54 59-37 17 15-42 4-33-16-2-22 35-11-3-11-25 10-5 1-22-14-8-13-15-46-5-12-16 48-7 12-11-16-15-9-4 69-26 25-21-32 3-60 5-20-19 29-20 20-22 9-21-44 20-23-3-1.8-25-1-5-31 13-51 23-14 4 25-51.4 18-52.5-16 13-51 56-32 11 16.6-46-1.4-21-19.5 5-21 35-5-29-7-44-4.2-7-27.2 71-26.2 28l-4-36zm-107.5 83c5.6 5.2-2.4 10 0 0zM878 710c-9.8 47.7-35.5-9.6 0 0zm-27.8 1.5c-.5 17.4-28.5-8.7 0 0zM835.8 735c14.2-4.2 2.2 27.6 0 0zM502 769.4c-25 17.7-52.7-2 0 0zm11.8 38.3c6 1.8-6 1.8 0 0zm490.8 40.5c5 42.7-55.3 3.8-9 2.2l9-2.2zm-9 31.4c1.2 36.3-22.3-5 0 0zm-34.7 1.6c2-1.5 0 4.8 0 0zm-20 21.3c3-2.2 1 5.3 0 0zm159 64.5c4 6.2-6 1.3 0 0zm22 18.3c4 10.2-13 1.4 0 0zm31 13.3c0 21-14-1.2 0 0zm-471 52.7c5 12-10 8.7 0 0zm-7 13.8c37 15-13 46-11 22l11-21zm593 8c8 10-10 16 0 0zm-5 4c5 10-16 6 0 0zm-561 8c25 10-8 13 0 0zm588 9c6 22-17 2 0 0zm-595 19c3 0-2 3 0 0zm767 93c20 26-46 6 0 0zm-576 15c48-5 0 28 0 0zm-22 5c29 19-3 34 0 0zm607 3c16 19-18-3 0 0zm-23 6c19 15-22-1 0 0zm-543 16c-9 13-16-2 0 0zm-17 2c16 33-46 15-7 1h4l2-1zm801 0c2 4-11 3 0 0zm-34 4c5 4-10 5 0 0zm34 3c24 51-32 11 0 0zm-25 20c21 26-20 5 0 0zm222 28c1 8-11 5 0 0zm-33 3c7 7-13 8 0 0zm33 5c17 37-23 8 0 0zm-865 8c29 19-20 54-3 14l3-14zm22 3c18 15-9 25 0 0zm17 3c11-3-2 7 0 0zm803 5c9 10-9 4 0 0zm-17 14c3 3-5 1 0 0zm-785 8c-23 31-32-3 0 0zm157 65c28 9-4 31 0 0zm24 4c4-1 1 2 0 0zm-40 7c18 16-8 26 0 0zm38 19c-18 25-28-3 0 0zm821 8c-5 8-12-3 0 0zm-4 25c54-9-9 34-2 5l2-3zm-698 37c10 12-9 17 0 0zm49 7c-13 17-17-2 0 0zm-29 3c22 10-9 41 0 0zm33 17c-12 23-20 1 0 0zm172 36c49-4 1 28 0 0zm-21 4c29 20-2 34 0 0zm280 15c28-1 20 15 0 0zm-238 10c-9 12-16-3 0 0zm-17 1c15 33-46 15-7 1h7zm221 0c53-3 19 27 0 0zm51 17c-23 30-47-5 0 0zm-56 10c46 4 1 33 41 16 21 7-21 48-20 13-6-10-14-19-21-29zm61 10c-10 19-23 1 0 0z"/><path fill="url(#d)" fill-rule="evenodd" d="M1103 210c-7.6-47 171-116.4 250.5-150 57.6-24.3 118.2-51.6 179.7-54.8C1660.7-1.4 1792 0 1917 37c108.4 32 229.3 34.3 330.8 82 75 35.5 140 90.3 194.6 155 55.7 66 109.3 135.3 147.5 212.2 26 52.7 53 105 56 166.6 9 182.7 24 365.5 23 549-1 103.6 21 213.3-11 312.5-61 189.8-169 361.4-238 549-24 64.7-10 166.4-67 194.3-35 16.7-51-51.5-72-79.3-55-73-62-167-95-250.3-59-150-73-312.4-106-469.2-43-204-114-409.7-179-608-29-87-47-191.4-107-252.8-59-59.6-165-67.3-245-104.2-71-32.4-146-64-206-111.3-81-63-234-116-243-172.6z"/><path fill="#fff" d="M2364.8 2022.2l-17 59.6-22-57-.4 11.8-5.3-14-1 45.4-22-36.8 2 14-7-11.8 11 61.2-44-42 21 47.3-44-29 33 48-58-24 43 42-57-12 55 37-43 2-19 1h-4l53 17-49 11 9 2-11 2 67 9-56 31 52-6-40 33 46-13-33 39 52-27-29 52 54-42-16 65 1-2-1 2 35-44-3 54v2l32-64 12 69 13-56 19 51 1-46 24 37-8-53 38 41-23-64 59 38-4-6 3 2-31-45 21 8 33 14-48-48 68 9-51-30 59-4-55-20 50-13-50-7 46-21-62 2 51-41-16 5 11-9-43 13 32-37-9 4 4-5-55 28 27-58-42 37 15-56-40 52 5-64-25 49-6-52z"/><path fill="url(#e)" fill-rule="evenodd" d="M1103 210c-7.6-47 171-116.4 250.5-150 57.6-24.3 118.2-51.6 179.7-54.8C1660.7-1.4 1792 0 1917 37c108.4 32 229.3 34.3 330.8 82 75 35.5 140 90.3 194.6 155 55.7 66 109.3 135.3 147.5 212.2 26 52.7 77 108.8 56 166.6-58 156-108 186.8-167 259.3-125 156-143 362-212 550-24 65-10 167-67 195-34 17-51-51-72-79-55-73-23-193-55-277-60-150-113-272-172-442-69-197 91 219 27 21-29-87-74-218-134-279-59-59-165-67-245-104-71-32-146-64-206-111-81-63-234-116-243-173z"/></svg>